<svg height="469pt" viewBox="0 -42 469.33334 469" width="469pt" xmlns="http://www.w3.org/2000/svg"><path d="m469.332031 170.832031c0-42.664062-42.664062-170.664062-234.664062-170.664062s-234.667969 128-234.667969 170.664062v170.667969c0 23.5625 19.101562 42.667969 42.667969 42.667969h384c23.5625 0 42.664062-19.105469 42.664062-42.667969zm0 0" fill="#db7230"/><path d="m384 341.5v-128c0-42.667969-64-85.332031-170.667969-85.332031-106.664062 0-170.664062 42.664062-170.664062 85.332031v128c0 23.5625 19.101562 42.667969 42.664062 42.667969h256c23.566407 0 42.667969-19.105469 42.667969-42.667969zm0 0" fill="#e8a073"/><path d="m234.667969 106.832031c23.5625 0 42.664062-42.980469 42.664062-96 0-2.789062-.257812-5.414062-.363281-8.144531-28.101562-3.359375-56.503906-3.359375-84.605469 0-.101562 2.730469-.363281 5.355469-.363281 8.144531 0 53.019531 19.101562 96 42.667969 96zm0 0" fill="#e8a073"/><path d="m419.238281 64.890625c-18.800781-18.867187-44.144531-35.878906-77.625-47.777344 1.464844 50.035157 19.777344 89.71875 42.386719 89.71875 14.648438 0 27.554688-16.636719 35.238281-41.941406zm0 0" fill="#e8a073"/><path d="m127.71875 17.113281c-33.476562 11.898438-58.824219 28.910157-77.625 47.777344 7.683594 25.304687 20.59375 41.941406 35.238281 41.941406 22.609375 0 40.921875-39.683593 42.386719-89.71875zm0 0" fill="#f4ba93"/><path d="m127.71875 17.113281c-33.476562 11.898438-58.824219 28.910157-77.625 47.777344 7.683594 25.304687 20.59375 41.941406 35.238281 41.941406 22.609375 0 40.921875-39.683593 42.386719-89.71875zm0 0" fill="#e8a073"/><path d="m128 170.832031c23.5625 0 42.667969 19.105469 42.667969 42.667969v106.667969c0 23.5625-19.105469 42.664062-42.667969 42.664062s-42.667969-19.101562-42.667969-42.664062v-106.667969c0-23.5625 19.105469-42.667969 42.667969-42.667969zm0 0" fill="#f4ba93"/><path d="m341.332031 213.5c0 23.5625-19.101562 42.667969-42.664062 42.667969-23.566407 0-42.667969-19.105469-42.667969-42.667969s19.101562-42.667969 42.667969-42.667969c23.5625 0 42.664062 19.105469 42.664062 42.667969zm0 0" fill="#f4ba93"/><path d="m213.359375.855469c-7.199219.445312-14.179687 1.074219-20.996094 1.832031-.101562 2.730469-.363281 5.355469-.363281 8.144531 0 53.019531 19.101562 96 42.667969 96 3.796875 0 7.414062-1.472656 10.921875-3.570312-18.417969-11.613281-32.097656-52.839844-32.230469-102.40625zm0 0" fill="#c35422"/><path d="m364.132812 26.492188c-7.339843-3.511719-14.855468-6.644532-22.519531-9.378907 1.464844 50.035157 19.777344 89.71875 42.386719 89.71875 3.960938-.070312 7.824219-1.246093 11.152344-3.390625-15.222656-9.367187-27.144532-39.015625-31.019532-76.949218zm0 0" fill="#c35422"/><path d="m68.875 48.703125c-6.613281 4.976563-12.886719 10.382813-18.78125 16.1875 7.683594 25.304687 20.59375 41.941406 35.238281 41.941406 3.800781 0 7.410157-1.484375 10.90625-3.585937-11.972656-7.5625-21.828125-27.691406-27.363281-54.542969zm0 0" fill="#c35422"/><path d="m298.667969 32.167969c0 5.890625-4.777344 10.664062-10.667969 10.664062s-10.667969-4.773437-10.667969-10.664062 4.777344-10.667969 10.667969-10.667969 10.667969 4.777344 10.667969 10.667969zm0 0" fill="#e18850"/><path d="m149.332031 32.167969c0 5.890625-4.773437 10.664062-10.664062 10.664062s-10.667969-4.773437-10.667969-10.664062 4.777344-10.667969 10.667969-10.667969 10.664062 4.777344 10.664062 10.667969zm0 0" fill="#e18850"/><path d="m149.332031 74.832031c0 5.890625-4.773437 10.667969-10.664062 10.667969s-10.667969-4.777344-10.667969-10.667969 4.777344-10.664062 10.667969-10.664062 10.664062 4.773437 10.664062 10.664062zm0 0" fill="#e18850"/><path d="m192 53.5c0 5.890625-4.777344 10.667969-10.667969 10.667969s-10.664062-4.777344-10.664062-10.667969 4.773437-10.667969 10.664062-10.667969 10.667969 4.777344 10.667969 10.667969zm0 0" fill="#e18850"/><path d="m298.667969 74.832031c0 5.890625-4.777344 10.667969-10.667969 10.667969s-10.667969-4.777344-10.667969-10.667969 4.777344-10.664062 10.667969-10.664062 10.667969 4.773437 10.667969 10.664062zm0 0" fill="#e18850"/><path d="m448 117.5c0 5.890625-4.777344 10.667969-10.667969 10.667969s-10.664062-4.777344-10.664062-10.667969 4.773437-10.667969 10.664062-10.667969 10.667969 4.777344 10.667969 10.667969zm0 0" fill="#e18850"/><path d="m320 309.5c0 5.890625-4.777344 10.667969-10.667969 10.667969s-10.664062-4.777344-10.664062-10.667969 4.773437-10.667969 10.664062-10.667969 10.667969 4.777344 10.667969 10.667969zm0 0" fill="#db7230"/><path d="m277.332031 330.832031c0 5.890625-4.773437 10.667969-10.664062 10.667969s-10.667969-4.777344-10.667969-10.667969 4.777344-10.664062 10.667969-10.664062 10.664062 4.773437 10.664062 10.664062zm0 0" fill="#db7230"/><path d="m320 373.5c0 5.890625-4.777344 10.667969-10.667969 10.667969s-10.664062-4.777344-10.664062-10.667969 4.773437-10.667969 10.664062-10.667969 10.667969 4.777344 10.667969 10.667969zm0 0" fill="#db7230"/><path d="m362.667969 352.167969c0 5.890625-4.777344 10.664062-10.667969 10.664062s-10.667969-4.773437-10.667969-10.664062 4.777344-10.667969 10.667969-10.667969 10.667969 4.777344 10.667969 10.667969zm0 0" fill="#db7230"/><path d="m362.667969 266.832031c0 5.890625-4.777344 10.667969-10.667969 10.667969s-10.667969-4.777344-10.667969-10.667969 4.777344-10.664062 10.667969-10.664062 10.667969 4.773437 10.667969 10.664062zm0 0" fill="#db7230"/><path d="m426.667969 202.832031c0 5.890625-4.777344 10.667969-10.667969 10.667969s-10.667969-4.777344-10.667969-10.667969 4.777344-10.664062 10.667969-10.664062 10.667969 4.773437 10.667969 10.664062zm0 0" fill="#e18850"/><path d="m448 266.832031c0 5.890625-4.777344 10.667969-10.667969 10.667969s-10.664062-4.777344-10.664062-10.667969 4.773437-10.664062 10.664062-10.664062 10.667969 4.773437 10.667969 10.664062zm0 0" fill="#e18850"/><path d="m405.332031 245.5c0 5.890625-4.773437 10.667969-10.664062 10.667969s-10.667969-4.777344-10.667969-10.667969 4.777344-10.667969 10.667969-10.667969 10.664062 4.777344 10.664062 10.667969zm0 0" fill="#e18850"/><path d="m320 181.5c0 5.890625-4.777344 10.667969-10.667969 10.667969s-10.664062-4.777344-10.664062-10.667969 4.773437-10.667969 10.664062-10.667969 10.667969 4.777344 10.667969 10.667969zm0 0" fill="#db7230"/><path d="m384 224.167969c0 5.890625-4.777344 10.664062-10.667969 10.664062s-10.664062-4.773437-10.664062-10.664062 4.773437-10.667969 10.664062-10.667969 10.667969 4.777344 10.667969 10.667969zm0 0" fill="#db7230"/><path d="m234.667969 181.5c0 5.890625-4.777344 10.667969-10.667969 10.667969s-10.667969-4.777344-10.667969-10.667969 4.777344-10.667969 10.667969-10.667969 10.667969 4.777344 10.667969 10.667969zm0 0" fill="#db7230"/><path d="m277.332031 160.167969c0 5.890625-4.773437 10.664062-10.664062 10.664062s-10.667969-4.773437-10.667969-10.664062 4.777344-10.667969 10.667969-10.667969 10.664062 4.777344 10.664062 10.667969zm0 0" fill="#db7230"/><path d="m256 288.167969c0 5.890625-4.777344 10.664062-10.667969 10.664062s-10.664062-4.773437-10.664062-10.664062 4.773437-10.667969 10.664062-10.667969 10.667969 4.777344 10.667969 10.667969zm0 0" fill="#e8a073"/><path d="m149.332031 224.167969c0 5.890625-4.773437 10.664062-10.664062 10.664062s-10.667969-4.773437-10.667969-10.664062 4.777344-10.667969 10.667969-10.667969 10.664062 4.777344 10.664062 10.667969zm0 0" fill="#e8a073"/><path d="m106.667969 309.5c0 5.890625-4.777344 10.667969-10.667969 10.667969s-10.667969-4.777344-10.667969-10.667969 4.777344-10.667969 10.667969-10.667969 10.667969 4.777344 10.667969 10.667969zm0 0" fill="#e8a073"/><path d="m128 160.167969c0 5.890625-4.777344 10.664062-10.667969 10.664062s-10.664062-4.773437-10.664062-10.664062 4.773437-10.667969 10.664062-10.667969 10.667969 4.777344 10.667969 10.667969zm0 0" fill="#e8a073"/><path d="m341.332031 53.5c0 5.890625-4.773437 10.667969-10.664062 10.667969s-10.667969-4.777344-10.667969-10.667969 4.777344-10.667969 10.667969-10.667969 10.664062 4.777344 10.664062 10.667969zm0 0" fill="#e18850"/><path d="m42.667969 117.5c0 5.890625-4.777344 10.667969-10.667969 10.667969s-10.667969-4.777344-10.667969-10.667969 4.777344-10.667969 10.667969-10.667969 10.667969 4.777344 10.667969 10.667969zm0 0" fill="#e18850"/><g fill="#f4ba93"><path d="m128 32.167969c0 5.890625-4.777344 10.664062-10.667969 10.664062s-10.664062-4.773437-10.664062-10.664062 4.773437-10.667969 10.664062-10.667969 10.667969 4.777344 10.667969 10.667969zm0 0"/><path d="m106.667969 74.832031c0 5.890625-4.777344 10.667969-10.667969 10.667969s-10.667969-4.777344-10.667969-10.667969 4.777344-10.664062 10.667969-10.664062 10.667969 4.773437 10.667969 10.664062zm0 0"/><path d="m234.667969 10.832031c0 5.890625-4.777344 10.667969-10.667969 10.667969s-10.667969-4.777344-10.667969-10.667969 4.777344-10.664062 10.667969-10.664062 10.667969 4.773437 10.667969 10.664062zm0 0"/><path d="m256 74.832031c0 5.890625-4.777344 10.667969-10.667969 10.667969s-10.664062-4.777344-10.664062-10.667969 4.773437-10.664062 10.664062-10.664062 10.667969 4.773437 10.667969 10.664062zm0 0"/><path d="m277.332031 32.167969c0 5.890625-4.773437 10.664062-10.664062 10.664062s-10.667969-4.773437-10.667969-10.664062 4.777344-10.667969 10.667969-10.667969 10.664062 4.777344 10.664062 10.667969zm0 0"/><path d="m405.332031 74.832031c0 5.890625-4.773437 10.667969-10.664062 10.667969s-10.667969-4.777344-10.667969-10.667969 4.777344-10.664062 10.667969-10.664062 10.664062 4.773437 10.664062 10.664062zm0 0"/></g></svg>