<svg height="469pt" viewBox="0 -42 469.33334 469" width="469pt" xmlns="http://www.w3.org/2000/svg"><path d="m21.332031.167969h426.667969c11.246094 0 20.363281 9.117187 20.363281 20.363281v343.273438c0 11.246093-9.117187 20.363281-20.363281 20.363281h-426.667969c-11.78125 0-21.332031-9.550781-21.332031-21.335938v-341.332031c0-11.78125 9.550781-21.332031 21.332031-21.332031zm0 0" fill="#e8a073"/><path d="m64 .167969h277.332031c11.785157 0 21.335938 9.550781 21.335938 21.332031v341.332031c0 11.785157-9.550781 21.335938-21.335938 21.335938h-277.332031c-11.78125 0-21.332031-9.550781-21.332031-21.335938v-341.332031c0-11.78125 9.550781-21.332031 21.332031-21.332031zm0 0" fill="#f4ba93"/><path d="m106.667969.167969h21.332031c11.78125 0 21.332031 9.550781 21.332031 21.332031v341.332031c0 11.785157-9.550781 21.335938-21.332031 21.335938h-21.332031c-11.785157 0-21.335938-9.550781-21.335938-21.335938v-341.332031c0-11.78125 9.550781-21.332031 21.335938-21.332031zm0 0" fill="#f6cbaf"/><path d="m21.332031 234.832031h426.667969c11.78125 0 21.332031 9.550781 21.332031 21.335938v42.664062c0 11.785157-9.550781 21.335938-21.332031 21.335938h-426.667969c-11.78125 0-21.332031-9.550781-21.332031-21.335938v-42.664062c0-11.785157 9.550781-21.335938 21.332031-21.335938zm0 0" fill="#3e190c"/><path d="m64 234.832031h277.332031c11.785157 0 21.335938 9.550781 21.335938 21.335938v42.664062c0 11.785157-9.550781 21.335938-21.335938 21.335938h-277.332031c-11.78125 0-21.332031-9.550781-21.332031-21.335938v-42.664062c0-11.785157 9.550781-21.335938 21.332031-21.335938zm0 0" fill="#653430"/><path d="m64 234.832031h128c11.78125 0 21.332031 9.550781 21.332031 21.335938 0 11.78125-9.550781 21.332031-21.332031 21.332031h-128c-11.78125 0-21.332031-9.550781-21.332031-21.332031 0-11.785157 9.550781-21.335938 21.332031-21.335938zm0 0" fill="#7c534f"/><path d="m21.332031 64.167969h426.667969c11.78125 0 21.332031 9.550781 21.332031 21.332031v42.667969c0 11.78125-9.550781 21.332031-21.332031 21.332031h-426.667969c-11.78125 0-21.332031-9.550781-21.332031-21.332031v-42.667969c0-11.78125 9.550781-21.332031 21.332031-21.332031zm0 0" fill="#3e190c"/><path d="m64 64.167969h277.332031c11.785157 0 21.335938 9.550781 21.335938 21.332031v42.667969c0 11.78125-9.550781 21.332031-21.335938 21.332031h-277.332031c-11.78125 0-21.332031-9.550781-21.332031-21.332031v-42.667969c0-11.78125 9.550781-21.332031 21.332031-21.332031zm0 0" fill="#653430"/><path d="m64 64.167969h128c11.78125 0 21.332031 9.550781 21.332031 21.332031s-9.550781 21.332031-21.332031 21.332031h-128c-11.78125 0-21.332031-9.550781-21.332031-21.332031s9.550781-21.332031 21.332031-21.332031zm0 0" fill="#7c534f"/><path d="m106.667969 245.5c0 5.890625-4.777344 10.667969-10.667969 10.667969s-10.667969-4.777344-10.667969-10.667969 4.777344-10.667969 10.667969-10.667969 10.667969 4.777344 10.667969 10.667969zm0 0" fill="#93716e"/><path d="m149.332031 245.5c0 5.890625-4.773437 10.667969-10.664062 10.667969s-10.667969-4.777344-10.667969-10.667969 4.777344-10.667969 10.667969-10.667969 10.664062 4.777344 10.664062 10.667969zm0 0" fill="#93716e"/><path d="m234.667969 245.5c0 5.890625-4.777344 10.667969-10.667969 10.667969s-10.667969-4.777344-10.667969-10.667969 4.777344-10.667969 10.667969-10.667969 10.667969 4.777344 10.667969 10.667969zm0 0" fill="#7c534f"/><path d="m234.667969 288.167969c0 5.890625-4.777344 10.664062-10.667969 10.664062s-10.667969-4.773437-10.667969-10.664062 4.777344-10.667969 10.667969-10.667969 10.667969 4.777344 10.667969 10.667969zm0 0" fill="#7c534f"/><path d="m298.667969 266.832031c0 5.890625-4.777344 10.667969-10.667969 10.667969s-10.667969-4.777344-10.667969-10.667969 4.777344-10.664062 10.667969-10.664062 10.667969 4.773437 10.667969 10.664062zm0 0" fill="#7c534f"/><path d="m320 309.5c0 5.890625-4.777344 10.667969-10.667969 10.667969s-10.664062-4.777344-10.664062-10.667969 4.773437-10.667969 10.664062-10.667969 10.667969 4.777344 10.667969 10.667969zm0 0" fill="#7c534f"/><path d="m213.332031 181.5c0 5.890625-4.773437 10.667969-10.664062 10.667969s-10.667969-4.777344-10.667969-10.667969 4.777344-10.667969 10.667969-10.667969 10.664062 4.777344 10.664062 10.667969zm0 0" fill="#f6cbaf"/><path d="m64 181.5c0 5.890625-4.777344 10.667969-10.667969 10.667969s-10.664062-4.777344-10.664062-10.667969 4.773437-10.667969 10.664062-10.667969 10.667969 4.777344 10.667969 10.667969zm0 0" fill="#f6cbaf"/><path d="m21.332031 202.832031c0 5.890625-4.773437 10.667969-10.664062 10.667969s-10.667969-4.777344-10.667969-10.667969 4.777344-10.664062 10.667969-10.664062 10.664062 4.773437 10.664062 10.664062zm0 0" fill="#f4ba93"/><path d="m277.332031 202.832031c0 5.890625-4.773437 10.667969-10.664062 10.667969s-10.667969-4.777344-10.667969-10.667969 4.777344-10.664062 10.667969-10.664062 10.664062 4.773437 10.664062 10.664062zm0 0" fill="#f6cbaf"/><path d="m234.667969 10.832031c0 5.890625-4.777344 10.667969-10.667969 10.667969s-10.667969-4.777344-10.667969-10.667969 4.777344-10.664062 10.667969-10.664062 10.667969 4.773437 10.667969 10.664062zm0 0" fill="#f6cbaf"/><path d="m170.667969 32.167969c0 5.890625-4.777344 10.664062-10.667969 10.664062s-10.667969-4.773437-10.667969-10.664062 4.777344-10.667969 10.667969-10.667969 10.667969 4.777344 10.667969 10.667969zm0 0" fill="#f6cbaf"/><path d="m341.332031 32.167969c0 5.890625-4.773437 10.664062-10.664062 10.664062s-10.667969-4.773437-10.667969-10.664062 4.777344-10.667969 10.667969-10.667969 10.664062 4.777344 10.664062 10.667969zm0 0" fill="#f6cbaf"/><path d="m277.332031 32.167969c0 5.890625-4.773437 10.664062-10.664062 10.664062s-10.667969-4.773437-10.667969-10.664062 4.777344-10.667969 10.667969-10.667969 10.664062 4.777344 10.664062 10.667969zm0 0" fill="#f6cbaf"/><path d="m192 373.5c0 5.890625-4.777344 10.667969-10.667969 10.667969s-10.664062-4.777344-10.664062-10.667969 4.773437-10.667969 10.664062-10.667969 10.667969 4.777344 10.667969 10.667969zm0 0" fill="#f6cbaf"/><path d="m42.667969 348.171875c0 5.890625-4.777344 10.667969-10.667969 10.667969s-10.667969-4.777344-10.667969-10.667969 4.777344-10.664063 10.667969-10.664063 10.667969 4.773438 10.667969 10.664063zm0 0" fill="#f4ba93"/><path d="m213.332031 330.832031c0 5.890625-4.773437 10.667969-10.664062 10.667969s-10.667969-4.777344-10.667969-10.667969 4.777344-10.664062 10.667969-10.664062 10.664062 4.773437 10.664062 10.664062zm0 0" fill="#f6cbaf"/><path d="m277.332031 330.832031c0 5.890625-4.773437 10.667969-10.664062 10.667969s-10.667969-4.777344-10.667969-10.667969 4.777344-10.664062 10.667969-10.664062 10.664062 4.773437 10.664062 10.664062zm0 0" fill="#f6cbaf"/><path d="m341.332031 352.167969c0 5.890625-4.773437 10.664062-10.664062 10.664062s-10.667969-4.773437-10.667969-10.664062 4.777344-10.667969 10.667969-10.667969 10.664062 4.777344 10.664062 10.667969zm0 0" fill="#f6cbaf"/><path d="m256 373.5c0 5.890625-4.777344 10.667969-10.667969 10.667969s-10.664062-4.777344-10.664062-10.667969 4.773437-10.667969 10.664062-10.667969 10.667969 4.777344 10.667969 10.667969zm0 0" fill="#f6cbaf"/><path d="m341.332031 202.832031c0 5.890625-4.773437 10.667969-10.664062 10.667969s-10.667969-4.777344-10.667969-10.667969 4.777344-10.664062 10.667969-10.664062 10.664062 4.773437 10.664062 10.664062zm0 0" fill="#f6cbaf"/><path d="m106.667969 309.5c0 5.890625-4.777344 10.667969-10.667969 10.667969s-10.667969-4.777344-10.667969-10.667969 4.777344-10.667969 10.667969-10.667969 10.667969 4.777344 10.667969 10.667969zm0 0" fill="#7c534f"/><path d="m149.332031 288.167969c0 5.890625-4.773437 10.664062-10.664062 10.664062s-10.667969-4.773437-10.667969-10.664062 4.777344-10.667969 10.667969-10.667969 10.664062 4.777344 10.664062 10.667969zm0 0" fill="#7c534f"/><path d="m192 309.5c0 5.890625-4.777344 10.667969-10.667969 10.667969s-10.664062-4.777344-10.664062-10.667969 4.773437-10.667969 10.664062-10.667969 10.667969 4.777344 10.667969 10.667969zm0 0" fill="#7c534f"/><path d="m106.667969 74.832031c0 5.890625-4.777344 10.667969-10.667969 10.667969s-10.667969-4.777344-10.667969-10.667969 4.777344-10.664062 10.667969-10.664062 10.667969 4.773437 10.667969 10.664062zm0 0" fill="#93716e"/><path d="m149.332031 96.167969c0 5.890625-4.773437 10.664062-10.664062 10.664062s-10.667969-4.773437-10.667969-10.664062 4.777344-10.667969 10.667969-10.667969 10.664062 4.777344 10.664062 10.667969zm0 0" fill="#93716e"/><g fill="#7c534f"><path d="m277.332031 74.832031c0 5.890625-4.773437 10.667969-10.664062 10.667969s-10.667969-4.777344-10.667969-10.667969 4.777344-10.664062 10.667969-10.664062 10.664062 4.773437 10.664062 10.664062zm0 0"/><path d="m234.667969 117.5c0 5.890625-4.777344 10.667969-10.667969 10.667969s-10.667969-4.777344-10.667969-10.667969 4.777344-10.667969 10.667969-10.667969 10.667969 4.777344 10.667969 10.667969zm0 0"/><path d="m341.332031 96.167969c0 5.890625-4.773437 10.664062-10.664062 10.664062s-10.667969-4.773437-10.667969-10.664062 4.777344-10.667969 10.667969-10.667969 10.664062 4.777344 10.664062 10.667969zm0 0"/><path d="m298.667969 138.832031c0 5.890625-4.777344 10.667969-10.667969 10.667969s-10.667969-4.777344-10.667969-10.667969 4.777344-10.664062 10.667969-10.664062 10.667969 4.773437 10.667969 10.664062zm0 0"/><path d="m85.332031 138.832031c0 5.890625-4.773437 10.667969-10.664062 10.667969s-10.667969-4.777344-10.667969-10.667969 4.777344-10.664062 10.667969-10.664062 10.664062 4.773437 10.664062 10.664062zm0 0"/><path d="m149.332031 138.832031c0 5.890625-4.773437 10.667969-10.664062 10.667969s-10.667969-4.777344-10.667969-10.667969 4.777344-10.664062 10.667969-10.664062 10.664062 4.773437 10.664062 10.664062zm0 0"/><path d="m192 117.5c0 5.890625-4.777344 10.667969-10.667969 10.667969s-10.664062-4.777344-10.664062-10.667969 4.773437-10.667969 10.664062-10.667969 10.667969 4.777344 10.667969 10.667969zm0 0"/></g></svg>