<svg height="426.66666pt" viewBox="0 0 426.66666 426.66666" width="426.66666pt" xmlns="http://www.w3.org/2000/svg"><path d="m21.332031 42.667969h384c11.785157 0 21.335938 9.550781 21.335938 21.332031v341.332031c0 11.785157-9.550781 21.335938-21.335938 21.335938h-384c-11.78125 0-21.332031-9.550781-21.332031-21.335938v-341.332031c0-11.78125 9.550781-21.332031 21.332031-21.332031zm0 0" fill="#f4ba93"/><path d="m42.667969 42.667969h298.664062c11.785157 0 21.335938 9.550781 21.335938 21.332031v341.332031c0 11.785157-9.550781 21.335938-21.335938 21.335938h-298.664062c-11.785157 0-21.335938-9.550781-21.335938-21.335938v-341.332031c0-11.78125 9.550781-21.332031 21.335938-21.332031zm0 0" fill="#f6cbaf"/><path d="m42.667969 42.667969h42.664062c11.785157 0 21.335938 9.550781 21.335938 21.332031v341.332031c0 11.785157-9.550781 21.335938-21.335938 21.335938h-42.664062c-11.785157 0-21.335938-9.550781-21.335938-21.335938v-341.332031c0-11.78125 9.550781-21.332031 21.335938-21.332031zm0 0" fill="#f9dcc9"/><path d="m85.332031 64h85.335938c11.78125 0 21.332031 9.550781 21.332031 21.332031 0 11.785157-9.550781 21.335938-21.332031 21.335938h-85.335938c-11.78125 0-21.332031-9.550781-21.332031-21.335938 0-11.78125 9.550781-21.332031 21.332031-21.332031zm0 0" fill="#f4ba93"/><path d="m384 128h-85.332031v149.332031l21.332031-21.332031 21.332031 21.332031 21.335938-21.332031 21.332031 21.332031zm0 0" fill="#e8a073"/><path d="m64 0h128c11.78125 0 21.332031 9.550781 21.332031 21.332031v42.667969c0 11.78125-9.550781 21.332031-21.332031 21.332031h-128c-11.78125 0-21.332031-9.550781-21.332031-21.332031v-42.667969c0-11.78125 9.550781-21.332031 21.332031-21.332031zm0 0" fill="#f9dcc9"/><path d="m85.332031 0h42.667969c11.78125 0 21.332031 9.550781 21.332031 21.332031v42.667969c0 11.78125-9.550781 21.332031-21.332031 21.332031h-42.667969c-11.78125 0-21.332031-9.550781-21.332031-21.332031v-42.667969c0-11.78125 9.550781-21.332031 21.332031-21.332031zm0 0" fill="#fcede3"/><path d="m64 21.332031h128v42.667969h-128zm0 0" fill="#653430"/><path d="m256 106.667969h128v21.332031h-128zm0 0" fill="#3e190c"/><path d="m362.667969 106.667969h-85.335938v149.332031l21.335938-21.332031 21.332031 21.332031 21.332031-21.332031 21.335938 21.332031zm0 0" fill="#fdf6f1"/><g fill="#3e190c"><path d="m42.667969 128h42.664062v42.667969h-42.664062zm0 0"/><path d="m106.667969 128h42.664062v42.667969h-42.664062zm0 0"/><path d="m170.667969 128h42.664062v42.667969h-42.664062zm0 0"/><path d="m42.667969 192h42.664062v42.667969h-42.664062zm0 0"/><path d="m106.667969 192h42.664062v42.667969h-42.664062zm0 0"/><path d="m170.667969 192h42.664062v42.667969h-42.664062zm0 0"/></g><path d="m64 277.332031h298.667969c11.78125 0 21.332031 9.550781 21.332031 21.335938v64c0 11.78125-9.550781 21.332031-21.332031 21.332031h-298.667969c-11.78125 0-21.332031-9.550781-21.332031-21.332031v-64c0-11.785157 9.550781-21.335938 21.332031-21.335938zm0 0" fill="#e18850"/><path d="m64 277.332031h277.332031c11.785157 0 21.335938 9.550781 21.335938 21.335938v64c0 11.78125-9.550781 21.332031-21.335938 21.332031h-277.332031c-11.78125 0-21.332031-9.550781-21.332031-21.332031v-64c0-11.785157 9.550781-21.335938 21.332031-21.335938zm0 0" fill="#e8a073"/><path d="m298.667969 128h42.664062v21.332031h-42.664062zm0 0" fill="#93716e"/><path d="m298.667969 170.667969h42.664062v21.332031h-42.664062zm0 0" fill="#93716e"/><path d="m170.667969 21.332031h21.332031v42.667969h-21.332031zm0 0" fill="#3e190c"/><path d="m106.667969 277.332031h106.664062c11.785157 0 21.335938 9.550781 21.335938 21.335938v64c0 11.78125-9.550781 21.332031-21.335938 21.332031h-106.664062c-11.785157 0-21.335938-9.550781-21.335938-21.332031v-64c0-11.785157 9.550781-21.335938 21.335938-21.335938zm0 0" fill="#f4ba93"/><path d="m64 138.667969c0 5.890625-4.777344 10.664062-10.667969 10.664062s-10.664062-4.773437-10.664062-10.664062 4.773437-10.667969 10.664062-10.667969 10.667969 4.777344 10.667969 10.667969zm0 0" fill="#93716e"/><path d="m64 202.667969c0 5.890625-4.777344 10.664062-10.667969 10.664062s-10.664062-4.773437-10.664062-10.664062 4.773437-10.667969 10.664062-10.667969 10.667969 4.777344 10.667969 10.667969zm0 0" fill="#93716e"/><path d="m128 138.667969c0 5.890625-4.777344 10.664062-10.667969 10.664062s-10.664062-4.773437-10.664062-10.664062 4.773437-10.667969 10.664062-10.667969 10.667969 4.777344 10.667969 10.667969zm0 0" fill="#93716e"/><path d="m128 202.667969c0 5.890625-4.777344 10.664062-10.667969 10.664062s-10.664062-4.773437-10.664062-10.664062 4.773437-10.667969 10.664062-10.667969 10.667969 4.777344 10.667969 10.667969zm0 0" fill="#93716e"/><path d="m192 138.667969c0 5.890625-4.777344 10.664062-10.667969 10.664062s-10.664062-4.773437-10.664062-10.664062 4.773437-10.667969 10.664062-10.667969 10.667969 4.777344 10.667969 10.667969zm0 0" fill="#93716e"/><path d="m192 202.667969c0 5.890625-4.777344 10.664062-10.667969 10.664062s-10.664062-4.773437-10.664062-10.664062 4.773437-10.667969 10.664062-10.667969 10.667969 4.777344 10.667969 10.667969zm0 0" fill="#93716e"/></svg>