<svg height="469pt" viewBox="-42 0 469 469.33334" width="469pt" xmlns="http://www.w3.org/2000/svg"><path d="m277.5 448h-234.667969v-426.667969c0-11.78125 9.550781-21.332031 21.335938-21.332031h213.332031c11.78125 0 21.332031 9.550781 21.332031 21.332031v426.667969zm0 0" fill="#db7230"/><path d="m320.167969 448h-298.667969c-11.78125 0-21.332031-9.550781-21.332031-21.332031v-270.875c0-4.210938 1.246093-8.328125 3.582031-11.835938l39.082031-58.625h256l39.085938 58.625c2.335937 3.507813 3.582031 7.625 3.582031 11.835938v270.875c0 11.78125-9.550781 21.332031-21.332031 21.332031zm0 0" fill="#c35422"/><path d="m64.167969 85.332031h213.332031c11.78125 0 21.332031 9.550781 21.332031 21.335938v298.664062c0 11.785157-9.550781 21.335938-21.332031 21.335938h-213.332031c-11.785157 0-21.335938-9.550781-21.335938-21.335938v-298.664062c0-11.785157 9.550781-21.335938 21.335938-21.335938zm0 0" fill="#e18850"/><path d="m64.167969 0h213.332031c11.78125 0 21.332031 9.550781 21.332031 21.332031v21.335938c0 11.78125-9.550781 21.332031-21.332031 21.332031h-213.332031c-11.785157 0-21.335938-9.550781-21.335938-21.332031v-21.335938c0-11.78125 9.550781-21.332031 21.335938-21.332031zm0 0" fill="#e18850"/><path d="m96.167969 106.667969h149.332031c17.671875 0 32 14.324219 32 32 0 17.671875-14.328125 32-32 32h-149.332031c-17.675781 0-32-14.328125-32-32 0-17.675781 14.324219-32 32-32zm0 0" fill="#f4ba93"/><path d="m85.5 0h170.667969c11.78125 0 21.332031 9.550781 21.332031 21.332031 0 11.785157-9.550781 21.335938-21.332031 21.335938h-170.667969c-11.78125 0-21.332031-9.550781-21.332031-21.335938 0-11.78125 9.550781-21.332031 21.332031-21.332031zm0 0" fill="#f4ba93"/><path d="m222.613281 246.886719c-37.457031-37.457031-91.003906-44.640625-119.601562-16.042969-28.597657 28.597656-21.414063 82.144531 16.042969 119.601562 37.457031 37.457032 91.003906 44.640626 119.601562 16.042969 28.597656-28.597656 21.414062-82.144531-16.042969-119.601562zm0 0" fill="#953c1c"/><path d="m224.167969 266.664062c-10.199219-10.199218-23.246094-13.691406-29.136719-7.800781-5.894531 5.890625-2.402344 18.9375 7.800781 29.136719 10.199219 10.203125 23.246094 13.695312 29.136719 7.804688 5.894531-5.894532 2.402344-18.9375-7.800781-29.140626zm0 0" fill="#b77b65"/><path d="m192.167969 245.332031c0 5.890625-4.777344 10.667969-10.667969 10.667969s-10.667969-4.777344-10.667969-10.667969 4.777344-10.664062 10.667969-10.664062 10.667969 4.773437 10.667969 10.664062zm0 0" fill="#b77b65"/><path d="m224.167969 362.667969c-17.667969-.019531-31.980469-14.335938-32-32-.007813-5.890625-4.78125-10.660157-10.667969-10.667969-17.664062-.019531-31.980469-14.335938-32-32-.007812-5.886719-4.777344-10.660156-10.667969-10.667969-17.664062-.019531-31.980469-14.332031-32-32-.003906-5.894531 4.773438-10.675781 10.667969-10.675781s10.671875 4.78125 10.667969 10.675781c.007812 5.890625 4.777343 10.660157 10.664062 10.667969 17.667969.019531 31.980469 14.335938 32 32 .007813 5.886719 4.78125 10.660156 10.667969 10.667969 17.664062.019531 31.980469 14.332031 32 32 .007812 5.886719 4.777344 10.65625 10.667969 10.664062 5.894531-.003906 10.675781 4.773438 10.675781 10.667969s-4.78125 10.671875-10.675781 10.667969zm0 0" fill="#3e190c"/><g fill="#e8a073"><path d="m64.167969 277.332031c11.78125 0 21.332031 9.550781 21.332031 21.335938v64c0 11.78125-9.550781 21.332031-21.332031 21.332031-11.785157 0-21.335938-9.550781-21.335938-21.332031v-64c0-11.785157 9.550781-21.335938 21.335938-21.335938zm0 0"/><path d="m85.5 234.667969c0 11.78125-9.550781 21.332031-21.332031 21.332031-11.785157 0-21.335938-9.550781-21.335938-21.332031 0-11.785157 9.550781-21.335938 21.335938-21.335938 11.78125 0 21.332031 9.550781 21.332031 21.335938zm0 0"/><path d="m298.832031 405.332031c0 11.785157-9.550781 21.335938-21.332031 21.335938s-21.332031-9.550781-21.332031-21.335938c0-11.78125 9.550781-21.332031 21.332031-21.332031s21.332031 9.550781 21.332031 21.332031zm0 0"/></g><path d="m21.5 170.667969c11.78125 0 21.332031 9.550781 21.332031 21.332031v192c0 11.78125-9.550781 21.332031-21.332031 21.332031s-21.332031-9.550781-21.332031-21.332031v-192c0-11.78125 9.550781-21.332031 21.332031-21.332031zm0 0" fill="#b53f07"/><path d="m362.832031 170.667969v21.332031h-192v-21.332031l15.4375-30.875c3.613281-7.226563 11-11.792969 19.082031-11.792969h122.964844c8.078125 0 15.464844 4.566406 19.078125 11.792969zm0 0" fill="#3e190c"/><path d="m322.019531 469.332031h-110.015625c-11.023437 0-20.226562-8.390625-21.242187-19.367187l-19.929688-215.296875v-64h192v64l-19.566406 215.261719c-1 10.988281-10.214844 19.402343-21.246094 19.402343zm0 0" fill="#e8a073"/><path d="m279.265625 449.929688 17.453125-192c.542969-5.96875-1.449219-11.890626-5.492188-16.316407-4.042968-4.425781-9.761718-6.945312-15.753906-6.945312h-104.640625l19.929688 215.296875c1.015625 10.976562 10.21875 19.367187 21.242187 19.367187h46.015625c11.03125 0 20.246094-8.414062 21.246094-19.402343zm0 0" fill="#f9dcc9"/><path d="m170.832031 170.667969h192c11.785157 0 21.335938 9.550781 21.335938 21.332031v21.332031c0 11.785157-9.550781 21.335938-21.335938 21.335938h-192c-11.78125 0-21.332031-9.550781-21.332031-21.335938v-21.332031c0-11.78125 9.550781-21.332031 21.332031-21.332031zm0 0" fill="#653430"/><path d="m170.832031 170.667969h106.667969c11.78125 0 21.332031 9.550781 21.332031 21.332031v21.332031c0 11.785157-9.550781 21.335938-21.332031 21.335938h-106.667969c-11.78125 0-21.332031-9.550781-21.332031-21.335938v-21.332031c0-11.78125 9.550781-21.332031 21.332031-21.332031zm0 0" fill="#7c534f"/><path d="m213.5 170.667969c11.78125 0 21.332031 9.550781 21.332031 21.332031v21.332031c0 11.785157-9.550781 21.335938-21.332031 21.335938s-21.332031-9.550781-21.332031-21.335938v-21.332031c0-11.78125 9.550781-21.332031 21.332031-21.332031zm0 0" fill="#93716e"/><path d="m298.832031 149.332031c0-11.78125-9.550781-21.332031-21.332031-21.332031h-72.148438c-8.082031 0-15.46875 4.566406-19.082031 11.792969l-15.4375 30.875h106.667969c11.78125 0 21.332031-9.550781 21.332031-21.335938zm0 0" fill="#653430"/></svg>