<svg height="469pt" viewBox="-64 0 469 469.33334" width="469pt" xmlns="http://www.w3.org/2000/svg"><path d="m277.5 469.332031h-234.667969v-448c0-11.78125 9.550781-21.332031 21.335938-21.332031h213.332031c11.78125 0 21.332031 9.550781 21.332031 21.332031v448zm0 0" fill="#db7230"/><path d="m320.167969 469.332031h-298.667969c-11.78125 0-21.332031-9.550781-21.332031-21.332031v-292.207031c0-4.210938 1.246093-8.328125 3.582031-11.835938l39.082031-58.625h256l39.085938 58.625c2.335937 3.507813 3.582031 7.625 3.582031 11.835938v292.207031c0 11.78125-9.550781 21.332031-21.332031 21.332031zm0 0" fill="#c35422"/><path d="m64.167969 85.332031h213.332031c11.78125 0 21.332031 9.550781 21.332031 21.335938v320c0 11.78125-9.550781 21.332031-21.332031 21.332031h-213.332031c-11.785157 0-21.335938-9.550781-21.335938-21.332031v-320c0-11.785157 9.550781-21.335938 21.335938-21.335938zm0 0" fill="#e18850"/><path d="m64.167969 0h213.332031c11.78125 0 21.332031 9.550781 21.332031 21.332031v21.335938c0 11.78125-9.550781 21.332031-21.332031 21.332031h-213.332031c-11.785157 0-21.335938-9.550781-21.335938-21.332031v-21.335938c0-11.78125 9.550781-21.332031 21.335938-21.332031zm0 0" fill="#e18850"/><path d="m106.832031 106.667969h128c23.566407 0 42.667969 19.101562 42.667969 42.664062 0 23.566407-19.101562 42.667969-42.667969 42.667969h-128c-23.5625 0-42.664062-19.101562-42.664062-42.667969 0-23.5625 19.101562-42.664062 42.664062-42.664062zm0 0" fill="#f4ba93"/><path d="m85.5 0h170.667969c11.78125 0 21.332031 9.550781 21.332031 21.332031 0 11.785157-9.550781 21.335938-21.332031 21.335938h-170.667969c-11.78125 0-21.332031-9.550781-21.332031-21.335938 0-11.78125 9.550781-21.332031 21.332031-21.332031zm0 0" fill="#f4ba93"/><path d="m222.613281 246.886719c-37.457031-37.457031-91.003906-44.640625-119.601562-16.042969-28.597657 28.597656-21.414063 82.144531 16.042969 119.601562 37.457031 37.457032 91.003906 44.640626 119.601562 16.042969 28.597656-28.597656 21.414062-82.144531-16.042969-119.601562zm0 0" fill="#953c1c"/><path d="m224.167969 266.664062c-10.199219-10.199218-23.246094-13.691406-29.136719-7.800781-5.894531 5.890625-2.402344 18.9375 7.800781 29.136719 10.199219 10.203125 23.246094 13.695312 29.136719 7.804688 5.894531-5.894532 2.402344-18.9375-7.800781-29.140626zm0 0" fill="#b77b65"/><path d="m192.167969 245.332031c0 5.890625-4.777344 10.667969-10.667969 10.667969s-10.667969-4.777344-10.667969-10.667969 4.777344-10.664062 10.667969-10.664062 10.667969 4.773437 10.667969 10.664062zm0 0" fill="#b77b65"/><path d="m224.167969 362.667969c-17.667969-.019531-31.980469-14.335938-32-32-.007813-5.890625-4.78125-10.660157-10.667969-10.667969-17.664062-.019531-31.980469-14.335938-32-32-.007812-5.886719-4.777344-10.660156-10.667969-10.667969-17.664062-.019531-31.980469-14.332031-32-32 0-5.890625 4.777344-10.664062 10.667969-10.664062s10.667969 4.773437 10.667969 10.664062c.007812 5.890625 4.777343 10.660157 10.664062 10.667969 17.667969.019531 31.980469 14.335938 32 32 .007813 5.886719 4.78125 10.660156 10.667969 10.667969 17.664062.019531 31.980469 14.332031 32 32 .007812 5.886719 4.777344 10.65625 10.667969 10.664062 5.894531-.003906 10.675781 4.773438 10.675781 10.667969s-4.78125 10.671875-10.675781 10.667969zm0 0" fill="#3e190c"/><g fill="#e8a073"><path d="m64.167969 298.667969c11.78125 0 21.332031 9.550781 21.332031 21.332031v64c0 11.78125-9.550781 21.332031-21.332031 21.332031-11.785157 0-21.335938-9.550781-21.335938-21.332031v-64c0-11.78125 9.550781-21.332031 21.335938-21.332031zm0 0"/><path d="m85.5 256c0 11.78125-9.550781 21.332031-21.332031 21.332031-11.785157 0-21.335938-9.550781-21.335938-21.332031s9.550781-21.332031 21.335938-21.332031c11.78125 0 21.332031 9.550781 21.332031 21.332031zm0 0"/><path d="m298.832031 426.667969c0 11.78125-9.550781 21.332031-21.332031 21.332031s-21.332031-9.550781-21.332031-21.332031c0-11.785157 9.550781-21.335938 21.332031-21.335938s21.332031 9.550781 21.332031 21.335938zm0 0"/></g><path d="m21.5 192c11.78125 0 21.332031 9.550781 21.332031 21.332031v192c0 11.785157-9.550781 21.335938-21.332031 21.335938s-21.332031-9.550781-21.332031-21.335938v-192c0-11.78125 9.550781-21.332031 21.332031-21.332031zm0 0" fill="#b53f07"/></svg>