<svg height="469pt" viewBox="-42 0 469 469.34352" width="469pt" xmlns="http://www.w3.org/2000/svg"><path d="m362.839844 426.671875s21.332031-64 21.332031-192-21.332031-192-21.332031-192c11.78125 0 21.332031-9.550781 21.332031-21.332031 0-11.785156-9.550781-21.33593775-21.332031-21.33593775-11.785156 0-21.335938 9.55078175-21.335938 21.33593775 0 0-42.664062-21.33593775-149.332031-21.33593775s-149.332031 21.33593775-149.332031 21.33593775c0-11.785156-9.550782-21.33593775-21.335938-21.33593775-11.78125 0-21.332031 9.55078175-21.332031 21.33593775 0 11.78125 9.550781 21.332031 21.332031 21.332031 0 0-21.332031 64-21.332031 192s21.332031 192 21.332031 192c-11.78125 0-21.332031 9.550781-21.332031 21.332031 0 11.785156 9.550781 21.335938 21.332031 21.335938 11.785156 0 21.335938-9.550782 21.335938-21.335938 0 0 42.664062 21.335938 149.332031 21.335938s149.332031-21.335938 149.332031-21.335938c0 11.785156 9.550782 21.335938 21.335938 21.335938 11.78125 0 21.332031-9.550782 21.332031-21.335938 0-11.78125-9.550781-21.332031-21.332031-21.332031zm0 0" fill="#e18850"/><path d="m298.839844 234.671875c0-106.425781-10.808594-180.195313-17.027344-213.835937-1.6875-9.214844-9.253906-16.210938-18.570312-17.171876-23.605469-2.53125-47.332032-3.7539058-71.070313-3.66015575-106.667969 0-149.332031 21.33593775-149.332031 21.33593775 0-11.785156-9.550782-21.33593775-21.335938-21.33593775-11.78125 0-21.332031 9.55078175-21.332031 21.33593775 0 11.78125 9.550781 21.332031 21.332031 21.332031 0 0-21.332031 64-21.332031 192s21.332031 192 21.332031 192c-11.78125 0-21.332031 9.550781-21.332031 21.332031 0 11.785156 9.550781 21.335938 21.332031 21.335938 11.785156 0 21.335938-9.550782 21.335938-21.335938 0 0 42.664062 21.335938 149.332031 21.335938 23.738281.09375 47.464844-1.128906 71.070313-3.660156 9.316406-.960938 16.882812-7.957032 18.570312-17.171876 6.21875-33.640624 17.027344-107.410156 17.027344-213.835937zm0 0" fill="#e8a073"/><path d="m243.949219 182.890625c-37.457031-37.457031-91.003907-44.636719-119.601563-16.042969-28.59375 28.597656-21.414062 82.144532 16.042969 119.601563 37.460937 37.460937 91.007813 44.640625 119.605469 16.046875 28.59375-28.597656 21.414062-82.144532-16.046875-119.605469zm0 0" fill="#953c1c"/><path d="m245.507812 202.667969c-10.203124-10.199219-23.246093-13.691407-29.140624-7.800781-5.890626 5.894531-2.398438 18.9375 7.800781 29.140624 10.203125 10.199219 23.25 13.691407 29.140625 7.800782s2.398437-18.9375-7.800782-29.140625zm0 0" fill="#b77b65"/><path d="m213.503906 181.339844c0 5.890625-4.773437 10.664062-10.664062 10.664062s-10.667969-4.773437-10.667969-10.664062 4.777344-10.667969 10.667969-10.667969 10.664062 4.777344 10.664062 10.667969zm0 0" fill="#b77b65"/><path d="m245.503906 298.671875c-17.664062-.019531-31.980468-14.335937-32-32-.007812-5.886719-4.777344-10.660156-10.664062-10.667969-17.667969-.019531-31.980469-14.332031-32-32-.007813-5.886718-4.78125-10.65625-10.667969-10.664062-17.664063-.019532-31.980469-14.335938-32-32 0-5.890625 4.777344-10.667969 10.667969-10.667969s10.664062 4.777344 10.664062 10.667969c.007813 5.886718 4.78125 10.65625 10.667969 10.664062 17.664063.019532 31.980469 14.335938 32 32 .007813 5.890625 4.777344 10.660156 10.667969 10.667969 17.664062.019531 31.980468 14.335937 32 32 .007812 5.886719 4.777344 10.660156 10.664062 10.667969 5.894532-.007813 10.679688 4.769531 10.679688 10.664062 0 5.894532-4.785156 10.671875-10.679688 10.667969zm0 0" fill="#3e190c"/><path d="m83.203125 42.671875c-11.285156-.003906-20.996094 7.972656-23.1875 19.039063-11.230469 56.972656-16.980469 114.890624-17.175781 172.960937.195312 58.070313 5.945312 115.988281 17.175781 172.960937 2.191406 11.066407 11.902344 19.042969 23.1875 19.039063 13.054687 0 23.636719-10.582031 23.636719-23.636719v-336.726562c0-13.054688-10.582032-23.636719-23.636719-23.636719zm0 0" fill="#f4ba93"/></svg>