<svg height="469pt" viewBox="-42 0 469 469.33334" width="469pt" xmlns="http://www.w3.org/2000/svg"><path d="m277.5 42.667969v85.332031h-234.667969v-85.332031l15.4375-30.875c3.613281-7.226563 11-11.792969 19.082031-11.792969h165.628907c8.082031 0 15.46875 4.566406 19.082031 11.792969zm0 0" fill="#3e190c"/><path d="m237.488281 448h-154.644531c-10.691406 0-19.734375-7.914062-21.144531-18.515625l-40.199219-301.484375v-85.332031h277.332031v85.332031l-40.195312 301.484375c-1.414063 10.601563-10.457031 18.515625-21.148438 18.515625zm0 0" fill="#e8a073"/><path d="m173.300781 429.484375 36.980469-277.332031c.8125-6.09375-1.046875-12.246094-5.097656-16.871094-4.050782-4.628906-9.902344-7.28125-16.050782-7.28125h-167.632812l40.199219 301.484375c1.410156 10.601563 10.453125 18.515625 21.144531 18.515625h69.3125c10.691406 0 19.734375-7.914062 21.144531-18.515625zm0 0" fill="#f9dcc9"/><path d="m21.5 42.667969h277.332031c11.785157 0 21.335938 9.550781 21.335938 21.332031v42.667969c0 11.78125-9.550781 21.332031-21.335938 21.332031h-277.332031c-11.78125 0-21.332031-9.550781-21.332031-21.332031v-42.667969c0-11.78125 9.550781-21.332031 21.332031-21.332031zm0 0" fill="#653430"/><path d="m21.5 42.667969h192c11.78125 0 21.332031 9.550781 21.332031 21.332031v42.667969c0 11.78125-9.550781 21.332031-21.332031 21.332031h-192c-11.78125 0-21.332031-9.550781-21.332031-21.332031v-42.667969c0-11.78125 9.550781-21.332031 21.332031-21.332031zm0 0" fill="#7c534f"/><path d="m64.167969 42.667969c11.78125 0 21.332031 9.550781 21.332031 21.332031v42.667969c0 11.78125-9.550781 21.332031-21.332031 21.332031-11.785157 0-21.335938-9.550781-21.335938-21.332031v-42.667969c0-11.78125 9.550781-21.332031 21.335938-21.332031zm0 0" fill="#93716e"/><path d="m58.269531 11.792969-15.4375 30.875h149.335938c11.78125 0 21.332031-9.550781 21.332031-21.335938 0-11.78125-9.550781-21.332031-21.332031-21.332031h-114.816407c-8.082031 0-15.46875 4.566406-19.082031 11.792969zm0 0" fill="#653430"/><path d="m21.5 192 21.332031 149.332031h234.667969l21.332031-149.332031zm0 0" fill="#aa644a"/><path d="m21.5 192 21.332031 149.332031h128l21.335938-149.332031zm0 0" fill="#b77b65"/><path d="m128.167969 405.332031h213.332031c11.78125 0 21.332031 9.550781 21.332031 21.335938 0 23.5625-19.101562 42.664062-42.664062 42.664062h-170.667969c-23.5625 0-42.667969-19.101562-42.667969-42.664062 0-11.785157 9.550781-21.335938 21.335938-21.335938zm0 0" fill="#e18850"/><path d="m192.167969 192h85.332031c47.128906 0 85.332031 38.203125 85.332031 85.332031 0 11.785157-9.550781 21.335938-21.332031 21.335938h-213.332031c-11.785157 0-21.335938-9.550781-21.335938-21.335938 0-47.128906 38.207031-85.332031 85.335938-85.332031zm0 0" fill="#e18850"/><path d="m117.5 341.332031h234.667969c17.671875 0 32 14.328125 32 32 0 17.675781-14.328125 32-32 32h-234.667969c-17.671875 0-32-14.324219-32-32 0-17.671875 14.328125-32 32-32zm0 0" fill="#3e190c"/><path d="m117.5 341.332031h149.332031c17.675781 0 32 14.328125 32 32 0 17.675781-14.324219 32-32 32h-149.332031c-17.671875 0-32-14.324219-32-32 0-17.671875 14.328125-32 32-32zm0 0" fill="#653430"/><path d="m128.167969 341.332031h21.332031c11.78125 0 21.332031 9.550781 21.332031 21.335938 0 11.78125-9.550781 21.332031-21.332031 21.332031h-21.332031c-11.785157 0-21.335938-9.550781-21.335938-21.332031 0-11.785157 9.550781-21.335938 21.335938-21.335938zm0 0" fill="#7c534f"/><path d="m106.832031 298.667969s-21.332031 0-21.332031 21.332031 21.332031 21.332031 21.332031 21.332031c21.335938 0 42.667969 21.335938 64 21.335938 21.335938 0 42.667969-21.335938 64-21.335938 21.335938 0 42.667969 21.335938 64 21.335938 21.335938 0 42.667969-21.335938 64-21.335938 21.335938 0 21.335938-21.332031 21.335938-21.332031s0-21.332031-21.335938-21.332031zm0 0" fill="#6ccd6c"/><path d="m149.5 234.667969h85.332031c11.785157 0 21.335938 9.550781 21.335938 21.332031s-9.550781 21.332031-21.335938 21.332031h-85.332031c-11.78125 0-21.332031-9.550781-21.332031-21.332031s9.550781-21.332031 21.332031-21.332031zm0 0" fill="#e8a073"/><path d="m170.832031 234.667969h42.667969c11.78125 0 21.332031 9.550781 21.332031 21.332031s-9.550781 21.332031-21.332031 21.332031h-42.667969c-11.78125 0-21.332031-9.550781-21.332031-21.332031s9.550781-21.332031 21.332031-21.332031zm0 0" fill="#f4ba93"/><path d="m149.5 426.667969h85.332031c11.785157 0 21.335938 9.550781 21.335938 21.332031s-9.550781 21.332031-21.335938 21.332031h-85.332031c-11.78125 0-21.332031-9.550781-21.332031-21.332031s9.550781-21.332031 21.332031-21.332031zm0 0" fill="#e8a073"/><path d="m170.832031 426.667969h21.335938c11.78125 0 21.332031 9.550781 21.332031 21.332031s-9.550781 21.332031-21.332031 21.332031h-21.335938c-11.78125 0-21.332031-9.550781-21.332031-21.332031s9.550781-21.332031 21.332031-21.332031zm0 0" fill="#f4ba93"/><path d="m234.832031 298.667969h-128c-11.785156-.007813-21.347656 9.542969-21.347656 21.332031s9.5625 21.339844 21.347656 21.332031c21.335938 0 42.667969 21.335938 64 21.335938 21.335938 0 42.667969-21.335938 64-21.335938 11.777344-.007812 21.320313-9.554687 21.320313-21.332031s-9.542969-21.324219-21.320313-21.332031zm0 0" fill="#86db74"/><g fill="#f9dcc9"><path d="m320.167969 224c0-5.890625-9.550781-10.667969-21.335938-10.667969-11.78125 0-21.332031 4.777344-21.332031 10.667969s9.550781 10.667969 21.332031 10.667969c11.785157 0 21.335938-4.777344 21.335938-10.667969zm0 0"/><path d="m256.167969 202.667969c0-5.890625-9.550781-10.667969-21.335938-10.667969-11.78125 0-21.332031 4.777344-21.332031 10.667969s9.550781 10.664062 21.332031 10.664062c11.785157 0 21.335938-4.773437 21.335938-10.664062zm0 0"/><path d="m192.167969 224c0-5.890625-9.550781-10.667969-21.335938-10.667969-11.78125 0-21.332031 4.777344-21.332031 10.667969s9.550781 10.667969 21.332031 10.667969c11.785157 0 21.335938-4.777344 21.335938-10.667969zm0 0"/></g><path d="m234.832031 373.332031c0 5.890625-4.773437 10.667969-10.664062 10.667969s-10.667969-4.777344-10.667969-10.667969 4.777344-10.664062 10.667969-10.664062 10.664062 4.773437 10.664062 10.664062zm0 0" fill="#7c534f"/><path d="m277.5 394.667969c0 5.890625-4.777344 10.664062-10.667969 10.664062s-10.664062-4.773437-10.664062-10.664062 4.773437-10.667969 10.664062-10.667969 10.667969 4.777344 10.667969 10.667969zm0 0" fill="#7c534f"/><path d="m341.5 373.332031c0 5.890625-4.777344 10.667969-10.667969 10.667969s-10.664062-4.777344-10.664062-10.667969 4.773437-10.664062 10.664062-10.664062 10.667969 4.773437 10.667969 10.664062zm0 0" fill="#653430"/><path d="m362.832031 394.667969c0 5.890625-4.773437 10.664062-10.664062 10.664062s-10.667969-4.773437-10.667969-10.664062 4.777344-10.667969 10.667969-10.667969 10.664062 4.777344 10.664062 10.667969zm0 0" fill="#653430"/><path d="m192.167969 394.667969c0 5.890625-4.777344 10.664062-10.667969 10.664062s-10.667969-4.773437-10.667969-10.664062 4.777344-10.667969 10.667969-10.667969 10.667969 4.777344 10.667969 10.667969zm0 0" fill="#7c534f"/><path d="m149.5 330.667969c0-5.890625-9.550781-10.667969-21.332031-10.667969-11.785157 0-21.335938 4.777344-21.335938 10.667969s9.550781 10.664062 21.335938 10.664062c11.78125 0 21.332031-4.773437 21.332031-10.664062zm0 0" fill="#b9eaaa"/><path d="m234.832031 309.332031c0-5.890625-9.550781-10.664062-21.332031-10.664062s-21.332031 4.773437-21.332031 10.664062 9.550781 10.667969 21.332031 10.667969 21.332031-4.777344 21.332031-10.667969zm0 0" fill="#b9eaaa"/><path d="m362.832031 309.332031c0-5.890625-9.550781-10.664062-21.332031-10.664062s-21.332031 4.773437-21.332031 10.664062 9.550781 10.667969 21.332031 10.667969 21.332031-4.777344 21.332031-10.667969zm0 0" fill="#86db74"/></svg>