<svg height="469pt" viewBox="-42 0 469 469.33334" width="469pt" xmlns="http://www.w3.org/2000/svg"><path d="m277.5 42.667969v85.332031h-234.667969v-85.332031l15.4375-30.875c3.613281-7.226563 11-11.792969 19.082031-11.792969h165.628907c8.082031 0 15.46875 4.566406 19.082031 11.792969zm0 0" fill="#3e190c"/><path d="m237.488281 448h-154.644531c-10.691406 0-19.734375-7.914062-21.144531-18.515625l-40.199219-301.484375v-85.332031h277.332031v85.332031l-40.195312 301.484375c-1.414063 10.601563-10.457031 18.515625-21.148438 18.515625zm0 0" fill="#e8a073"/><path d="m173.300781 429.484375 36.980469-277.332031c.8125-6.09375-1.046875-12.246094-5.097656-16.871094-4.050782-4.628906-9.902344-7.28125-16.050782-7.28125h-167.632812l40.199219 301.484375c1.410156 10.601563 10.453125 18.515625 21.144531 18.515625h69.3125c10.691406 0 19.734375-7.914062 21.144531-18.515625zm0 0" fill="#f9dcc9"/><path d="m21.5 42.667969h277.332031c11.785157 0 21.335938 9.550781 21.335938 21.332031v42.667969c0 11.78125-9.550781 21.332031-21.335938 21.332031h-277.332031c-11.78125 0-21.332031-9.550781-21.332031-21.332031v-42.667969c0-11.78125 9.550781-21.332031 21.332031-21.332031zm0 0" fill="#653430"/><path d="m21.5 42.667969h192c11.78125 0 21.332031 9.550781 21.332031 21.332031v42.667969c0 11.78125-9.550781 21.332031-21.332031 21.332031h-192c-11.78125 0-21.332031-9.550781-21.332031-21.332031v-42.667969c0-11.78125 9.550781-21.332031 21.332031-21.332031zm0 0" fill="#7c534f"/><path d="m64.167969 42.667969c11.78125 0 21.332031 9.550781 21.332031 21.332031v42.667969c0 11.78125-9.550781 21.332031-21.332031 21.332031-11.785157 0-21.335938-9.550781-21.335938-21.332031v-42.667969c0-11.78125 9.550781-21.332031 21.335938-21.332031zm0 0" fill="#93716e"/><path d="m58.269531 11.792969-15.4375 30.875h149.335938c11.78125 0 21.332031-9.550781 21.332031-21.335938 0-11.78125-9.550781-21.332031-21.332031-21.332031h-114.816407c-8.082031 0-15.46875 4.566406-19.082031 11.792969zm0 0" fill="#653430"/><path d="m21.5 192 21.332031 149.332031h234.667969l21.332031-149.332031zm0 0" fill="#aa644a"/><path d="m21.5 192 21.332031 149.332031h128l21.335938-149.332031zm0 0" fill="#b77b65"/><path d="m362.832031 298.667969c0 70.691406-57.304687 128-128 128-70.691406 0-128-57.308594-128-128 0-70.695313 57.308594-128 128-128 70.695313 0 128 57.304687 128 128zm0 0" fill="#3e190c"/><path d="m341.5 298.667969c-5.660156.003906-11.085938-2.242188-15.082031-6.25l-21.335938-21.335938c-8.328125-8.328125-8.328125-21.835937 0-30.164062 8.332031-8.332031 21.835938-8.332031 30.167969 0l21.332031 21.332031c6.101563 6.101562 7.925781 15.277344 4.625 23.246094-3.300781 7.972656-11.078125 13.167968-19.707031 13.171875zm0 0" fill="#250700"/><path d="m259.332031 210.167969c-29.066406-29.066407-82.703125-22.558594-119.796875 14.535156s-43.601562 90.726563-14.535156 119.796875c29.070312 29.066406 82.703125 22.558594 119.796875-14.535156s43.601563-90.730469 14.535156-119.796875zm0 0" fill="#653430"/><path d="m256.167969 170.667969h42.664062c11.785157 0 21.335938 9.550781 21.335938 21.332031s-9.550781 21.332031-21.335938 21.332031h-42.664062c-11.785157 0-21.335938-9.550781-21.335938-21.332031s9.550781-21.332031 21.335938-21.332031zm0 0" fill="#250700"/><path d="m206.6875 220.148438c-10.902344-10.902344-31.015625-8.460938-44.925781 5.449218-13.910157 13.910156-16.347657 34.023438-5.449219 44.921875 10.902344 10.902344 31.015625 8.460938 44.925781-5.449219 13.910157-13.910156 16.347657-34.023437 5.449219-44.921874zm0 0" fill="#7c534f"/><g fill="#3e190c"><path d="m213.5 192v42.667969c0 11.78125-9.550781 21.332031-21.332031 21.332031-11.785157 0-21.335938-9.550781-21.335938-21.332031v-42.667969c0-11.78125 9.550781-21.332031 21.335938-21.332031 11.78125 0 21.332031 9.550781 21.332031 21.332031zm0 0"/><path d="m149.5 298.667969c-5.660156.003906-11.085938-2.242188-15.082031-6.25l-21.335938-21.335938c-8.328125-8.328125-8.328125-21.835937 0-30.164062 8.332031-8.332031 21.835938-8.332031 30.167969 0l21.332031 21.332031c6.101563 6.101562 7.925781 15.277344 4.625 23.246094-3.300781 7.972656-11.078125 13.167968-19.707031 13.171875zm0 0"/><path d="m277.5 256c.007812 5.660156-2.242188 11.085938-6.25 15.082031l-21.332031 21.335938c-8.332031 8.320312-21.832031 8.316406-30.160157-.007813-8.328124-8.328125-8.332031-21.828125-.007812-30.160156l21.332031-21.332031c6.101563-6.101563 15.277344-7.925781 23.25-4.625 7.96875 3.300781 13.167969 11.078125 13.167969 19.707031zm0 0"/></g><path d="m341.5 277.332031c-21.332031 0-42.667969 21.335938-42.667969 21.335938s-21.332031-21.335938-64-21.335938c-42.664062 0-64 21.335938-64 21.335938s-21.332031-21.335938-42.664062-21.335938c-21.335938 0-42.667969 21.335938-42.667969 21.335938l42.667969 149.332031c0 11.78125 14.324219 21.332031 32 21.332031 17.671875 0 32-9.550781 32-21.332031 0 11.78125 19.101562 21.332031 42.664062 21.332031 23.566407 0 42.667969-9.550781 42.667969-21.332031 0 11.78125 14.328125 21.332031 32 21.332031s32-9.550781 32-21.332031l42.667969-149.332031s-21.335938-21.335938-42.667969-21.335938zm0 0" fill="#b80900"/><path d="m234.832031 277.332031c-42.664062 0-64 21.335938-64 21.335938l21.335938 149.332031c0 11.78125 19.101562 21.332031 42.664062 21.332031 23.566407 0 42.667969-9.550781 42.667969-21.332031l21.332031-149.332031s-21.332031-21.335938-64-21.335938zm0 0" fill="#e92c24"/></svg>