<svg height="469pt" viewBox="0 -42 469.33334 469" width="469pt" xmlns="http://www.w3.org/2000/svg"><path d="m106.667969 341.5h170.664062c11.785157 0 21.335938 9.550781 21.335938 21.332031 0 11.785157-9.550781 21.335938-21.335938 21.335938h-170.664062c-11.785157 0-21.335938-9.550781-21.335938-21.335938 0-11.78125 9.550781-21.332031 21.335938-21.332031zm0 0" fill="#db7230"/><path d="m277.332031 42.832031v256h85.335938c58.910156 0 106.664062-47.753906 106.664062-106.664062v-42.667969c0-58.910156-47.753906-106.667969-106.664062-106.667969zm85.335938 192h-21.335938v-128h21.335938c23.5625 0 42.664062 19.105469 42.664062 42.667969v42.667969c0 23.5625-19.101562 42.664062-42.664062 42.664062zm0 0" fill="#e18850"/><path d="m405.332031 256.167969c0 11.78125-9.550781 21.332031-21.332031 21.332031s-21.332031-9.550781-21.332031-21.332031c0-11.785157 9.550781-21.335938 21.332031-21.335938s21.332031 9.550781 21.332031 21.335938zm0 0" fill="#c35422"/><path d="m426.667969 213.5c-11.78125 0-21.335938-9.550781-21.335938-21.332031v-42.667969c-.023437-23.554688-19.109375-42.644531-42.664062-42.667969-11.777344-.007812-21.320313-9.554687-21.320313-21.332031s9.542969-21.324219 21.320313-21.332031c47.105469.050781 85.277343 38.226562 85.332031 85.332031v42.667969c0 11.78125-9.550781 21.332031-21.332031 21.332031zm0 0" fill="#c35422"/><path d="m21.332031.167969h341.335938c11.78125 0 21.332031 9.550781 21.332031 21.332031v256c0 47.128906-38.203125 85.332031-85.332031 85.332031h-213.335938c-47.128906 0-85.332031-38.203125-85.332031-85.332031v-256c0-11.78125 9.550781-21.332031 21.332031-21.332031zm0 0" fill="#e8a073"/><path d="m298.667969 277.5v-256c0-11.78125-9.550781-21.332031-21.335938-21.332031h-256c-11.78125 0-21.332031 9.550781-21.332031 21.332031v256c0 47.128906 38.203125 85.332031 85.332031 85.332031h128c47.128907 0 85.335938-38.203125 85.335938-85.332031zm0 0" fill="#f4ba93"/><path d="m21.332031 149.5h341.335938v128c0 35.347656-28.65625 64-64 64h-213.335938c-35.34375 0-64-28.652344-64-64zm0 0" fill="#250700"/><path d="m298.667969 149.5h-277.335938v128c0 35.347656 28.65625 64 64 64h183.90625c18.628907-16.054688 29.367188-39.40625 29.429688-64zm0 0" fill="#3e190c"/><path d="m21.332031 149.5h341.335938v64h-341.335938zm0 0" fill="#953c1c"/><path d="m298.667969 149.5h64v64h-64zm0 0" fill="#6e2200"/><g fill="#a05034"><path d="m170.667969 160.167969c0 5.890625-4.777344 10.664062-10.667969 10.664062s-10.667969-4.773437-10.667969-10.664062 4.777344-10.667969 10.667969-10.667969 10.667969 4.777344 10.667969 10.667969zm0 0"/><path d="m170.667969 202.832031c0 5.890625-4.777344 10.667969-10.667969 10.667969s-10.667969-4.777344-10.667969-10.667969 4.777344-10.664062 10.667969-10.664062 10.667969 4.773437 10.667969 10.664062zm0 0"/><path d="m128 181.5c0 5.890625-4.777344 10.667969-10.667969 10.667969s-10.664062-4.777344-10.664062-10.667969 4.773437-10.667969 10.664062-10.667969 10.667969 4.777344 10.667969 10.667969zm0 0"/><path d="m256 160.167969c0 5.890625-4.777344 10.664062-10.667969 10.664062s-10.664062-4.773437-10.664062-10.664062 4.773437-10.667969 10.664062-10.667969 10.667969 4.777344 10.667969 10.667969zm0 0"/><path d="m256 202.832031c0 5.890625-4.777344 10.667969-10.667969 10.667969s-10.664062-4.777344-10.664062-10.667969 4.773437-10.664062 10.664062-10.664062 10.667969 4.773437 10.667969 10.664062zm0 0"/><path d="m213.332031 181.5c0 5.890625-4.773437 10.667969-10.664062 10.667969s-10.667969-4.777344-10.667969-10.667969 4.777344-10.667969 10.667969-10.667969 10.664062 4.777344 10.664062 10.667969zm0 0"/><path d="m298.667969 181.5c0 5.890625-4.777344 10.667969-10.667969 10.667969s-10.667969-4.777344-10.667969-10.667969 4.777344-10.667969 10.667969-10.667969 10.667969 4.777344 10.667969 10.667969zm0 0"/></g><path d="m341.332031 160.167969c0 5.890625-4.773437 10.664062-10.664062 10.664062s-10.667969-4.773437-10.667969-10.664062 4.777344-10.667969 10.667969-10.667969 10.664062 4.777344 10.664062 10.667969zm0 0" fill="#953c1c"/><path d="m341.332031 202.832031c0 5.890625-4.773437 10.667969-10.664062 10.667969s-10.667969-4.777344-10.667969-10.667969 4.777344-10.664062 10.667969-10.664062 10.664062 4.773437 10.664062 10.664062zm0 0" fill="#953c1c"/><path d="m64 234.832031c11.78125 0 21.332031 9.550781 21.332031 21.335938v21.332031c0 11.78125-9.550781 21.332031-21.332031 21.332031s-21.332031-9.550781-21.332031-21.332031v-21.332031c0-11.785157 9.550781-21.335938 21.332031-21.335938zm0 0" fill="#b77b65"/><path d="m64 42.832031c11.78125 0 21.332031 9.550781 21.332031 21.335938 0 11.78125-9.550781 21.332031-21.332031 21.332031s-21.332031-9.550781-21.332031-21.332031c0-11.785157 9.550781-21.335938 21.332031-21.335938zm0 0" fill="#fdf6f1"/><path d="m64 106.832031c11.78125 0 21.332031 9.550781 21.332031 21.335938v64c0 11.78125-9.550781 21.332031-21.332031 21.332031s-21.332031-9.550781-21.332031-21.332031v-64c0-11.785157 9.550781-21.335938 21.332031-21.335938zm0 0" fill="#fdf6f1"/></svg>