<svg height="469pt" viewBox="-43 0 469 469.33017" width="469pt" xmlns="http://www.w3.org/2000/svg"><path d="m277.5 42.667969v85.332031h-234.667969v-85.332031l15.4375-30.875c3.613281-7.226563 11-11.792969 19.082031-11.792969h165.628907c8.082031 0 15.46875 4.566406 19.082031 11.792969zm0 0" fill="#3e190c"/><path d="m237.488281 448h-154.644531c-10.691406 0-19.734375-7.914062-21.148438-18.515625l-40.195312-301.484375v-85.332031h277.332031v85.332031l-40.199219 301.484375c-1.414062 10.601563-10.453124 18.515625-21.144531 18.515625zm0 0" fill="#e8a073"/><path d="m173.300781 429.484375 36.976563-277.332031c.8125-6.09375-1.042969-12.246094-5.09375-16.871094-4.050782-4.628906-9.902344-7.28125-16.050782-7.28125h-167.632812l40.195312 301.484375c1.414063 10.601563 10.453126 18.515625 21.148438 18.515625h69.3125c10.691406 0 19.730469-7.914062 21.144531-18.515625zm0 0" fill="#f9dcc9"/><path d="m21.5 42.667969h277.332031c11.78125 0 21.332031 9.550781 21.332031 21.332031v42.667969c0 11.78125-9.550781 21.332031-21.332031 21.332031h-277.332031c-11.785156 0-21.335938-9.550781-21.335938-21.332031v-42.667969c0-11.78125 9.550782-21.332031 21.335938-21.332031zm0 0" fill="#653430"/><path d="m21.5 42.667969h192c11.78125 0 21.332031 9.550781 21.332031 21.332031v42.667969c0 11.78125-9.550781 21.332031-21.332031 21.332031h-192c-11.785156 0-21.335938-9.550781-21.335938-21.332031v-42.667969c0-11.78125 9.550782-21.332031 21.335938-21.332031zm0 0" fill="#7c534f"/><path d="m64.164062 42.667969c11.78125 0 21.335938 9.550781 21.335938 21.332031v42.667969c0 11.78125-9.554688 21.332031-21.335938 21.332031s-21.332031-9.550781-21.332031-21.332031v-42.667969c0-11.78125 9.550781-21.332031 21.332031-21.332031zm0 0" fill="#93716e"/><path d="m58.269531 11.792969-15.4375 30.875h149.332031c11.78125 0 21.335938-9.550781 21.335938-21.335938 0-11.78125-9.554688-21.332031-21.335938-21.332031h-114.8125c-8.082031 0-15.46875 4.566406-19.082031 11.792969zm0 0" fill="#653430"/><path d="m21.5 192 21.332031 149.332031h234.667969l21.332031-149.332031zm0 0" fill="#aa644a"/><path d="m21.5 192 21.332031 149.332031h128l21.332031-149.332031zm0 0" fill="#b77b65"/><path d="m320.164062 234.667969v-64c0-11.785157-9.550781-21.335938-21.332031-21.335938h-21.332031c-11.785156 0-21.335938 9.550781-21.335938 21.335938v21.332031h-21.332031c0-11.78125-9.550781-21.332031-21.332031-21.332031h-21.335938c-11.78125 0-21.332031 9.550781-21.332031 21.332031v42.667969h-21.332031c-11.785156 0-21.335938 9.550781-21.335938 21.332031v106.667969c0 11.78125 9.550782 21.332031 21.335938 21.332031h192c11.78125 0 21.332031-9.550781 21.332031-21.332031v-106.667969c0-11.78125-9.550781-21.332031-21.332031-21.332031zm0 0" fill="#c35422"/><path d="m213.5 192c11.78125 0 21.332031 9.550781 21.332031 21.332031v149.335938c0 11.78125-9.550781 21.332031-21.332031 21.332031-11.785156 0-21.335938-9.550781-21.335938-21.332031v-149.335938c0-11.78125 9.550782-21.332031 21.335938-21.332031zm0 0" fill="#953c1c"/><path d="m170.832031 234.667969h21.332031c11.78125 0 21.335938 9.550781 21.335938 21.332031v106.667969c0 11.78125-9.554688 21.332031-21.335938 21.332031h-21.332031c-11.78125 0-21.332031-9.550781-21.332031-21.332031v-106.667969c0-11.78125 9.550781-21.332031 21.332031-21.332031zm0 0" fill="#e18850"/><path d="m277.5 149.332031h21.332031c11.78125 0 21.332031 9.550781 21.332031 21.335938v192c0 11.78125-9.550781 21.332031-21.332031 21.332031h-21.332031c-11.785156 0-21.335938-9.550781-21.335938-21.332031v-192c0-11.785157 9.550782-21.335938 21.335938-21.335938zm0 0" fill="#953c1c"/><path d="m277.5 170.667969c11.78125 0 21.332031 9.550781 21.332031 21.332031v149.332031c0 11.785157-9.550781 21.335938-21.332031 21.335938-11.785156 0-21.335938-9.550781-21.335938-21.335938v-149.332031c0-11.78125 9.550782-21.332031 21.335938-21.332031zm0 0" fill="#c35422"/><path d="m234.832031 192h21.332031c11.78125 0 21.335938 9.550781 21.335938 21.332031v149.335938c0 11.78125-9.554688 21.332031-21.335938 21.332031h-21.332031c-11.78125 0-21.332031-9.550781-21.332031-21.332031v-149.335938c0-11.78125 9.550781-21.332031 21.332031-21.332031zm0 0" fill="#e8a073"/><path d="m320.164062 234.667969h21.335938c11.78125 0 21.332031 9.550781 21.332031 21.332031v149.332031c0 11.785157-9.550781 21.335938-21.332031 21.335938h-21.335938c-11.78125 0-21.332031-9.550781-21.332031-21.335938v-149.332031c0-11.78125 9.550781-21.332031 21.332031-21.332031zm0 0" fill="#db7230"/><path d="m234.832031 213.332031c11.78125 0 21.332031 9.550781 21.332031 21.335938v64c0 11.78125-9.550781 21.332031-21.332031 21.332031s-21.332031-9.550781-21.332031-21.332031v-64c0-11.785157 9.550781-21.335938 21.332031-21.335938zm0 0" fill="#f4ba93"/><path d="m320.164062 256c11.78125 0 21.335938 9.550781 21.335938 21.332031v64c0 11.785157-9.554688 21.335938-21.335938 21.335938s-21.332031-9.550781-21.332031-21.335938v-64c0-11.78125 9.550781-21.332031 21.332031-21.332031zm0 0" fill="#e18850"/><path d="m170.832031 234.667969c11.78125 0 21.332031 9.550781 21.332031 21.332031v21.332031c0 11.785157-9.550781 21.335938-21.332031 21.335938s-21.332031-9.550781-21.332031-21.335938v-21.332031c0-11.78125 9.550781-21.332031 21.332031-21.332031zm0 0" fill="#e8a073"/><path d="m351.933594 279.613281c-5.226563-2.65625-11.324219-3.003906-16.816406-.964843-16.085938 5.980468-54.839844 20.019531-89.617188 20.019531-34.78125 0-73.535156-14.039063-89.617188-20.019531-5.496093-2.039063-11.59375-1.691407-16.820312.964843l-20.4375 10.21875c-8.210938 4.105469-12.875 13.007813-11.578125 22.097657l17.578125 127.957031c.988281 6.929687 5.316406 12.933593 11.578125 16.0625l22.519531 11.257812c6.105469 2.984375 13.277344 2.8125 19.234375-.453125 11.855469-6.320312 36.726563-18.753906 67.542969-18.753906 30.8125 0 55.6875 12.433594 67.539062 18.753906 5.957032 3.265625 13.128907 3.4375 19.238282.453125l22.515625-11.257812c6.261719-3.128907 10.589843-9.132813 11.578125-16.0625l17.578125-127.957031c1.300781-9.089844-3.363281-17.992188-11.578125-22.097657zm0 0" fill="#b80900"/><path d="m245.5 298.667969c-34.78125 0-73.535156-14.039063-89.617188-20.019531-5.496093-2.042969-11.59375-1.691407-16.816406.964843l-20.441406 10.21875c-8.210938 4.105469-12.875 13.007813-11.578125 22.097657l17.578125 127.957031c.992188 6.929687 5.316406 12.933593 11.578125 16.0625l22.519531 11.257812c6.105469 2.984375 13.277344 2.8125 19.238282-.453125 11.851562-6.320312 36.722656-18.753906 67.539062-18.753906 15.207031.136719 30.273438 2.964844 44.5 8.34375l.792969-.394531c6.261719-3.128907 10.589843-9.132813 11.578125-16.0625l22.917968-157.695313c-19.0625 6.710938-50.726562 16.476563-79.789062 16.476563zm0 0" fill="#e92c24"/><path d="m170.808594 448c-10.160156-.011719-18.902344-7.183594-20.894532-17.144531l-20.5-128.003907c-2.3125-11.550781 5.175782-22.789062 16.726563-25.101562 11.554687-2.3125 22.792969 5.175781 25.105469 16.726562l20.5 128.003907c2.3125 11.550781-5.175782 22.789062-16.730469 25.101562-1.382813.277344-2.792969.417969-4.207031.417969zm0 0" fill="#f56c66"/></svg>