<svg height="469pt" viewBox="-64 0 469 469.33334" width="469pt" xmlns="http://www.w3.org/2000/svg"><path d="m277.5 64h-149.332031c-11.785157 0-21.335938 9.550781-21.335938 21.332031v42.667969h64v-21.332031l21.335938-21.335938h106.664062c11.785157 0 21.335938-9.550781 21.335938-21.332031v-21.332031h-42.667969zm0 0" fill="#93716e"/><path d="m128.167969 64c11.78125 0 21.332031 9.550781 21.332031 21.332031v21.335938h-42.667969v-21.335938c0-11.78125 9.550781-21.332031 21.335938-21.332031zm0 0" fill="#ac9290"/><path d="m234.832031 320v-21.332031h-192v21.332031s-42.664062 21.332031-42.664062 64v42.667969s0 42.664062 42.664062 42.664062h192c42.667969 0 42.667969-42.664062 42.667969-42.664062v-42.667969c0-42.667969-42.667969-64-42.667969-64zm0 0" fill="#f4ba93"/><path d="m170.832031 426.667969v-42.667969c0-42.667969-42.664062-64-42.664062-64v-21.332031h-64v21.332031s-42.667969 21.332031-42.667969 64v42.667969s0 42.664062 42.667969 42.664062h64c42.664062 0 42.664062-42.664062 42.664062-42.664062zm0 0" fill="#f6cbaf"/><path d="m256.167969 448h-234.667969c0-11.78125 52.53125-42.667969 117.332031-42.667969s117.335938 30.886719 117.335938 42.667969zm0 0" fill="#250700"/><path d="m170.832031 407.855469c-10.585937-1.652344-21.285156-2.496094-32-2.523438-64.800781 0-117.332031 30.886719-117.332031 42.667969h144c3.246094-6.660156 5.0625-13.929688 5.332031-21.332031zm0 0" fill="#3e190c"/><path d="m106.832031 298.667969h64v64h-64zm0 0" fill="#250700"/><path d="m213.5 256v-21.332031h-149.332031v21.332031s-21.335938 0-21.335938 21.332031v42.667969h192v-42.667969c0-21.332031-21.332031-21.332031-21.332031-21.332031zm0 0" fill="#3e190c"/><path d="m170.832031 256v-21.332031h-85.332031v21.332031s-21.332031 0-21.332031 21.332031v42.667969h128v-42.667969c0-21.332031-21.335938-21.332031-21.335938-21.332031zm0 0" fill="#653430"/><path d="m64.167969 362.667969c11.78125 0 21.332031 9.550781 21.332031 21.332031v42.667969c0 11.78125-9.550781 21.332031-21.332031 21.332031-11.785157 0-21.335938-9.550781-21.335938-21.332031v-42.667969c0-11.78125 9.550781-21.332031 21.335938-21.332031zm0 0" fill="#fcede3"/><path d="m128.167969 277.332031c0 11.785157-9.550781 21.335938-21.335938 21.335938-11.78125 0-21.332031-9.550781-21.332031-21.335938 0-11.78125 9.550781-21.332031 21.332031-21.332031 11.785157 0 21.335938 9.550781 21.335938 21.332031zm0 0" fill="#7c534f"/><path d="m213.5 213.332031v42.667969h-149.332031v-42.667969s-42.667969-21.332031-42.667969-85.332031c0-11.78125 9.550781-21.332031 21.332031-21.332031h192c11.785157 0 21.335938 9.550781 21.335938 21.332031 0 64-42.667969 85.332031-42.667969 85.332031zm0 0" fill="#3e190c"/><path d="m213.5 128c0-11.78125-9.550781-21.332031-21.332031-21.332031h-149.335938c-11.78125 0-21.332031 9.550781-21.332031 21.332031 0 64 42.667969 85.332031 42.667969 85.332031v42.667969h106.664062v-42.667969s42.667969-21.332031 42.667969-85.332031zm0 0" fill="#653430"/><path d="m64.167969 213.332031h149.332031v42.667969h-149.332031zm0 0" fill="#250700"/><path d="m85.5 213.332031h85.332031v42.667969h-85.332031zm0 0" fill="#3e190c"/><path d="m281.019531 0h35.628907c13.726562 0 24.851562 11.125 24.851562 24.851562-.035156 8.75-4.660156 16.839844-12.179688 21.3125-4.785156 2.894532-9.152343 8.179688-9.152343 17.835938h-42.667969c0-9.65625-4.371094-14.941406-9.15625-17.835938-7.519531-4.472656-12.140625-12.5625-12.175781-21.3125 0-13.726562 11.125-24.851562 24.851562-24.851562zm0 0" fill="#250700"/><path d="m85.5 341.332031h106.667969v21.335938h-106.667969zm0 0" fill="#3e190c"/><path d="m320.167969 21.332031c0 11.785157-9.550781 21.335938-21.335938 21.335938-11.78125 0-21.332031-9.550781-21.332031-21.335938 0-11.78125 9.550781-21.332031 21.332031-21.332031 11.785157 0 21.335938 9.550781 21.335938 21.332031zm0 0" fill="#3e190c"/><path d="m80.234375 152.765625c-7.75-17.210937-21.222656-27.929687-30.097656-23.933594-8.875 3.996094-9.789063 21.1875-2.039063 38.402344 7.75 17.210937 21.226563 27.929687 30.101563 23.933594 8.871093-3.996094 9.785156-21.1875 2.035156-38.402344zm0 0" fill="#7c534f"/></svg>