<svg height="469pt" viewBox="-42 0 469 469.33334" width="469pt" xmlns="http://www.w3.org/2000/svg"><path d="m21.5 0h341.332031c11.785157 0 21.335938 9.550781 21.335938 21.332031v426.667969c0 11.78125-9.550781 21.332031-21.335938 21.332031h-341.332031c-11.78125 0-21.332031-9.550781-21.332031-21.332031v-426.667969c0-11.78125 9.550781-21.332031 21.332031-21.332031zm0 0" fill="#cc1911"/><path d="m362.832031 149.332031h-341.332031c-11.78125 0-21.332031-9.550781-21.332031-21.332031v298.667969c0-11.785157 9.550781-21.335938 21.332031-21.335938h341.332031c11.785157 0 21.335938 9.550781 21.335938 21.335938v-298.667969c0 11.78125-9.550781 21.332031-21.335938 21.332031zm0 0" fill="#653430"/><path d="m64.167969 192h256c11.78125 0 21.332031 9.550781 21.332031 21.332031v128c0 11.785157-9.550781 21.335938-21.332031 21.335938h-256c-11.785157 0-21.335938-9.550781-21.335938-21.335938v-128c0-11.78125 9.550781-21.332031 21.335938-21.332031zm0 0" fill="#3e190c"/><path d="m149.5 170.667969h42.667969v42.664062c0 11.785157-9.550781 21.335938-21.335938 21.335938-11.78125 0-21.332031-9.550781-21.332031-21.335938zm0 0" fill="#aa644a"/><path d="m170.832031 213.332031h42.667969v85.335938h-42.667969zm0 0" fill="#7d2b00"/><path d="m170.832031 170.667969h42.667969v42.664062c0 11.785157-9.550781 21.335938-21.332031 21.335938-11.785157 0-21.335938-9.550781-21.335938-21.335938zm0 0" fill="#e8a073"/><path d="m128.167969 149.332031h128v42.667969c0 11.78125-9.550781 21.332031-21.335938 21.332031h-85.332031c-11.78125 0-21.332031-9.550781-21.332031-21.332031zm0 0" fill="#f6cbaf"/><path d="m128.167969 149.332031h85.332031v42.667969c0 11.78125-9.550781 21.332031-21.332031 21.332031h-42.667969c-11.78125 0-21.332031-9.550781-21.332031-21.332031zm0 0" fill="#f9dcc9"/><path d="m277.5 298.667969c-23.5625 0-42.667969 19.101562-42.667969 42.664062 0 23.566407 19.105469 42.667969 42.667969 42.667969s42.667969-19.101562 42.667969-42.667969c0-23.5625-19.105469-42.664062-42.667969-42.664062zm0 64c-11.78125 0-21.332031-9.550781-21.332031-21.335938 0-11.78125 9.550781-21.332031 21.332031-21.332031s21.332031 9.550781 21.332031 21.332031c0 11.785157-9.550781 21.335938-21.332031 21.335938zm0 0" fill="#e8a073"/><path d="m128.167969 277.332031h128c11.78125 0 21.332031 9.550781 21.332031 21.335938v64c0 23.5625-19.101562 42.664062-42.667969 42.664062h-85.332031c-23.5625 0-42.667969-19.101562-42.667969-42.664062v-64c0-11.785157 9.550781-21.335938 21.335938-21.335938zm0 0" fill="#f9dcc9"/><path d="m234.832031 405.332031c23.566407 0 42.667969-19.101562 42.667969-42.664062v-64c0-11.785157-9.550781-21.335938-21.332031-21.335938h-42.667969c11.78125 0 21.332031 9.550781 21.332031 21.335938v64c0 23.5625-19.101562 42.664062-42.664062 42.664062zm0 0" fill="#f6cbaf"/><path d="m149.5 298.667969c11.78125 0 21.332031 9.550781 21.332031 21.332031v42.667969c0 11.78125-9.550781 21.332031-21.332031 21.332031s-21.332031-9.550781-21.332031-21.332031v-42.667969c0-11.78125 9.550781-21.332031 21.332031-21.332031zm0 0" fill="#fdf6f1"/><path d="m170.832031 181.332031c0 5.890625-4.773437 10.667969-10.664062 10.667969s-10.667969-4.777344-10.667969-10.667969 4.777344-10.664062 10.667969-10.664062 10.664062 4.773437 10.664062 10.664062zm0 0" fill="#fdf6f1"/><path d="m256.167969 170.667969h85.332031c11.78125 0 21.332031 9.550781 21.332031 21.332031s-9.550781 21.332031-21.332031 21.332031h-85.332031c-11.785157 0-21.335938-9.550781-21.335938-21.332031s9.550781-21.332031 21.335938-21.332031zm0 0" fill="#250700"/><g fill="#ed4c45"><path d="m138.832031 0h64c41.238281 0 74.667969 33.429688 74.667969 74.667969 0 41.234375-33.429688 74.664062-74.667969 74.664062h-64c-41.234375 0-74.664062-33.429687-74.664062-74.664062 0-41.238281 33.429687-74.667969 74.664062-74.667969zm0 0"/><path d="m96.167969 405.332031h149.332031c17.671875 0 32 14.328125 32 32 0 17.675781-14.328125 32-32 32h-149.332031c-17.675781 0-32-14.324219-32-32 0-17.671875 14.324219-32 32-32zm0 0"/></g></svg>