<svg height="426.66666pt" viewBox="0 0 426.66666 426.66666" width="426.66666pt" xmlns="http://www.w3.org/2000/svg"><path d="m234.667969 42.667969v320h85.332031c58.910156 0 106.667969-47.757813 106.667969-106.667969v-106.667969c0-58.910156-47.757813-106.664062-106.667969-106.664062zm85.332031 256h-21.332031v-192h21.332031c23.5625 0 42.667969 19.101562 42.667969 42.664062v106.667969c0 23.5625-19.105469 42.667969-42.667969 42.667969zm0 0" fill="#f4ba93"/><g fill="#e18850"><path d="m362.667969 320c0 11.78125-9.550781 21.332031-21.335938 21.332031-11.78125 0-21.332031-9.550781-21.332031-21.332031s9.550781-21.332031 21.332031-21.332031c11.785157 0 21.335938 9.550781 21.335938 21.332031zm0 0"/><path d="m384 277.332031c-11.78125 0-21.332031-9.550781-21.332031-21.332031v-106.667969c-.023438-23.554687-19.113281-42.640625-42.667969-42.664062-11.78125 0-21.332031-9.550781-21.332031-21.335938 0-11.78125 9.550781-21.332031 21.332031-21.332031 47.105469.054688 85.28125 38.226562 85.332031 85.332031v106.667969c0 11.78125-9.550781 21.332031-21.332031 21.332031zm0 0"/><path d="m42.667969 384h256c11.78125 0 21.332031 9.550781 21.332031 21.332031 0 11.785157-9.550781 21.335938-21.332031 21.335938h-256c-11.785157 0-21.335938-9.550781-21.335938-21.335938 0-11.78125 9.550781-21.332031 21.335938-21.332031zm0 0"/></g><path d="m21.332031 0h298.667969c11.78125 0 21.332031 9.550781 21.332031 21.332031v362.667969c0 11.78125-9.550781 21.332031-21.332031 21.332031h-298.667969c-11.78125 0-21.332031-9.550781-21.332031-21.332031v-362.667969c0-11.78125 9.550781-21.332031 21.332031-21.332031zm0 0" fill="#f9dcc9"/><path d="m64 128c11.78125 0 21.332031 9.550781 21.332031 21.332031v213.335938c0 11.78125-9.550781 21.332031-21.332031 21.332031s-21.332031-9.550781-21.332031-21.332031v-213.335938c0-11.78125 9.550781-21.332031 21.332031-21.332031zm0 0" fill="#fdf6f1"/><path d="m64 21.332031c11.78125 0 21.332031 9.550781 21.332031 21.335938v42.664062c0 11.785157-9.550781 21.335938-21.332031 21.335938s-21.332031-9.550781-21.332031-21.335938v-42.664062c0-11.785157 9.550781-21.335938 21.332031-21.335938zm0 0" fill="#fdf6f1"/><path d="m320 405.332031c11.78125 0 21.332031-9.550781 21.332031-21.332031v-362.667969c0-11.78125-9.550781-21.332031-21.332031-21.332031h-85.332031c11.78125 0 21.332031 9.550781 21.332031 21.332031v362.667969c0 11.78125-9.550781 21.332031-21.332031 21.332031zm0 0" fill="#f4ba93"/><path d="m204.183594 158.480469c-33.238282-33.238281-79.964844-40.398438-104.367188-15.996094s-17.238281 71.128906 16 104.367187c33.238282 33.238282 79.964844 40.402344 104.367188 16 24.402344-24.40625 17.238281-71.132812-16-104.371093zm0 0" fill="#953c1c"/><path d="m202.667969 277.332031c-12.867188 0-32-8.519531-32-32v-21.332031c-.125-4.800781-2.074219-10.667969-10.667969-10.667969h-21.332031c-12.867188 0-32-8.519531-32-32 0-5.890625 4.773437-10.664062 10.664062-10.664062s10.667969 4.773437 10.667969 10.664062c0 8.59375 5.863281 10.542969 10.792969 10.667969h21.207031c23.480469 0 32 19.136719 32 32v21.332031c0 8.59375 5.863281 10.542969 10.792969 10.667969 5.851562.140625 10.507812 4.949219 10.46875 10.800781-.042969 5.824219-4.773438 10.523438-10.59375 10.53125zm0 0" fill="#3e190c"/><path d="m151.917969 151.488281c-11.695313-3.546875-22.332031-2.613281-23.757813 2.085938-1.425781 4.699219 6.898438 11.386719 18.589844 14.9375 11.695312 3.546875 22.332031 2.613281 23.757812-2.085938 1.425782-4.699219-6.898437-11.386719-18.589843-14.9375zm0 0" fill="#b77b65"/></svg>