<svg height="469pt" viewBox="-42 0 469 469.33334" width="469pt" xmlns="http://www.w3.org/2000/svg"><path d="m277.5 42.667969v85.332031h-234.667969v-85.332031l15.4375-30.875c3.613281-7.226563 11-11.792969 19.082031-11.792969h165.628907c8.082031 0 15.46875 4.566406 19.082031 11.792969zm0 0" fill="#3e190c"/><path d="m237.488281 448h-154.644531c-10.691406 0-19.734375-7.914062-21.144531-18.515625l-40.199219-301.484375v-85.332031h277.332031v85.332031l-40.195312 301.484375c-1.414063 10.601563-10.457031 18.515625-21.148438 18.515625zm0 0" fill="#e8a073"/><path d="m173.300781 429.484375 36.980469-277.332031c.8125-6.09375-1.046875-12.246094-5.097656-16.871094-4.050782-4.628906-9.902344-7.28125-16.050782-7.28125h-167.632812l40.199219 301.484375c1.410156 10.601563 10.453125 18.515625 21.144531 18.515625h69.3125c10.691406 0 19.734375-7.914062 21.144531-18.515625zm0 0" fill="#f9dcc9"/><path d="m21.5 42.667969h277.332031c11.785157 0 21.335938 9.550781 21.335938 21.332031v42.667969c0 11.78125-9.550781 21.332031-21.335938 21.332031h-277.332031c-11.78125 0-21.332031-9.550781-21.332031-21.332031v-42.667969c0-11.78125 9.550781-21.332031 21.332031-21.332031zm0 0" fill="#653430"/><path d="m21.5 42.667969h192c11.78125 0 21.332031 9.550781 21.332031 21.332031v42.667969c0 11.78125-9.550781 21.332031-21.332031 21.332031h-192c-11.78125 0-21.332031-9.550781-21.332031-21.332031v-42.667969c0-11.78125 9.550781-21.332031 21.332031-21.332031zm0 0" fill="#7c534f"/><path d="m64.167969 42.667969c11.78125 0 21.332031 9.550781 21.332031 21.332031v42.667969c0 11.78125-9.550781 21.332031-21.332031 21.332031-11.785157 0-21.335938-9.550781-21.335938-21.332031v-42.667969c0-11.78125 9.550781-21.332031 21.335938-21.332031zm0 0" fill="#93716e"/><path d="m58.269531 11.792969-15.4375 30.875h149.335938c11.78125 0 21.332031-9.550781 21.332031-21.335938 0-11.78125-9.550781-21.332031-21.332031-21.332031h-114.816407c-8.082031 0-15.46875 4.566406-19.082031 11.792969zm0 0" fill="#653430"/><path d="m21.5 192 21.332031 149.332031h234.667969l21.332031-149.332031zm0 0" fill="#aa644a"/><path d="m21.5 192 21.332031 149.332031h128l21.335938-149.332031zm0 0" fill="#b77b65"/><path d="m149.5 234.667969h213.332031v213.332031h-213.332031zm0 0" fill="#b53f07"/><path d="m384.167969 341.332031c0-11.78125-9.550781-21.332031-21.335938-21.332031v-42.667969c11.785157 0 21.335938-9.550781 21.335938-21.332031s-9.550781-21.332031-21.335938-21.332031c0-11.785157-9.550781-21.335938-21.332031-21.335938s-21.332031 9.550781-21.332031 21.335938h-42.667969c0-11.785157-9.550781-21.335938-21.332031-21.335938-11.785157 0-21.335938 9.550781-21.335938 21.335938h-42.664062c-.007813-11.777344-9.558594-21.320313-21.335938-21.320313-11.773437 0-21.324219 9.542969-21.332031 21.320313-11.777344.007812-21.320312 9.554687-21.320312 21.332031s9.542968 21.324219 21.320312 21.332031v42.667969c-11.777344.007812-21.320312 9.558594-21.320312 21.332031 0 11.777344 9.542968 21.328125 21.320312 21.335938v42.664062c-11.78125 0-21.332031 9.550781-21.332031 21.335938 0 11.78125 9.550781 21.332031 21.332031 21.332031 0 11.78125 9.550781 21.332031 21.332031 21.332031 11.785157 0 21.335938-9.550781 21.335938-21.332031h42.664062c0 11.78125 9.550781 21.332031 21.335938 21.332031 11.78125 0 21.332031-9.550781 21.332031-21.332031h42.667969c0 11.78125 9.550781 21.332031 21.332031 21.332031s21.332031-9.550781 21.332031-21.332031c11.785157 0 21.335938-9.550781 21.335938-21.332031 0-11.785157-9.550781-21.335938-21.335938-21.335938v-42.664062c11.785157 0 21.335938-9.550781 21.335938-21.335938zm-64-64v42.667969h-42.667969v-42.667969zm-128 0h42.664062v42.667969h-42.664062zm0 128v-42.664062h42.664062v42.664062zm128 0h-42.667969v-42.664062h42.667969zm0 0" fill="#db7230"/><g fill="#e8a073"><path d="m192.167969 234.667969h21.332031c11.78125 0 21.332031 9.550781 21.332031 21.332031s-9.550781 21.332031-21.332031 21.332031h-21.332031c-11.785157 0-21.335938-9.550781-21.335938-21.332031s9.550781-21.332031 21.335938-21.332031zm0 0"/><path d="m277.5 234.667969h21.332031c11.785157 0 21.335938 9.550781 21.335938 21.332031s-9.550781 21.332031-21.335938 21.332031h-21.332031c-11.78125 0-21.332031-9.550781-21.332031-21.332031s9.550781-21.332031 21.332031-21.332031zm0 0"/><path d="m256.167969 298.667969c-11.785157 0-21.335938 9.550781-21.335938 21.332031-11.785156-.007812-21.347656 9.546875-21.347656 21.332031 0 11.789063 9.5625 21.34375 21.347656 21.335938h21.335938c11.78125 0 21.332031-9.550781 21.332031-21.335938v-21.332031c0-11.78125-9.550781-21.332031-21.332031-21.332031zm0 0"/><path d="m341.5 298.667969c-11.78125 0-21.332031 9.550781-21.332031 21.332031-11.777344.007812-21.320313 9.558594-21.320313 21.332031 0 11.777344 9.542969 21.328125 21.320313 21.335938h21.332031c11.78125 0 21.332031-9.550781 21.332031-21.335938v-21.332031c0-11.78125-9.550781-21.332031-21.332031-21.332031zm0 0"/><path d="m256.167969 384c-11.785157 0-21.335938 9.550781-21.335938 21.332031-11.78125 0-21.332031 9.550781-21.332031 21.335938 0 11.78125 9.550781 21.332031 21.332031 21.332031h21.335938c11.78125 0 21.332031-9.550781 21.332031-21.332031v-21.335938c0-11.78125-9.550781-21.332031-21.332031-21.332031zm0 0"/><path d="m341.5 384c-11.78125 0-21.332031 9.550781-21.332031 21.332031-11.785157 0-21.335938 9.550781-21.335938 21.335938 0 11.78125 9.550781 21.332031 21.335938 21.332031h21.332031c11.78125 0 21.332031-9.550781 21.332031-21.332031v-21.335938c0-11.78125-9.550781-21.332031-21.332031-21.332031zm0 0"/><path d="m170.832031 277.332031c11.785157 0 21.335938 9.550781 21.335938 21.335938v149.332031c0 11.78125-9.550781 21.332031-21.335938 21.332031-11.78125 0-21.332031-9.550781-21.332031-21.332031v-149.332031c0-11.785157 9.550781-21.335938 21.332031-21.335938zm0 0"/></g></svg>