<svg height="469pt" viewBox="-42 0 469 469.33286" width="469pt" xmlns="http://www.w3.org/2000/svg"><path d="m277.5 42.667969v85.332031h-234.667969v-85.332031l15.4375-30.875c3.613281-7.226563 11-11.792969 19.082031-11.792969h165.628907c8.082031 0 15.46875 4.566406 19.082031 11.792969zm0 0" fill="#3e190c"/><path d="m237.488281 448h-154.644531c-10.691406 0-19.734375-7.914062-21.144531-18.515625l-40.199219-301.484375v-85.332031h277.332031v85.332031l-40.195312 301.484375c-1.414063 10.601563-10.457031 18.515625-21.148438 18.515625zm0 0" fill="#e8a073"/><path d="m173.300781 429.484375 36.980469-277.332031c.8125-6.09375-1.046875-12.246094-5.097656-16.871094-4.050782-4.628906-9.902344-7.28125-16.050782-7.28125h-167.632812l40.199219 301.484375c1.410156 10.601563 10.453125 18.515625 21.144531 18.515625h69.3125c10.691406 0 19.734375-7.914062 21.144531-18.515625zm0 0" fill="#f9dcc9"/><path d="m21.5 42.667969h277.332031c11.78125 0 21.335938 9.550781 21.335938 21.332031v42.667969c0 11.78125-9.554688 21.332031-21.335938 21.332031h-277.332031c-11.78125 0-21.332031-9.550781-21.332031-21.332031v-42.667969c0-11.78125 9.550781-21.332031 21.332031-21.332031zm0 0" fill="#653430"/><path d="m21.5 42.667969h192c11.78125 0 21.332031 9.550781 21.332031 21.332031v42.667969c0 11.78125-9.550781 21.332031-21.332031 21.332031h-192c-11.78125 0-21.332031-9.550781-21.332031-21.332031v-42.667969c0-11.78125 9.550781-21.332031 21.332031-21.332031zm0 0" fill="#7c534f"/><path d="m64.167969 42.667969c11.78125 0 21.332031 9.550781 21.332031 21.332031v42.667969c0 11.78125-9.550781 21.332031-21.332031 21.332031-11.785157 0-21.335938-9.550781-21.335938-21.332031v-42.667969c0-11.78125 9.550781-21.332031 21.335938-21.332031zm0 0" fill="#93716e"/><path d="m58.269531 11.792969-15.4375 30.875h149.335938c11.78125 0 21.332031-9.550781 21.332031-21.335938 0-11.78125-9.550781-21.332031-21.332031-21.332031h-114.816407c-8.082031 0-15.46875 4.566406-19.082031 11.792969zm0 0" fill="#653430"/><path d="m21.5 192 21.332031 149.332031h234.667969l21.332031-149.332031zm0 0" fill="#aa644a"/><path d="m21.5 192 21.332031 149.332031h128l21.335938-149.332031zm0 0" fill="#b77b65"/><path d="m234.832031 192-146.667969 247.90625c-4.476562 7.675781-3.21875 17.410156 3.066407 23.695312 6.285156 6.285157 16.019531 7.542969 23.699219 3.066407l247.902343-146.667969s-21.332031-106.667969-128-128zm0 0" fill="#e18850"/><path d="m352.167969 352c-17.671875-.003906-31.996094-14.328125-32-32-.046875-47.109375-38.226563-85.285156-85.335938-85.332031-17.671875 0-32-14.328125-32-32 0-17.675781 14.328125-32 32-32 82.335938 0 149.335938 67 149.335938 149.332031-.007813 17.671875-14.332031 31.996094-32 32zm0 0" fill="#f4ba93"/><path d="m341.480469 298.667969c-9.785157-.003907-18.308594-6.671875-20.667969-16.167969-17.105469-68.375-83.167969-69.167969-85.980469-69.167969-11.785156.007813-21.347656-9.542969-21.347656-21.332031s9.5625-21.339844 21.347656-21.332031c35.273438 0 107.292969 21.207031 127.355469 101.5 1.578125 6.371093.140625 13.117187-3.902344 18.289062-4.042968 5.175781-10.242187 8.203125-16.804687 8.210938zm0 0" fill="#f9dcc9"/><path d="m141.265625 419.183594 125.484375-71.707032c6.648438-3.800781 10.75-10.867187 10.75-18.523437 0-40.289063-32.664062-72.953125-72.953125-72.953125h-7.578125l-84.9375 143.570312c-1.019531 7.414063 2.277344 14.761719 8.492188 18.933594 6.214843 4.167969 14.265624 4.433594 20.742187.679688zm0 0" fill="#e8a073"/><g fill="#250700"><path d="m256.167969 266.667969c0 5.890625-4.777344 10.664062-10.667969 10.664062s-10.667969-4.773437-10.667969-10.664062 4.777344-10.667969 10.667969-10.667969 10.667969 4.777344 10.667969 10.667969zm0 0"/><path d="m256.167969 352c0 5.890625-4.777344 10.667969-10.667969 10.667969s-10.667969-4.777344-10.667969-10.667969 4.777344-10.667969 10.667969-10.667969 10.667969 4.777344 10.667969 10.667969zm0 0"/><path d="m127.460938 434.304688c0 5.890624-4.773438 10.664062-10.664063 10.664062s-10.667969-4.773438-10.667969-10.664062c0-5.890626 4.777344-10.667969 10.667969-10.667969s10.664063 4.777343 10.664063 10.667969zm0 0"/></g><path d="m192.167969 394.667969c0 17.671875-14.328125 32-32 32-17.675781 0-32-14.328125-32-32 0-17.675781 14.324219-32 32-32 17.671875 0 32 14.324219 32 32zm0 0" fill="#b80900"/><path d="m170.832031 394.667969c0-16.59375-9.550781-30.042969-21.332031-30.042969s-21.332031 13.449219-21.332031 30.042969c0 16.589843 9.550781 30.039062 21.332031 30.039062s21.332031-13.449219 21.332031-30.039062zm0 0" fill="#e92c24"/><path d="m298.832031 309.332031c0 17.675781-14.324219 32-32 32-17.671875 0-32-14.324219-32-32 0-17.671875 14.328125-32 32-32 17.675781 0 32 14.328125 32 32zm0 0" fill="#b80900"/><path d="m277.5 309.332031c0-16.589843-9.550781-30.039062-21.332031-30.039062-11.785157 0-21.335938 13.449219-21.335938 30.039062 0 16.59375 9.550781 30.042969 21.335938 30.042969 11.78125 0 21.332031-13.449219 21.332031-30.042969zm0 0" fill="#e92c24"/><path d="m213.5 309.332031c0 17.675781-14.328125 32-32 32s-32-14.324219-32-32c0-17.671875 14.328125-32 32-32s32 14.328125 32 32zm0 0" fill="#b80900"/><path d="m192.167969 309.332031c0-16.589843-9.554688-30.039062-21.335938-30.039062s-21.332031 13.449219-21.332031 30.039062c0 16.59375 9.550781 30.042969 21.332031 30.042969s21.335938-13.449219 21.335938-30.042969zm0 0" fill="#e92c24"/></svg>