<svg height="469pt" viewBox="-42 0 469 469.33333" width="469pt" xmlns="http://www.w3.org/2000/svg"><path d="m256.167969 170.667969c-70.695313 0-128 57.304687-128 128 0 70.691406 57.304687 128 128 128 70.691406 0 128-57.308594 128-128 0-70.695313-57.308594-128-128-128zm0 213.332031c-47.128907 0-85.335938-38.203125-85.335938-85.332031 0-47.128907 38.207031-85.335938 85.335938-85.335938 47.128906 0 85.332031 38.207031 85.332031 85.335938 0 47.128906-38.203125 85.332031-85.332031 85.332031zm0 0" fill="#653430"/><path d="m256.167969 426.667969c-54.632813-.007813-103.242188-34.6875-121.023438-86.34375-17.777343-51.660157-.8125-108.910157 42.246094-142.539063 43.058594-33.625 102.714844-36.21875 148.527344-6.453125 9.871093 6.429688 12.660156 19.640625 6.234375 29.511719-6.421875 9.871094-19.632813 12.664062-29.507813 6.238281-34.585937-22.433593-80.265625-16.933593-108.539062 13.070313-28.273438 30.003906-31.050781 75.929687-6.601563 109.125 24.449219 33.191406 69.132813 44.160156 106.171875 26.054687 10.578125-5.183593 23.355469-.816406 28.542969 9.757813 5.1875 10.574218.824219 23.355468-9.75 28.546875-17.511719 8.625-36.78125 13.082031-56.300781 13.03125zm0 0" fill="#3e190c"/><path d="m42.832031 106.667969h256v341.332031c0 11.78125-9.550781 21.332031-21.332031 21.332031h-213.332031c-11.785157 0-21.335938-9.550781-21.335938-21.332031zm0 0" fill="#f9dcc9"/><path d="m213.5 149.332031h-21.332031c11.78125 0 21.332031 9.550781 21.332031 21.335938v277.402343c-.035156 11.75-9.566406 21.257813-21.320312 21.261719h85.320312c11.78125 0 21.332031-9.550781 21.332031-21.332031v-298.667969zm0 0" fill="#f4ba93"/><path d="m170.832031 0c11.785157 0 21.335938 9.550781 21.335938 21.332031v21.335938c0 11.78125-9.550781 21.332031-21.335938 21.332031-11.78125 0-21.332031-9.550781-21.332031-21.332031v-21.335938c0-11.78125 9.550781-21.332031 21.332031-21.332031zm0 0" fill="#3e190c"/><path d="m170.832031 21.332031c11.785157 0 21.335938 9.550781 21.335938 21.335938v21.332031c0 11.78125-9.550781 21.332031-21.335938 21.332031-11.78125 0-21.332031-9.550781-21.332031-21.332031v-21.332031c0-11.785157 9.550781-21.335938 21.332031-21.335938zm0 0" fill="#250700"/><path d="m320.167969 106.667969h-21.335938v21.332031h-256v-21.332031h-21.332031s42.65625-64 149.324219-64 149.34375 64 149.34375 64zm0 0" fill="#3e190c"/><path d="m64.167969 234.667969h213.332031v170.664062c0 11.785157-9.550781 21.335938-21.332031 21.335938h-170.667969c-11.78125 0-21.332031-9.550781-21.332031-21.335938zm0 0" fill="#3e190c"/><path d="m.167969 106.667969 42.664062 42.664062h256v-42.664062zm0 0" fill="#7c534f"/><path d="m106.832031 234.667969c11.785157 0 21.335938 9.550781 21.335938 21.332031v149.332031c0 11.785157-9.550781 21.335938-21.335938 21.335938-11.78125 0-21.332031-9.550781-21.332031-21.335938v-149.332031c0-11.78125 9.550781-21.332031 21.332031-21.332031zm0 0" fill="#93716e"/><path d="m128.167969 192c0 11.78125-9.550781 21.332031-21.335938 21.332031-11.78125 0-21.332031-9.550781-21.332031-21.332031s9.550781-21.332031 21.332031-21.332031c11.785157 0 21.335938 9.550781 21.335938 21.332031zm0 0" fill="#fdf6f1"/><path d="m234.832031 234.667969h21.335938c11.78125 0 21.332031 9.550781 21.332031 21.332031v149.332031c0 11.785157-9.550781 21.335938-21.332031 21.335938h-21.335938c-11.78125 0-21.332031-9.550781-21.332031-21.335938v-149.332031c0-11.78125 9.550781-21.332031 21.332031-21.332031zm0 0" fill="#250700"/><path d="m128.023438 68.984375c-1.335938-4.984375-11.90625-6.484375-23.609376-3.34375-11.703124 3.136719-20.105468 9.722656-18.769531 14.707031 1.335938 4.988282 11.90625 6.484375 23.609375 3.347656 11.703125-3.136718 20.105469-9.722656 18.769532-14.710937zm0 0" fill="#93716e"/><path d="m298.832031 149.332031h-106.664062c-11.785157 0-21.335938-9.550781-21.335938-21.332031s9.550781-21.332031 21.335938-21.332031h106.664062zm0 0" fill="#653430"/><path d="m128.167969 128c0 11.78125-9.550781 21.332031-21.335938 21.332031-11.78125 0-21.332031-9.550781-21.332031-21.332031s9.550781-21.332031 21.332031-21.332031c11.785157 0 21.335938 9.550781 21.335938 21.332031zm0 0" fill="#93716e"/></svg>