<svg height="426.66666pt" viewBox="0 0 426.66666 426.66666" width="426.66666pt" xmlns="http://www.w3.org/2000/svg"><path d="m21.332031 21.332031h384v384h-384zm0 0" fill="#f6cbaf"/><g fill="#f9dcc9"><path d="m106.667969 42.667969h128c11.78125 0 21.332031 9.550781 21.332031 21.332031v298.667969c0 11.78125-9.550781 21.332031-21.332031 21.332031h-128c-11.785157 0-21.335938-9.550781-21.335938-21.332031v-298.667969c0-11.78125 9.550781-21.332031 21.335938-21.332031zm0 0"/><path d="m21.332031 384h384c11.785157 0 21.335938 9.550781 21.335938 21.332031 0 11.785157-9.550781 21.335938-21.335938 21.335938h-384c-11.78125 0-21.332031-9.550781-21.332031-21.335938 0-11.78125 9.550781-21.332031 21.332031-21.332031zm0 0"/><path d="m21.332031 0h384c11.785157 0 21.335938 9.550781 21.335938 21.332031 0 11.785157-9.550781 21.335938-21.335938 21.335938h-384c-11.78125 0-21.332031-9.550781-21.332031-21.335938 0-11.78125 9.550781-21.332031 21.332031-21.332031zm0 0"/></g><path d="m42.667969 170.667969h341.332031c11.78125 0 21.332031 9.550781 21.332031 21.332031v21.332031c0 11.785157-9.550781 21.335938-21.332031 21.335938h-341.332031c-11.785157 0-21.335938-9.550781-21.335938-21.335938v-21.332031c0-11.78125 9.550781-21.332031 21.335938-21.332031zm0 0" fill="#f2b084"/><path d="m64 149.347656h298.667969v149.335938h-298.667969zm0 0" fill="#3e190c"/><path d="m256 149.347656h-21.332031l-85.335938 149.332032h21.335938zm0 0" fill="#7a514d"/><path d="m64 170.667969h298.667969v64h-298.667969zm0 0" fill="#250700"/><path d="m213.332031 149.347656h-64l-85.332031 149.332032h64zm0 0" fill="#7a514d"/><path d="m100.578125 234.667969h64l36.574219-64h-64zm0 0" fill="#3e190c"/><path d="m185.914062 234.667969h21.332032l36.570312-64h-21.332031zm0 0" fill="#3e190c"/><path d="m85.332031 298.683594h256c11.785157 0 21.335938 9.550781 21.335938 21.332031s-9.550781 21.332031-21.335938 21.332031h-256c-11.78125 0-21.332031-9.550781-21.332031-21.332031s9.550781-21.332031 21.332031-21.332031zm0 0" fill="#fcede3"/><path d="m64 384h213.332031c11.785157 0 21.335938 9.550781 21.335938 21.332031 0 11.785157-9.550781 21.335938-21.335938 21.335938h-213.332031c-11.78125 0-21.332031-9.550781-21.332031-21.335938 0-11.78125 9.550781-21.332031 21.332031-21.332031zm0 0" fill="#fcede3"/><path d="m64 0h213.332031c11.785157 0 21.335938 9.550781 21.335938 21.332031 0 11.785157-9.550781 21.335938-21.335938 21.335938h-213.332031c-11.78125 0-21.332031-9.550781-21.332031-21.335938 0-11.78125 9.550781-21.332031 21.332031-21.332031zm0 0" fill="#fcede3"/><path d="m384 192h-341.332031c-23.566407 0-42.667969-19.101562-42.667969-42.667969l21.332031-42.664062h384l21.335938 42.664062c0 23.566407-19.105469 42.667969-42.667969 42.667969zm0 0" fill="#f17d77"/><path d="m0 149.332031h426.667969c0 23.566407-19.105469 42.667969-42.667969 42.667969h-341.332031c-23.566407 0-42.667969-19.101562-42.667969-42.667969zm0 0" fill="#e92c24"/></svg>