<svg height="469pt" viewBox="-64 0 469 469.33334" width="469pt" xmlns="http://www.w3.org/2000/svg"><path d="m64.167969 21.332031-51.503907 51.503907c-8.003906 8.003906-12.496093 18.855468-12.496093 30.171874v263.320313c0 11.316406 4.492187 22.167969 12.496093 30.167969l51.503907 51.503906h213.332031l51.503906-51.503906c8-8 12.496094-18.851563 12.496094-30.167969v-263.320313c0-11.316406-4.496094-22.167968-12.496094-30.171874l-51.503906-51.503907zm0 0" fill="#cc1911"/><path d="m256.167969 366.328125v-263.320313c0-11.316406-4.496094-22.171874-12.5-30.171874l-51.5-51.503907h-85.335938l-51.5 51.503907c-8.003906 8-12.5 18.855468-12.5 30.171874v263.320313c0 11.316406 4.496094 22.167969 12.5 30.167969l51.5 51.503906h85.335938l51.5-51.503906c8.003906-8 12.5-18.851563 12.5-30.167969zm0 0" fill="#e92c24"/><path d="m192.167969 448c0-106.667969 85.332031-128 85.332031-192s-64.019531-85.332031-64.019531-234.667969h64.019531c0 149.335938 21.332031 192 21.332031 234.667969s-42.683593 85.332031-42.683593 192zm0 0" fill="#fad4d2"/><path d="m21.5 426.667969h298.667969c11.78125 0 21.332031 9.550781 21.332031 21.332031v21.332031h-341.332031v-21.332031c0-11.78125 9.550781-21.332031 21.332031-21.332031zm0 0" fill="#f17d77"/><path d="m21.5 426.667969h213.332031c11.785157 0 21.335938 9.550781 21.335938 21.332031v21.332031h-256v-21.332031c0-11.78125 9.550781-21.332031 21.332031-21.332031zm0 0" fill="#f6b0ad"/><path d="m106.832031 277.332031c-23.5625 0-42.664062-19.101562-42.664062-42.664062v-106.667969c0-23.5625 19.101562-42.667969 42.664062-42.667969 23.566407 0 42.667969 19.105469 42.667969 42.667969v106.667969c0 23.5625-19.101562 42.664062-42.667969 42.664062zm0 0" fill="#f24c45"/><path d="m149.5 341.332031c0 23.566407-19.101562 42.667969-42.667969 42.667969-23.5625 0-42.664062-19.101562-42.664062-42.667969 0-23.5625 19.101562-42.664062 42.664062-42.664062 23.566407 0 42.667969 19.101562 42.667969 42.664062zm0 0" fill="#f24c45"/><path d="m42.832031 426.667969h42.667969c11.78125 0 21.332031 9.550781 21.332031 21.332031s-9.550781 21.332031-21.332031 21.332031h-42.667969c-11.78125 0-21.332031-9.550781-21.332031-21.332031s9.550781-21.332031 21.332031-21.332031zm0 0" fill="#fad4d2"/><path d="m.167969 0h341.332031v21.332031c0 11.785157-9.550781 21.335938-21.332031 21.335938h-298.667969c-11.78125 0-21.332031-9.550781-21.332031-21.335938zm0 0" fill="#f17d77"/><path d="m.167969 0h256v21.332031c0 11.785157-9.550781 21.335938-21.335938 21.335938h-213.332031c-11.78125 0-21.332031-9.550781-21.332031-21.335938zm0 0" fill="#f6b0ad"/><path d="m42.832031 0h42.667969c11.78125 0 21.332031 9.550781 21.332031 21.332031 0 11.785157-9.550781 21.335938-21.332031 21.335938h-42.667969c-11.78125 0-21.332031-9.550781-21.332031-21.335938 0-11.78125 9.550781-21.332031 21.332031-21.332031zm0 0" fill="#fad4d2"/></svg>