<svg height="469pt" viewBox="-42 0 469 469.33334" width="469pt" xmlns="http://www.w3.org/2000/svg"><path d="m320.167969 85.332031v-64h-256v64s-64 21.335938-64 85.335938v277.332031c0 11.78125 9.550781 21.332031 21.332031 21.332031h341.332031c11.785157 0 21.335938-9.550781 21.335938-21.332031v-277.332031c0-64-64-85.335938-64-85.335938zm0 0" fill="#f17d77"/><path d="m64.167969 0h256c11.78125 0 21.332031 9.550781 21.332031 21.332031v42.667969h-298.667969v-42.667969c0-11.78125 9.550781-21.332031 21.335938-21.332031zm0 0" fill="#6ccd6c"/><path d="m277.5 448v-277.332031c0-64-64-85.335938-64-85.335938v-64h-149.332031v64s-64 21.335938-64 85.335938v277.332031c0 11.78125 9.550781 21.332031 21.332031 21.332031h234.667969c11.78125 0 21.332031-9.550781 21.332031-21.332031zm0 0" fill="#f6b0ad"/><path d="m213.5 288c0 41.238281-33.429688 74.667969-74.667969 74.667969-41.234375 0-74.664062-33.429688-74.664062-74.667969s33.429687-74.667969 74.664062-74.667969c41.238281 0 74.667969 33.429688 74.667969 74.667969zm0 0" fill="#3e190c"/><path d="m192.167969 277.332031c0 35.347657-28.65625 64-64 64-35.347657 0-64-28.652343-64-64 0-35.34375 28.652343-64 64-64 35.34375 0 64 28.65625 64 64zm0 0" fill="#653430"/><path d="m64.167969 405.332031h106.664062c11.785157 0 21.335938 9.550781 21.335938 21.335938 0 11.78125-9.550781 21.332031-21.335938 21.332031h-106.664062c-11.785157 0-21.335938-9.550781-21.335938-21.332031 0-11.785157 9.550781-21.335938 21.335938-21.335938zm0 0" fill="#653430"/><path d="m64.167969 405.332031h64c11.78125 0 21.332031 9.550781 21.332031 21.335938 0 11.78125-9.550781 21.332031-21.332031 21.332031h-64c-11.785157 0-21.335938-9.550781-21.335938-21.332031 0-11.785157 9.550781-21.335938 21.335938-21.335938zm0 0" fill="#7c534f"/><path d="m106.832031 426.667969c0 11.78125-9.550781 21.332031-21.332031 21.332031s-21.332031-9.550781-21.332031-21.332031c0-11.785157 9.550781-21.335938 21.332031-21.335938s21.332031 9.550781 21.332031 21.335938zm0 0" fill="#93716e"/><path d="m42.832031 362.667969h106.667969c11.78125 0 21.332031 9.550781 21.332031 21.332031s-9.550781 21.332031-21.332031 21.332031h-106.667969c-11.78125 0-21.332031-9.550781-21.332031-21.332031s9.550781-21.332031 21.332031-21.332031zm0 0" fill="#653430"/><path d="m42.832031 362.667969h64c11.785157 0 21.335938 9.550781 21.335938 21.332031s-9.550781 21.332031-21.335938 21.332031h-64c-11.78125 0-21.332031-9.550781-21.332031-21.332031s9.550781-21.332031 21.332031-21.332031zm0 0" fill="#7c534f"/><path d="m85.5 384c0 11.78125-9.550781 21.332031-21.332031 21.332031-11.785157 0-21.335938-9.550781-21.335938-21.332031s9.550781-21.332031 21.335938-21.332031c11.78125 0 21.332031 9.550781 21.332031 21.332031zm0 0" fill="#93716e"/><path d="m213.5 0h-149.332031c-11.785157 0-21.335938 9.550781-21.335938 21.332031v42.667969h192v-42.667969c0-11.78125-9.550781-21.332031-21.332031-21.332031zm0 0" fill="#86db74"/><path d="m106.832031 0c11.785157 0 21.335938 9.550781 21.335938 21.332031v21.335938c0 11.78125-9.550781 21.332031-21.335938 21.332031-11.78125 0-21.332031-9.550781-21.332031-21.332031v-21.335938c0-11.78125 9.550781-21.332031 21.332031-21.332031zm0 0" fill="#b9eaaa"/><path d="m106.832031 160c0 17.671875-14.324219 32-32 32-17.671875 0-32-14.328125-32-32s14.328125-32 32-32c17.675781 0 32 14.328125 32 32zm0 0" fill="#fad4d2"/><path d="m234.832031 405.332031h106.667969c11.78125 0 21.332031 9.550781 21.332031 21.335938 0 11.78125-9.550781 21.332031-21.332031 21.332031h-106.667969c-11.78125 0-21.332031-9.550781-21.332031-21.332031 0-11.785157 9.550781-21.335938 21.332031-21.335938zm0 0" fill="#3e190c"/><path d="m234.832031 405.332031h64c11.785157 0 21.335938 9.550781 21.335938 21.335938 0 11.78125-9.550781 21.332031-21.335938 21.332031h-64c-11.78125 0-21.332031-9.550781-21.332031-21.332031 0-11.785157 9.550781-21.335938 21.332031-21.335938zm0 0" fill="#653430"/><path d="m277.5 426.667969c0 11.78125-9.550781 21.332031-21.332031 21.332031-11.785157 0-21.335938-9.550781-21.335938-21.332031 0-11.785157 9.550781-21.335938 21.335938-21.335938 11.78125 0 21.332031 9.550781 21.332031 21.335938zm0 0" fill="#7c534f"/><path d="m213.5 362.667969h106.667969c11.78125 0 21.332031 9.550781 21.332031 21.332031s-9.550781 21.332031-21.332031 21.332031h-106.667969c-11.78125 0-21.332031-9.550781-21.332031-21.332031s9.550781-21.332031 21.332031-21.332031zm0 0" fill="#3e190c"/><path d="m213.5 362.667969h64c11.78125 0 21.332031 9.550781 21.332031 21.332031s-9.550781 21.332031-21.332031 21.332031h-64c-11.78125 0-21.332031-9.550781-21.332031-21.332031s9.550781-21.332031 21.332031-21.332031zm0 0" fill="#653430"/><path d="m256.167969 384c0 11.78125-9.550781 21.332031-21.335938 21.332031-11.78125 0-21.332031-9.550781-21.332031-21.332031s9.550781-21.332031 21.332031-21.332031c11.785157 0 21.335938 9.550781 21.335938 21.332031zm0 0" fill="#7c534f"/><path d="m213.5 320h106.667969c11.78125 0 21.332031 9.550781 21.332031 21.332031 0 11.785157-9.550781 21.335938-21.332031 21.335938h-106.667969c-11.78125 0-21.332031-9.550781-21.332031-21.335938 0-11.78125 9.550781-21.332031 21.332031-21.332031zm0 0" fill="#3e190c"/><path d="m213.5 320h64c11.78125 0 21.332031 9.550781 21.332031 21.332031 0 11.785157-9.550781 21.335938-21.332031 21.335938h-64c-11.78125 0-21.332031-9.550781-21.332031-21.335938 0-11.78125 9.550781-21.332031 21.332031-21.332031zm0 0" fill="#653430"/><path d="m256.167969 341.332031c0 11.785157-9.550781 21.335938-21.335938 21.335938-11.78125 0-21.332031-9.550781-21.332031-21.335938 0-11.78125 9.550781-21.332031 21.332031-21.332031 11.785157 0 21.335938 9.550781 21.335938 21.332031zm0 0" fill="#7c534f"/><path d="m277.5 298.667969c0 11.78125-9.550781 21.332031-21.332031 21.332031-11.785157 0-21.335938-9.550781-21.335938-21.332031 0-11.785157 9.550781-21.335938 21.335938-21.335938 11.78125 0 21.332031 9.550781 21.332031 21.335938zm0 0" fill="#7c534f"/><path d="m234.832031 277.332031h106.667969c11.78125 0 21.332031 9.550781 21.332031 21.335938 0 11.78125-9.550781 21.332031-21.332031 21.332031h-106.667969c-11.78125 0-21.332031-9.550781-21.332031-21.332031 0-11.785157 9.550781-21.335938 21.332031-21.335938zm0 0" fill="#3e190c"/><path d="m234.832031 277.332031h64c11.785157 0 21.335938 9.550781 21.335938 21.335938 0 11.78125-9.550781 21.332031-21.335938 21.332031h-64c-11.78125 0-21.332031-9.550781-21.332031-21.332031 0-11.785157 9.550781-21.335938 21.332031-21.335938zm0 0" fill="#653430"/><path d="m277.5 298.667969c0 11.78125-9.550781 21.332031-21.332031 21.332031-11.785157 0-21.335938-9.550781-21.335938-21.332031 0-11.785157 9.550781-21.335938 21.335938-21.335938 11.78125 0 21.332031 9.550781 21.332031 21.335938zm0 0" fill="#7c534f"/><path d="m74.832031 213.332031c17.675781 0 32 14.328125 32 32v160c0 17.675781-14.324219 32-32 32-17.671875 0-32-14.324219-32-32v-160c0-17.671875 14.328125-32 32-32zm0 0" fill="#fad4d2"/><g fill="#3e190c"><path d="m192.167969 266.667969c0 5.890625-4.777344 10.664062-10.667969 10.664062s-10.667969-4.773437-10.667969-10.664062 4.777344-10.667969 10.667969-10.667969 10.667969 4.777344 10.667969 10.667969zm0 0"/><path d="m128.167969 288c0 5.890625-4.777344 10.667969-10.667969 10.667969s-10.667969-4.777344-10.667969-10.667969 4.777344-10.667969 10.667969-10.667969 10.667969 4.777344 10.667969 10.667969zm0 0"/><path d="m149.5 245.332031c0 5.890625-4.777344 10.667969-10.667969 10.667969s-10.664062-4.777344-10.664062-10.667969 4.773437-10.664062 10.664062-10.664062 10.667969 4.773437 10.667969 10.664062zm0 0"/><path d="m170.832031 309.332031c0 5.890625-4.773437 10.667969-10.664062 10.667969s-10.667969-4.777344-10.667969-10.667969 4.777344-10.664062 10.667969-10.664062 10.664062 4.773437 10.664062 10.664062zm0 0"/><path d="m128.167969 330.667969c0 5.890625-4.777344 10.664062-10.667969 10.664062s-10.667969-4.773437-10.667969-10.664062 4.777344-10.667969 10.667969-10.667969 10.667969 4.777344 10.667969 10.667969zm0 0"/></g></svg>