<svg height="426pt" viewBox="0 0 426.01833 426" width="426pt" xmlns="http://www.w3.org/2000/svg"><path d="m384 170.027344c0-21.332032-21.332031-21.332032-21.332031-21.332032-42.667969 0-85.335938-42.667968-85.335938-85.335937 0 0 0-21.332031-21.332031-21.332031-16.925781 0-33.851562-13.429688-40.121094-29.632813-3.328125-8.0625-11.492187-13.046875-20.183594-12.316406-111.535156 9.128906-198.777343 104.054687-195.6132808 218.660156 3.0781248 111.320313 95.8789068 204.125 207.1992188 207.207031 114.605469 3.171876 209.539062-84.074218 218.667969-195.613281.730469-8.691406-4.253907-16.855469-12.316407-20.183593-16.203124-6.269532-29.632812-23.195313-29.632812-40.121094zm0 0" fill="#3e190c"/><path d="m.0820312 218.738281c2.9374998 106.1875 87.5585938 195.332031 191.9765628 206.015625 101.957031-10.183594 182.835937-91.945312 191.222656-194.421875.730469-8.691406-4.25-16.855469-12.316406-20.183593-16.203125-6.269532-29.632813-23.195313-29.632813-40.121094 0-21.332032-21.332031-21.332032-21.332031-21.332032-42.667969 0-85.332031-42.667968-85.332031-85.335937 0 0 0-21.332031-21.335938-21.332031-16.925781 0-33.847656-13.429688-40.121093-29.632813-1.289063-3.089843-3.386719-5.777343-6.074219-7.777343-97.449219 21.554687-169.941407 109.53125-167.0546878 214.121093zm0 0" fill="#653430"/><g fill="#3e190c"><path d="m384 287.359375c0 17.675781-14.328125 32-32 32s-32-14.324219-32-32c0-17.671875 14.328125-32 32-32s32 14.328125 32 32zm0 0"/><path d="m192 180.695312c0 17.671876-14.328125 32-32 32s-32-14.328124-32-32c0-17.675781 14.328125-32 32-32s32 14.324219 32 32zm0 0"/><path d="m128 308.695312c0 17.671876-14.328125 32-32 32s-32-14.328124-32-32c0-17.675781 14.328125-32 32-32s32 14.324219 32 32zm0 0"/><path d="m85.332031 148.695312c0 11.78125-9.550781 21.332032-21.332031 21.332032s-21.332031-9.550782-21.332031-21.332032c0-11.785156 9.550781-21.335937 21.332031-21.335937s21.332031 9.550781 21.332031 21.335937zm0 0"/><path d="m213.332031 42.027344c0 11.78125-9.550781 21.332031-21.332031 21.332031s-21.332031-9.550781-21.332031-21.332031 9.550781-21.332032 21.332031-21.332032 21.332031 9.550782 21.332031 21.332032zm0 0"/><path d="m234.667969 362.027344c0 11.78125-9.550781 21.332031-21.335938 21.332031-11.78125 0-21.332031-9.550781-21.332031-21.332031s9.550781-21.332032 21.332031-21.332032c11.785157 0 21.335938 9.550782 21.335938 21.332032zm0 0"/><path d="m298.667969 191.359375c0 11.785156-9.550781 21.335937-21.335938 21.335937-11.78125 0-21.332031-9.550781-21.332031-21.335937 0-11.78125 9.550781-21.332031 21.332031-21.332031 11.785157 0 21.335938 9.550781 21.335938 21.332031zm0 0"/></g></svg>