<svg height="426pt" viewBox="0 0 426 426.66725" width="426pt" xmlns="http://www.w3.org/2000/svg"><path d="m405.667969 192c0 106.039062-85.960938 192-192 192-106.039063 0-192-85.960938-192-192s85.960937-192 192-192c106.039062 0 192 85.960938 192 192zm0 0" fill="#3e190c"/><path d="m252.59375 46.40625c-40.035156-40.03125-113.792969-31.179688-164.746094 19.773438-50.953125 50.953124-59.804687 124.714843-19.773437 164.746093s113.792969 31.179688 164.746093-19.773437c50.953126-50.953125 59.804688-124.710938 19.773438-164.746094zm0 0" fill="#653430"/><path d="m180.9375 54.0625c-18.199219-18.195312-51.726562-14.171875-74.886719 8.988281-23.160156 23.160157-27.183593 56.6875-8.988281 74.886719 18.199219 18.195312 51.726562 14.171875 74.886719-8.988281 23.160156-23.160157 27.183593-56.6875 8.988281-74.886719zm0 0" fill="#7c534f"/><path d="m320.332031 106.667969h42.667969c11.78125 0 21.332031 9.550781 21.332031 21.332031s-9.550781 21.332031-21.332031 21.332031h-42.667969c-11.78125 0-21.332031-9.550781-21.332031-21.332031s9.550781-21.332031 21.332031-21.332031zm0 0" fill="#250700"/><path d="m277.667969 42.667969h42.664062c11.785157 0 21.335938 9.550781 21.335938 21.332031s-9.550781 21.332031-21.335938 21.332031h-42.664062c-11.78125 0-21.335938-9.550781-21.335938-21.332031s9.554688-21.332031 21.335938-21.332031zm0 0" fill="#250700"/><g fill="#3e190c"><path d="m107 85.332031h42.667969c11.78125 0 21.332031 9.550781 21.332031 21.335938 0 11.78125-9.550781 21.332031-21.332031 21.332031h-42.667969c-11.78125 0-21.332031-9.550781-21.332031-21.332031 0-11.785157 9.550781-21.335938 21.332031-21.335938zm0 0"/><path d="m235 21.332031v42.667969c0 11.78125-9.550781 21.332031-21.332031 21.332031s-21.335938-9.550781-21.335938-21.332031v-42.667969c0-11.78125 9.554688-21.332031 21.335938-21.332031s21.332031 9.550781 21.332031 21.332031zm0 0"/><path d="m64.332031 192c-5.65625.007812-11.085937-2.242188-15.082031-6.25l-21.332031-21.332031c-8.332031-8.332031-8.332031-21.835938 0-30.167969 8.328125-8.332031 21.835937-8.332031 30.164062 0l21.335938 21.332031c6.097656 6.101563 7.921875 15.277344 4.621093 23.25-3.300781 7.96875-11.078124 13.167969-19.707031 13.167969zm0 0"/><path d="m128.332031 64c-8.625 0-16.402343-5.199219-19.703125-13.167969-3.304687-7.972656-1.480468-17.148437 4.621094-23.25l21.332031-21.332031c8.332031-8.332031 21.839844-8.332031 30.167969 0 8.332031 8.332031 8.332031 21.835938 0 30.167969l-21.332031 21.332031c-3.996094 4.007812-9.425781 6.257812-15.085938 6.25zm0 0"/><path d="m192.332031 128c11.785157 0 21.335938 9.550781 21.335938 21.332031v21.335938c0 11.78125-9.550781 21.332031-21.335938 21.332031-11.78125 0-21.332031-9.550781-21.332031-21.332031v-21.335938c0-11.78125 9.550781-21.332031 21.332031-21.332031zm0 0"/><path d="m213.667969 106.667969c0-11.785157 9.550781-21.335938 21.332031-21.335938h21.332031c11.785157 0 21.335938 9.550781 21.335938 21.335938 0 11.78125-9.550781 21.332031-21.335938 21.332031h-21.332031c-11.78125 0-21.332031-9.550781-21.332031-21.332031zm0 0"/></g><path d="m277.667969 213.332031c-5.660157.007813-11.089844-2.242187-15.085938-6.25l-21.332031-21.332031c-8.335938-8.328125-8.339844-21.839844-.007812-30.175781 8.332031-8.332031 21.847656-8.328125 30.175781.007812l21.332031 21.335938c6.101562 6.101562 7.925781 15.273437 4.625 23.246093-3.304688 7.96875-11.082031 13.167969-19.707031 13.167969zm0 0" fill="#250700"/><path d="m320.332031 213.332031c-.003906-5.65625 2.246094-11.085937 6.25-15.082031l21.335938-21.332031c8.328125-8.339844 21.839843-8.34375 30.171875-.007813 8.335937 8.332032 8.332031 21.84375-.007813 30.171875l-21.332031 21.335938c-6.101562 6.097656-15.277344 7.921875-23.246094 4.621093-7.972656-3.300781-13.167968-11.078124-13.171875-19.707031zm0 0" fill="#250700"/><path d="m384.332031 192c-21.332031 0-42.664062 21.332031-42.664062 21.332031s-21.335938-21.332031-42.667969-21.332031-42.667969 21.332031-42.667969 21.332031-21.332031-21.332031-42.664062-21.332031c-21.335938 0-42.667969 21.332031-42.667969 21.332031s-21.332031-21.332031-42.667969-21.332031c-21.332031 0-42.664062 21.332031-42.664062 21.332031s-21.335938-21.332031-42.667969-21.332031-42.667969 21.332031-42.667969 21.332031l56.859375 198.445313c4.320313 9.148437 13.550782 14.957031 23.667969 14.890625 12.664063-.027344 23.574219-8.933594 26.140625-21.335938 0 11.78125 14.328125 21.335938 32 21.335938s32-9.554688 32-21.335938c0 11.78125 19.101562 21.335938 42.667969 21.335938 23.5625 0 42.664062-9.554688 42.664062-21.335938 0 11.78125 14.328125 21.335938 32 21.335938 17.675781 0 32-9.554688 32-21.335938 2.613281 12.375 13.496094 21.253907 26.140625 21.335938 10.117188.066406 19.347656-5.742188 23.664063-14.890625l56.863281-198.445313s-21.332031-21.332031-42.667969-21.332031zm0 0" fill="#b80900"/><path d="m213.667969 192c-21.335938 0-42.667969 21.332031-42.667969 21.332031s-21.332031-21.332031-42.667969-21.332031c-21.332031 0-42.664062 21.332031-42.664062 21.332031l21.332031 192c0 11.78125 14.328125 21.335938 32 21.335938s32-9.554688 32-21.335938c0 11.78125 19.101562 21.335938 42.667969 21.335938 23.5625 0 42.664062-9.554688 42.664062-21.335938v-192s-21.332031-21.332031-42.664062-21.332031zm0 0" fill="#e92c24"/></svg>