<svg height="469pt" viewBox="-42 0 469 469.33439" width="469pt" xmlns="http://www.w3.org/2000/svg"><path d="m192.167969 0c82.472656 0 149.332031 66.859375 149.332031 149.335938v234.664062h-298.664062v-234.664062c0-82.476563 66.855468-149.335938 149.332031-149.335938zm0 0" fill="#7c534f"/><path d="m42.835938 213.335938h298.664062v170.664062h-298.664062zm0 0" fill="#653430"/><path d="m192.167969 341.335938c78.148437 0 134.875 17.453124 165.613281 30.035156 16.007812 6.5625 26.441406 22.171875 26.386719 39.472656v37.15625c0 11.78125-9.550781 21.335938-21.332031 21.335938h-341.335938c-11.78125 0-21.332031-9.554688-21.332031-21.335938v-37.15625c-.054688-17.300781 10.378906-32.910156 26.386719-39.472656 30.734374-12.582032 87.460937-30.035156 165.613281-30.035156zm0 0" fill="#f24c45"/><path d="m128.167969 298.667969h128v64c0 35.347656-28.65625 64-64 64-35.347657 0-64-28.652344-64-64zm0 0" fill="#e8a073"/><path d="m170.835938 341.335938c11.78125 0 21.332031 9.550781 21.332031 21.332031v21.332031c0 11.78125-9.550781 21.335938-21.332031 21.335938-11.785157 0-21.335938-9.554688-21.335938-21.335938v-21.332031c0-11.78125 9.550781-21.332031 21.335938-21.332031zm0 0" fill="#f4ba93"/><path d="m213.5 362.667969c15.792969-.039063 31.003906-5.960938 42.667969-16.609375v-47.390625h-106.667969c0 35.347656 28.65625 64 64 64zm0 0" fill="#e18850"/><path d="m64.167969 170.667969c11.78125 0 21.332031 9.550781 21.332031 21.332031v42.667969c0 11.78125-9.550781 21.332031-21.332031 21.332031s-21.332031-9.550781-21.332031-21.332031v-42.667969c0-11.78125 9.550781-21.332031 21.332031-21.332031zm0 0" fill="#f4ba93"/><path d="m320.167969 256c-11.78125 0-21.332031-9.550781-21.332031-21.332031v-42.667969c0-11.78125 9.550781-21.332031 21.332031-21.332031s21.332031 9.550781 21.332031 21.332031v42.667969c0 11.78125-9.550781 21.332031-21.332031 21.332031zm0 0" fill="#e8a073"/><path d="m192.167969 42.667969c58.910156 0 106.667969 47.757812 106.667969 106.667969v85.332031c0 58.910156-47.757813 106.667969-106.667969 106.667969-58.910157 0-106.667969-47.757813-106.667969-106.667969v-85.332031c0-58.910157 47.757812-106.667969 106.667969-106.667969zm0 0" fill="#f4ba93"/><path d="m149.5 202.667969c0 5.890625-4.773438 10.667969-10.664062 10.667969-5.894532 0-10.667969-4.777344-10.667969-10.667969s4.773437-10.667969 10.667969-10.667969c5.890624 0 10.664062 4.777344 10.664062 10.667969zm0 0" fill="#7c534f"/><path d="m256.167969 202.667969c0 5.890625-4.777344 10.667969-10.667969 10.667969s-10.664062-4.777344-10.664062-10.667969 4.773437-10.667969 10.664062-10.667969 10.667969 4.777344 10.667969 10.667969zm0 0" fill="#7c534f"/><g fill="#653430"><path d="m64.167969 426.667969h256c11.78125 0 21.332031 9.550781 21.332031 21.332031v21.335938h-298.664062v-21.335938c0-11.78125 9.550781-21.332031 21.332031-21.332031zm0 0"/><path d="m85.5 341.335938c11.78125 0 21.335938 9.550781 21.335938 21.332031v106.667969h-42.667969v-106.667969c0-11.78125 9.550781-21.332031 21.332031-21.332031zm0 0"/><path d="m298.835938 341.335938c11.78125 0 21.332031 9.550781 21.332031 21.332031v106.667969h-42.667969v-106.667969c0-11.78125 9.550781-21.332031 21.335938-21.332031zm0 0"/></g><path d="m106.835938 448c0 11.78125-9.554688 21.335938-21.335938 21.335938s-21.332031-9.554688-21.332031-21.335938 9.550781-21.332031 21.332031-21.332031 21.335938 9.550781 21.335938 21.332031zm0 0" fill="#3e190c"/><path d="m320.167969 448c0 11.78125-9.550781 21.335938-21.332031 21.335938-11.785157 0-21.335938-9.554688-21.335938-21.335938s9.550781-21.332031 21.335938-21.332031c11.78125 0 21.332031 9.550781 21.332031 21.332031zm0 0" fill="#3e190c"/><path d="m188.230469.0585938c-70.054688 2.1054682-124.0625 63.2226562-124.0625 133.3085942v28.464843c0 19.316407 7.671875 37.84375 21.332031 51.503907v-21.335938s21.335938-21.332031 21.335938-64c0 0 21.332031-21.332031 85.332031-21.332031s85.332031 21.332031 85.332031 21.332031c0 42.667969 21.335938 64 21.335938 64v21.335938c13.65625-13.660157 21.332031-32.1875 21.332031-51.503907v-33.832031c0-34.628906-14.03125-67.78125-38.894531-91.890625-24.859376-24.109375-58.429688-37.113281-93.042969-36.0507812zm0 0" fill="#7c534f"/><path d="m85.5 149.335938s42.667969-42.667969 106.667969-42.667969 106.667969 42.667969 106.667969 42.667969v-42.667969s-21.335938-64-106.667969-64-106.667969 64-106.667969 64zm0 0" fill="#cc1911"/><path d="m149.5 256c0 11.78125-9.550781 21.335938-21.332031 21.335938s-21.332031-9.554688-21.332031-21.335938 9.550781-21.332031 21.332031-21.332031 21.332031 9.550781 21.332031 21.332031zm0 0" fill="#f17d77"/><path d="m277.5 256c0 11.78125-9.550781 21.335938-21.332031 21.335938s-21.332031-9.554688-21.332031-21.335938 9.550781-21.332031 21.332031-21.332031 21.332031 9.550781 21.332031 21.332031zm0 0" fill="#f17d77"/><path d="m247.15625 117.582031c11.820312-19.46875 12.027344-43.851562.53125-63.515625-14.5-6.730468-32.648438-11.398437-55.519531-11.398437-85.332031 0-106.667969 64-106.667969 64v42.667969s42.667969-42.667969 106.667969-42.667969c18.855469.121093 37.515625 3.828125 54.988281 10.914062zm0 0" fill="#f24c45"/><path d="m192.167969 85.335938c-.035157-17.996094-11.386719-34.023438-28.347657-40.027344-25.207031 4.898437-42.792968 15.988281-54.875 27.425781-6.175781 18.609375 1.507813 39 18.421876 48.914063 18.394531-8.644532 38.3125-13.566407 58.613281-14.488282 4.011719-6.574218 6.152343-14.121094 6.1875-21.824218zm0 0" fill="#f17d77"/><path d="m170.835938 234.667969h42.664062s0 21.332031-21.332031 21.332031-21.332031-21.332031-21.332031-21.332031zm0 0" fill="#e8a073"/><path d="m149.5 128h21.335938c11.78125 0 21.332031 9.550781 21.332031 21.335938 0 11.78125-9.550781 21.332031-21.332031 21.332031h-21.335938c-11.78125 0-21.332031-9.550781-21.332031-21.332031 0-11.785157 9.550781-21.335938 21.332031-21.335938zm0 0" fill="#f6cbaf"/></svg>