<svg height="426.66666pt" viewBox="0 0 426.66666 426.66666" width="426.66666pt" xmlns="http://www.w3.org/2000/svg"><path d="m426.667969 213.332031c0 117.820313-95.515625 213.335938-213.335938 213.335938-117.820312 0-213.332031-95.515625-213.332031-213.335938 0-117.820312 95.511719-213.332031 213.332031-213.332031 117.820313 0 213.335938 95.511719 213.335938 213.332031zm0 0" fill="#f9dcc9"/><path d="m426.667969 213.332031c0 117.820313-95.515625 213.335938-213.335938 213.335938-117.820312 0-213.332031-95.515625-213.332031-213.335938 0-117.820312 95.511719-213.332031 213.332031-213.332031 117.820313 0 213.335938 95.511719 213.335938 213.332031zm0 0" fill="#f6cbaf"/><path d="m384 213.332031c0 106.039063-85.960938 192-192 192s-192-85.960937-192-192c0-106.039062 85.960938-192 192-192s192 85.960938 192 192zm0 0" fill="#f9dcc9"/><path d="m214.980469 62.355469c-34.09375-34.09375-100.671875-22.789063-148.710938 25.246093-48.035156 48.039063-59.339843 114.617188-25.25 148.710938 34.09375 34.09375 100.671875 22.789062 148.710938-25.25 48.035156-48.035156 59.339843-114.617188 25.25-148.707031zm0 0" fill="#fcede3"/><path d="m298.667969 192c0 58.910156-47.757813 106.667969-106.667969 106.667969s-106.667969-47.757813-106.667969-106.667969 47.757813-106.667969 106.667969-106.667969 106.667969 47.757813 106.667969 106.667969zm0 0" fill="#c35422"/><path d="m256 192c0 47.128906-38.203125 85.332031-85.332031 85.332031-47.128907 0-85.335938-38.203125-85.335938-85.332031s38.207031-85.332031 85.335938-85.332031c47.128906 0 85.332031 38.203125 85.332031 85.332031zm0 0" fill="#db7230"/><path d="m213.332031 128c0 11.78125-9.550781 21.332031-21.332031 21.332031s-21.332031-9.550781-21.332031-21.332031 9.550781-21.332031 21.332031-21.332031 21.332031 9.550781 21.332031 21.332031zm0 0" fill="#e8a073"/><path d="m164.792969 155.207031c-10.203125-10.203125-30.171875-6.777343-44.601563 7.652344-14.425781 14.429687-17.851562 34.398437-7.652344 44.601563 10.203126 10.199218 30.171876 6.773437 44.601563-7.652344 14.429687-14.429688 17.855469-34.398438 7.652344-44.601563zm0 0" fill="#e8a073"/><g fill="#250700"><path d="m362.667969 266.667969c0 5.890625-4.777344 10.664062-10.667969 10.664062s-10.667969-4.773437-10.667969-10.664062 4.777344-10.667969 10.667969-10.667969 10.667969 4.777344 10.667969 10.667969zm0 0"/><path d="m298.667969 309.332031c0 5.890625-4.777344 10.667969-10.667969 10.667969s-10.667969-4.777344-10.667969-10.667969 4.777344-10.664062 10.667969-10.664062 10.667969 4.773437 10.667969 10.664062zm0 0"/><path d="m384 160c0 5.890625-4.777344 10.667969-10.667969 10.667969s-10.664062-4.777344-10.664062-10.667969 4.773437-10.667969 10.664062-10.667969 10.667969 4.777344 10.667969 10.667969zm0 0"/><path d="m234.667969 202.667969c0 5.890625-4.777344 10.664062-10.667969 10.664062s-10.667969-4.773437-10.667969-10.664062 4.777344-10.667969 10.667969-10.667969 10.667969 4.777344 10.667969 10.667969zm0 0"/><path d="m128 117.332031c0 5.890625-4.777344 10.667969-10.667969 10.667969s-10.664062-4.777344-10.664062-10.667969 4.773437-10.664062 10.664062-10.664062 10.667969 4.773437 10.667969 10.664062zm0 0"/><path d="m277.332031 96c0 5.890625-4.773437 10.667969-10.664062 10.667969s-10.667969-4.777344-10.667969-10.667969 4.777344-10.667969 10.667969-10.667969 10.664062 4.777344 10.664062 10.667969zm0 0"/><path d="m170.667969 266.667969c0 5.890625-4.777344 10.664062-10.667969 10.664062s-10.667969-4.773437-10.667969-10.664062 4.777344-10.667969 10.667969-10.667969 10.667969 4.777344 10.667969 10.667969zm0 0"/><path d="m149.332031 352c0 5.890625-4.773437 10.667969-10.664062 10.667969s-10.667969-4.777344-10.667969-10.667969 4.777344-10.667969 10.667969-10.667969 10.664062 4.777344 10.664062 10.667969zm0 0"/><path d="m277.332031 373.332031c0 5.890625-4.773437 10.667969-10.664062 10.667969s-10.667969-4.777344-10.667969-10.667969 4.777344-10.664062 10.667969-10.664062 10.664062 4.773437 10.664062 10.664062zm0 0"/><path d="m85.332031 245.332031c0 5.890625-4.773437 10.667969-10.664062 10.667969s-10.667969-4.777344-10.667969-10.667969 4.777344-10.664062 10.667969-10.664062 10.664062 4.773437 10.664062 10.664062zm0 0"/></g></svg>