<svg height="469pt" viewBox="-85 0 469 469.33334" width="469pt" xmlns="http://www.w3.org/2000/svg"><path d="m277.5 128c0 70.691406-57.308594 128-128 128s-128-57.308594-128-128 57.308594-128 128-128 128 57.308594 128 128zm0 0" fill="#e92c24"/><path d="m170.832031 181.332031c0 5.890625-4.773437 10.667969-10.664062 10.667969s-10.667969-4.777344-10.667969-10.667969 4.777344-10.664062 10.667969-10.664062 10.664062 4.773437 10.664062 10.664062zm0 0" fill="#b80900"/><path d="m160.164062 32.003906c-17.671874-17.675781-51.101562-12.898437-74.667968 10.664063-23.5625 23.566406-28.339844 56.996093-10.664063 74.667969 17.671875 17.671874 51.101563 12.898437 74.664063-10.667969 23.566406-23.5625 28.339844-56.992188 10.667968-74.664063zm0 0" fill="#f24c45"/><path d="m102.566406 46.933594c-7.070312-7.066406-20.441406-5.15625-29.867187 4.265625-9.421875 9.425781-11.332031 22.796875-4.265625 29.867187 7.070312 7.066406 20.441406 5.15625 29.863281-4.269531 9.425781-9.421875 11.335937-22.792969 4.269531-29.863281zm0 0" fill="#f6b0ad"/><path d="m121.894531 448.945312-79.0625-256.945312h213.335938l-79.0625 256.945312c-3.726563 12.117188-14.925781 20.386719-27.605469 20.386719s-23.878906-8.269531-27.605469-20.386719zm0 0" fill="#e18850"/><path d="m42.832031 192 78.769531 256h6.566407l78.769531-256zm0 0" fill="#e8a073"/><path d="m234.832031 234.667969c-19.5 0-30.082031-10.59375-36.414062-16.917969-4.417969-4.417969-4.625-4.417969-6.25-4.417969s-1.835938 0-6.25 4.417969c-6.335938 6.324219-16.917969 16.917969-36.417969 16.917969s-30.082031-10.59375-36.417969-16.917969c-4.414062-4.417969-4.625-4.417969-6.25-4.417969s-1.832031 0-6.25 4.417969c-6.332031 6.324219-16.914062 16.917969-36.414062 16.917969s-30.085938-10.59375-36.417969-16.917969c-4.417969-4.417969-4.625-4.417969-6.25-4.417969-11.78125 0-21.332031-9.550781-21.332031-21.332031s9.550781-21.332031 21.332031-21.332031c19.5 0 30.082031 10.59375 36.417969 16.914062 4.414062 4.417969 4.625 4.417969 6.25 4.417969s1.832031 0 6.25-4.417969c6.332031-6.320312 16.914062-16.914062 36.414062-16.914062s30.085938 10.59375 36.417969 16.914062c4.417969 4.417969 4.625 4.417969 6.25 4.417969s1.832031 0 6.25-4.417969c6.332031-6.320312 16.917969-16.914062 36.417969-16.914062s30.082031 10.59375 36.414062 16.914062c4.417969 4.417969 4.625 4.417969 6.25 4.417969s1.835938 0 6.25-4.417969c6.335938-6.320312 16.917969-16.914062 36.417969-16.914062 11.777344.007812 21.320312 9.554687 21.320312 21.332031s-9.542968 21.324219-21.320312 21.332031c-1.625 0-1.832031 0-6.25 4.417969-6.332031 6.324219-16.917969 16.917969-36.417969 16.917969zm0 0" fill="#f24c45"/><path d="m149.5 234.667969c-19.5 0-30.082031-10.59375-36.417969-16.917969-4.414062-4.417969-4.625-4.417969-6.25-4.417969s-1.832031 0-6.25 4.417969c-6.332031 6.324219-16.914062 16.917969-36.414062 16.917969s-30.085938-10.59375-36.417969-16.917969c-4.417969-4.417969-4.625-4.417969-6.25-4.417969-11.78125 0-21.332031-9.550781-21.332031-21.332031s9.550781-21.332031 21.332031-21.332031c19.5 0 30.082031 10.59375 36.417969 16.914062 4.414062 4.417969 4.625 4.417969 6.25 4.417969s1.832031 0 6.25-4.417969c6.332031-6.320312 16.914062-16.914062 36.414062-16.914062s30.085938 10.59375 36.417969 16.914062c4.417969 4.417969 4.625 4.417969 6.25 4.417969s1.832031 0 6.25-4.417969c6.332031-6.320312 16.917969-16.914062 36.417969-16.914062 11.78125 0 21.332031 9.550781 21.332031 21.332031s-9.550781 21.332031-21.332031 21.332031c-1.625 0-1.835938 0-6.25 4.417969-6.335938 6.324219-16.917969 16.917969-36.417969 16.917969zm0 0" fill="#f17d77"/><path d="m64.167969 234.667969c-11.789063.007812-21.347657-9.546875-21.347657-21.335938 0-11.785156 9.558594-21.339843 21.347657-21.332031 1.625 0 1.832031 0 6.25-4.417969 6.332031-6.320312 16.914062-16.914062 36.414062-16.914062 11.785157 0 21.335938 9.550781 21.335938 21.332031s-9.550781 21.332031-21.335938 21.332031c-1.625 0-1.832031 0-6.25 4.417969-6.332031 6.324219-16.914062 16.917969-36.414062 16.917969zm0 0" fill="#f6b0ad"/><path d="m192.167969 117.332031c0 5.890625-4.777344 10.667969-10.667969 10.667969s-10.667969-4.777344-10.667969-10.667969 4.777344-10.664062 10.667969-10.664062 10.667969 4.773437 10.667969 10.664062zm0 0" fill="#b80900"/><path d="m234.832031 74.667969c0 5.890625-4.773437 10.664062-10.664062 10.664062s-10.667969-4.773437-10.667969-10.664062 4.777344-10.667969 10.667969-10.667969 10.664062 4.777344 10.664062 10.667969zm0 0" fill="#b80900"/><path d="m170.832031 53.332031c0 5.890625-4.773437 10.667969-10.664062 10.667969s-10.667969-4.777344-10.667969-10.667969 4.777344-10.664062 10.667969-10.664062 10.664062 4.773437 10.664062 10.664062zm0 0" fill="#cc1911"/><g fill="#b80900"><path d="m149.5 10.667969c0 5.890625-4.777344 10.664062-10.667969 10.664062s-10.664062-4.773437-10.664062-10.664062 4.773437-10.667969 10.664062-10.667969 10.667969 4.777344 10.667969 10.667969zm0 0"/><path d="m64.167969 160c0 5.890625-4.777344 10.667969-10.667969 10.667969s-10.667969-4.777344-10.667969-10.667969 4.777344-10.667969 10.667969-10.667969 10.667969 4.777344 10.667969 10.667969zm0 0"/><path d="m128.167969 138.667969c0 5.890625-4.777344 10.664062-10.667969 10.664062s-10.667969-4.773437-10.667969-10.664062 4.777344-10.667969 10.667969-10.667969 10.667969 4.777344 10.667969 10.667969zm0 0"/><path d="m64.167969 96c0 5.890625-4.777344 10.667969-10.667969 10.667969s-10.667969-4.777344-10.667969-10.667969 4.777344-10.667969 10.667969-10.667969 10.667969 4.777344 10.667969 10.667969zm0 0"/><path d="m234.832031 160c0 5.890625-4.773437 10.667969-10.664062 10.667969s-10.667969-4.777344-10.667969-10.667969 4.777344-10.667969 10.667969-10.667969 10.664062 4.777344 10.664062 10.667969zm0 0"/><path d="m256.167969 117.332031c0 5.890625-4.777344 10.667969-10.667969 10.667969s-10.667969-4.777344-10.667969-10.667969 4.777344-10.664062 10.667969-10.664062 10.667969 4.773437 10.667969 10.664062zm0 0"/></g><path d="m149.5 256 21.332031 21.332031-21.332031 21.335938-21.332031-21.335938zm0 0" fill="#e18850"/><path d="m149.5 426.667969 21.332031 21.332031-21.332031 21.332031-21.332031-21.332031zm0 0" fill="#db7230"/><path d="m106.832031 298.667969 21.335938 21.332031-21.335938 21.332031-21.332031-21.332031zm0 0" fill="#e18850"/><path d="m106.832031 213.332031 21.335938 21.335938-21.335938 21.332031-21.332031-21.332031zm0 0" fill="#e18850"/><path d="m62.910156 257.253906 10.039063 32.628906 12.550781-12.550781-21.332031-21.332031zm0 0" fill="#e18850"/><path d="m192.167969 213.332031 21.332031 21.335938-21.332031 21.332031-21.335938-21.332031zm0 0" fill="#db7230"/><path d="m192.167969 298.667969 21.332031 21.332031-21.332031 21.332031-21.335938-21.332031zm0 0" fill="#db7230"/><path d="m234.832031 256-21.332031 21.332031 12.550781 12.550781 10.039063-32.628906zm0 0" fill="#db7230"/><path d="m149.5 341.332031 21.332031 21.335938-21.332031 21.332031-21.332031-21.332031zm0 0" fill="#db7230"/><path d="m195.929688 387.765625-3.761719-3.765625-21.335938 21.332031 15.058594 15.058594zm0 0" fill="#db7230"/><path d="m113.109375 420.390625 15.058594-15.058594-21.335938-21.332031-3.761719 3.765625zm0 0" fill="#e18850"/></svg>