<svg height="469pt" viewBox="-42 0 469 469.37715" width="469pt" xmlns="http://www.w3.org/2000/svg"><path d="m362.855469.015625c-47.128907 0-85.335938 38.203125-85.332031 85.332031v149.332032c0 23.566406 19.101562 42.667968 42.664062 42.667968l-21.332031 149.332032c0 23.566406 19.101562 42.667968 42.667969 42.667968.417968 0 .804687-.113281 1.222656-.125.386718.011719.746094.125 1.140625.125 22.257812 0 40.300781-18.042968 40.300781-40.304687v-407.695313c0-11.78125-9.550781-21.332031-21.332031-21.332031zm0 0" fill="#f6cbaf"/><path d="m309.523438 42.679688c17.671874 0 32 14.328124 32 32v128c0 17.675781-14.328126 32-32 32-17.675782 0-32-14.324219-32-32v-128c0-17.671876 14.324218-32 32-32zm0 0" fill="#f9dcc9"/><path d="m149.523438 21.347656c-11.785157 0-21.335938 9.550782-21.335938 21.332032v85.335937h-21.332031v-106.667969c.007812-11.789062-9.546875-21.347656-21.332031-21.347656-11.789063 0-21.34375 9.558594-21.335938 21.347656v106.667969h-21.332031v-85.335937c-.007813-11.773438-9.558594-21.316407-21.332031-21.316407-11.777344 0-21.328126 9.542969-21.335938 21.316407v85.335937c0 39.207031 26.597656 71.894531 62.625 81.886719 0 0-19.957031 209.835937-19.957031 216.777344-.015625 23.578124 19.089843 42.699218 42.667969 42.699218 23.574218 0 42.679687-19.121094 42.664062-42.699218 0-6.941407-19.957031-216.777344-19.957031-216.777344 36.03125-9.992188 62.625-42.679688 62.625-81.886719v-85.335937c0-11.78125-9.550781-21.332032-21.332031-21.332032zm0 0" fill="#f6cbaf"/><path d="m67.96875 145.566406c-15.761719-15.765625-35.011719-22.078125-42.992188-14.097656-7.980468 7.980469-1.667968 27.230469 14.097657 42.996094 15.765625 15.761718 35.011719 22.074218 42.992187 14.09375 7.980469-7.980469 1.667969-27.226563-14.097656-42.992188zm0 0" fill="#f9dcc9"/></svg>