<svg height="469pt" viewBox="-42 0 469 469.33334" width="469pt" xmlns="http://www.w3.org/2000/svg"><path d="m192.167969 341.332031c78.148437 0 134.875 17.457031 165.613281 30.039063 16.007812 6.5625 26.441406 22.171875 26.386719 39.46875v37.160156c0 11.78125-9.550781 21.332031-21.335938 21.332031h-341.332031c-11.78125 0-21.332031-9.550781-21.332031-21.332031v-37.160156c-.054688-17.296875 10.378906-32.90625 26.382812-39.46875 30.738281-12.582032 87.464844-30.039063 165.617188-30.039063zm0 0" fill="#86db74"/><g fill="#653430"><path d="m64.167969 426.667969h256c11.78125 0 21.332031 9.550781 21.332031 21.332031v21.332031h-298.667969v-21.332031c0-11.78125 9.554688-21.332031 21.335938-21.332031zm0 0"/><path d="m85.5 341.332031c11.78125 0 21.332031 9.550781 21.332031 21.335938v106.664062h-42.664062v-106.664062c0-11.785157 9.550781-21.335938 21.332031-21.335938zm0 0"/><path d="m298.832031 341.332031c11.785157 0 21.335938 9.550781 21.335938 21.335938v106.664062h-42.667969v-106.664062c0-11.785157 9.550781-21.335938 21.332031-21.335938zm0 0"/></g><path d="m106.832031 448c0 11.78125-9.550781 21.332031-21.332031 21.332031s-21.332031-9.550781-21.332031-21.332031 9.550781-21.332031 21.332031-21.332031 21.332031 9.550781 21.332031 21.332031zm0 0" fill="#3e190c"/><path d="m320.167969 448c0 11.78125-9.550781 21.332031-21.335938 21.332031-11.78125 0-21.332031-9.550781-21.332031-21.332031s9.550781-21.332031 21.332031-21.332031c11.785157 0 21.335938 9.550781 21.335938 21.332031zm0 0" fill="#3e190c"/><path d="m128.167969 298.667969h128v64c0 35.34375-28.65625 64-64 64-35.347657 0-64-28.65625-64-64zm0 0" fill="#e8a073"/><path d="m170.832031 341.332031c11.785157 0 21.335938 9.550781 21.335938 21.335938v21.332031c0 11.78125-9.550781 21.332031-21.335938 21.332031-11.78125 0-21.332031-9.550781-21.332031-21.332031v-21.332031c0-11.785157 9.550781-21.335938 21.332031-21.335938zm0 0" fill="#f4ba93"/><path d="m213.5 362.667969c15.792969-.042969 31.003906-5.964844 42.667969-16.609375v-47.390625h-106.667969c0 35.34375 28.652344 64 64 64zm0 0" fill="#e18850"/><path d="m64.167969 170.667969c11.78125 0 21.332031 9.550781 21.332031 21.332031v42.667969c0 11.78125-9.550781 21.332031-21.332031 21.332031s-21.335938-9.550781-21.335938-21.332031v-42.667969c0-11.78125 9.554688-21.332031 21.335938-21.332031zm0 0" fill="#f4ba93"/><path d="m320.167969 256c-11.78125 0-21.335938-9.550781-21.335938-21.332031v-42.667969c0-11.78125 9.554688-21.332031 21.335938-21.332031s21.332031 9.550781 21.332031 21.332031v42.667969c0 11.78125-9.550781 21.332031-21.332031 21.332031zm0 0" fill="#e8a073"/><path d="m192.167969 42.667969c58.910156 0 106.664062 47.753906 106.664062 106.664062v85.335938c0 58.910156-47.753906 106.664062-106.664062 106.664062-58.910157 0-106.667969-47.753906-106.667969-106.664062v-85.335938c0-58.910156 47.757812-106.664062 106.667969-106.664062zm0 0" fill="#f4ba93"/><path d="m170.832031 234.667969h42.667969s0 21.332031-21.332031 21.332031c-21.335938 0-21.335938-21.332031-21.335938-21.332031zm0 0" fill="#e8a073"/><path d="m149.5 128h21.332031c11.785157 0 21.335938 9.550781 21.335938 21.332031 0 11.785157-9.550781 21.335938-21.335938 21.335938h-21.332031c-11.78125 0-21.332031-9.550781-21.332031-21.335938 0-11.78125 9.550781-21.332031 21.332031-21.332031zm0 0" fill="#f6cbaf"/><path d="m106.832031 128v21.332031l-21.332031 21.335938v42.664062h-21.332031v-21.332031c0-11.78125-9.550781-21.332031-21.335938-21.332031v-21.335938c0-82.472656 66.859375-149.332031 149.335938-149.332031 82.472656 0 149.332031 66.859375 149.332031 149.332031v21.335938c-11.78125 0-21.332031 9.550781-21.332031 21.332031v21.332031h-21.335938v-42.664062l-21.332031-21.335938v-21.332031c0-11.78125-9.550781-21.332031-21.332031-21.332031h-128c-11.78125 0-21.335938 9.550781-21.335938 21.332031zm0 0" fill="#7c534f"/><path d="m149.5 202.667969c0 5.890625-4.777344 10.664062-10.667969 10.664062s-10.664062-4.773437-10.664062-10.664062 4.773437-10.667969 10.664062-10.667969 10.667969 4.777344 10.667969 10.667969zm0 0" fill="#7c534f"/><path d="m256.167969 202.667969c0 5.890625-4.777344 10.664062-10.667969 10.664062s-10.667969-4.773437-10.667969-10.664062 4.777344-10.667969 10.667969-10.667969 10.667969 4.777344 10.667969 10.667969zm0 0" fill="#7c534f"/><path d="m164.609375 27.558594c-10.472656-10.472656-30.503906-7.421875-44.738281 6.8125s-17.285156 34.265625-6.8125 44.738281c10.472656 10.46875 30.503906 7.421875 44.738281-6.8125s17.285156-34.265625 6.8125-44.738281zm0 0" fill="#93716e"/></svg>