<svg height="469pt" viewBox="-42 0 469 469.33334" width="469pt" xmlns="http://www.w3.org/2000/svg"><path d="m64.167969 0h298.664062c11.785157 0 21.335938 9.550781 21.335938 21.332031v426.667969c0 11.78125-9.550781 21.332031-21.335938 21.332031h-298.664062c-11.785157 0-21.335938-9.550781-21.335938-21.332031v-426.667969c0-11.78125 9.550781-21.332031 21.335938-21.332031zm0 0" fill="#cc1911"/><path d="m64.167969 0h277.332031c11.78125 0 21.332031 9.550781 21.332031 21.332031v426.667969c0 11.78125-9.550781 21.332031-21.332031 21.332031h-277.332031c-11.785157 0-21.335938-9.550781-21.335938-21.332031v-426.667969c0-11.78125 9.550781-21.332031 21.335938-21.332031zm0 0" fill="#e92c24"/><g fill="#b80900"><path d="m42.832031 64h42.667969c11.78125 0 21.332031 9.550781 21.332031 21.332031 0 11.785157-9.550781 21.335938-21.332031 21.335938h-42.667969zm0 0"/><path d="m42.832031 149.332031h42.667969c11.78125 0 21.332031 9.550781 21.332031 21.335938 0 11.78125-9.550781 21.332031-21.332031 21.332031h-42.667969zm0 0"/><path d="m42.832031 234.667969h42.667969c11.78125 0 21.332031 9.550781 21.332031 21.332031s-9.550781 21.332031-21.332031 21.332031h-42.667969zm0 0"/><path d="m42.832031 320h42.667969c11.78125 0 21.332031 9.550781 21.332031 21.332031 0 11.785157-9.550781 21.335938-21.332031 21.335938h-42.667969zm0 0"/><path d="m42.832031 405.332031h42.667969c11.78125 0 21.332031 9.550781 21.332031 21.335938 0 11.78125-9.550781 21.332031-21.332031 21.332031h-42.667969zm0 0"/></g><path d="m21.5 42.667969h64c11.78125 0 21.332031 9.550781 21.332031 21.332031s-9.550781 21.332031-21.332031 21.332031h-64c-11.78125 0-21.332031-9.550781-21.332031-21.332031s9.550781-21.332031 21.332031-21.332031zm0 0" fill="#f4ba93"/><path d="m21.5 128h64c11.78125 0 21.332031 9.550781 21.332031 21.332031 0 11.785157-9.550781 21.335938-21.332031 21.335938h-64c-11.78125 0-21.332031-9.550781-21.332031-21.335938 0-11.78125 9.550781-21.332031 21.332031-21.332031zm0 0" fill="#f4ba93"/><path d="m21.5 213.332031h64c11.78125 0 21.332031 9.550781 21.332031 21.335938 0 11.78125-9.550781 21.332031-21.332031 21.332031h-64c-11.78125 0-21.332031-9.550781-21.332031-21.332031 0-11.785157 9.550781-21.335938 21.332031-21.335938zm0 0" fill="#f4ba93"/><path d="m21.5 298.667969h64c11.78125 0 21.332031 9.550781 21.332031 21.332031s-9.550781 21.332031-21.332031 21.332031h-64c-11.78125 0-21.332031-9.550781-21.332031-21.332031s9.550781-21.332031 21.332031-21.332031zm0 0" fill="#f4ba93"/><path d="m21.5 384h64c11.78125 0 21.332031 9.550781 21.332031 21.332031 0 11.785157-9.550781 21.335938-21.332031 21.335938h-64c-11.78125 0-21.332031-9.550781-21.332031-21.335938 0-11.78125 9.550781-21.332031 21.332031-21.332031zm0 0" fill="#f4ba93"/><path d="m42.832031 42.667969h21.335938c11.78125 0 21.332031 9.550781 21.332031 21.332031s-9.550781 21.332031-21.332031 21.332031h-21.335938c-11.78125 0-21.332031-9.550781-21.332031-21.332031s9.550781-21.332031 21.332031-21.332031zm0 0" fill="#fcede3"/><path d="m42.832031 128h21.335938c11.78125 0 21.332031 9.550781 21.332031 21.332031 0 11.785157-9.550781 21.335938-21.332031 21.335938h-21.335938c-11.78125 0-21.332031-9.550781-21.332031-21.335938 0-11.78125 9.550781-21.332031 21.332031-21.332031zm0 0" fill="#fcede3"/><path d="m42.832031 213.332031h21.335938c11.78125 0 21.332031 9.550781 21.332031 21.335938 0 11.78125-9.550781 21.332031-21.332031 21.332031h-21.335938c-11.78125 0-21.332031-9.550781-21.332031-21.332031 0-11.785157 9.550781-21.335938 21.332031-21.335938zm0 0" fill="#fcede3"/><path d="m42.832031 298.667969h21.335938c11.78125 0 21.332031 9.550781 21.332031 21.332031s-9.550781 21.332031-21.332031 21.332031h-21.335938c-11.78125 0-21.332031-9.550781-21.332031-21.332031s9.550781-21.332031 21.332031-21.332031zm0 0" fill="#fcede3"/><path d="m42.832031 384h21.335938c11.78125 0 21.332031 9.550781 21.332031 21.332031 0 11.785157-9.550781 21.335938-21.332031 21.335938h-21.335938c-11.78125 0-21.332031-9.550781-21.332031-21.335938 0-11.78125 9.550781-21.332031 21.332031-21.332031zm0 0" fill="#fcede3"/><path d="m149.5 256h128v85.332031c0 23.566407-19.101562 42.667969-42.667969 42.667969h-42.664062c-23.566407 0-42.667969-19.101562-42.667969-42.667969zm0 0" fill="#f4ba93"/><path d="m192.167969 384c-23.566407 0-42.667969-19.101562-42.667969-42.667969v-85.332031h85.332031v85.332031c0 23.566407-19.101562 42.667969-42.664062 42.667969zm0 0" fill="#f9dcc9"/><path d="m256.167969 277.332031v85.335938h32c17.671875 0 32-14.328125 32-32v-21.335938c0-17.671875-14.328125-32-32-32zm42.664062 64h-21.332031v-42.664062h21.332031zm0 0" fill="#f4ba93"/><path d="m192.167969 234.667969c0-11.785157-9.550781-21.335938-21.335938-21.335938-11.78125 0-21.332031-9.550781-21.332031-21.332031s9.550781-21.332031 21.332031-21.332031h21.335938c11.78125 0 21.332031-9.550781 21.332031-21.335938 0-11.78125 9.550781-21.332031 21.332031-21.332031 11.785157 0 21.335938-9.550781 21.335938-21.332031 0-11.785157 9.550781-21.335938 21.332031-21.335938s21.332031 9.550781 21.332031 21.335938v85.332031c0 11.78125-9.550781 21.332031-21.332031 21.332031h-21.332031c-11.785157 0-21.335938 9.550781-21.335938 21.335938 0 11.78125-9.550781 21.332031-21.332031 21.332031s-21.332031-9.550781-21.332031-21.332031zm0 0" fill="#f17d77"/><path d="m234.832031 128c-5.703125 0-11.167969 2.285156-15.175781 6.34375-4.011719 4.058594-6.226562 9.550781-6.15625 15.253906.144531 11.6875-9.644531 21.070313-21.332031 21.070313h-21.335938c-11.785156-.007813-21.347656 9.542969-21.347656 21.332031s9.5625 21.339844 21.347656 21.332031c11.785157 0 21.335938 9.550781 21.335938 21.335938.007812 11.773437 9.554687 21.316406 21.332031 21.316406s21.324219-9.542969 21.332031-21.316406c0-7.929688 4.394531-15.207031 11.414063-18.894531 6.457031-3.394532 9.921875-10.65625 9.921875-17.953126v-48.488281c0-11.78125-9.550781-21.332031-21.335938-21.332031zm0 0" fill="#f6b0ad"/></svg>