<svg height="469pt" viewBox="-106 0 469 469.33334" width="469pt" xmlns="http://www.w3.org/2000/svg"><path d="m192.167969 64v-42.667969h-128v42.667969c0 21.332031-64 64-64 149.332031v234.667969c0 11.78125 9.550781 21.332031 21.332031 21.332031h213.332031c11.785157 0 21.335938-9.550781 21.335938-21.332031v-234.667969c0-85.332031-64-128-64-149.332031zm0 0" fill="#e8a073"/><path d="m192.167969 448v-234.667969c0-85.332031-64-128-64-149.332031v-42.667969h-64v42.667969c0 21.332031-64 64-64 149.332031v234.667969c0 11.78125 9.550781 21.332031 21.332031 21.332031h149.332031c11.785157 0 21.335938-9.550781 21.335938-21.332031zm0 0" fill="#f4ba93"/><path d="m192.160156 106.667969h-127.984375c-18.167969 24.226562-42.675781 57.296875-42.675781 106.664062v192c0 11.785157 9.550781 21.335938 21.332031 21.335938h170.667969c11.78125 0 21.332031-9.550781 21.332031-21.335938v-192c0-49.367187-24.507812-82.4375-42.671875-106.664062zm0 0" fill="#f9dcc9"/><path d="m64.175781 106.667969c-18.167969 24.226562-42.675781 57.296875-42.675781 106.664062v192c0 11.785157 9.550781 21.335938 21.332031 21.335938h149.335938v-213.335938c0-47.609375-19.917969-81.914062-37.535157-106.664062zm0 0" fill="#fcede3"/><path d="m74.832031 213.332031c17.675781 0 32 14.328125 32 32v128c0 17.675781-14.324219 32-32 32-17.671875 0-32-14.324219-32-32v-128c0-17.671875 14.328125-32 32-32zm0 0" fill="#fdf6f1"/><path d="m115.234375 88.53125c-16.898437-10.023438-43.910156 4.296875-60.332031 31.988281-16.421875 27.6875-16.035156 58.261719.863281 68.28125 16.898437 10.023438 43.910156-4.296875 60.332031-31.988281 16.421875-27.6875 16.035156-58.257812-.863281-68.28125zm0 0" fill="#fdf6f1"/><path d="m64.167969 0h128c11.78125 0 21.332031 9.550781 21.332031 21.332031v21.335938h-170.667969v-21.335938c0-11.78125 9.550781-21.332031 21.335938-21.332031zm0 0" fill="#fcede3"/><path d="m85.5 0h21.332031c11.785157 0 21.335938 9.550781 21.335938 21.332031 0 11.785157-9.550781 21.335938-21.335938 21.335938h-21.332031c-11.78125 0-21.332031-9.550781-21.332031-21.335938 0-11.78125 9.550781-21.332031 21.332031-21.332031zm0 0" fill="#fdf6f1"/></svg>