<svg height="469pt" viewBox="-42 0 469 469.33334" width="469pt" xmlns="http://www.w3.org/2000/svg"><path d="m106.878906 298.667969h127.953125c11.785157 0 21.335938 9.550781 21.335938 21.332031s-9.550781 21.332031-21.335938 21.332031h-127.953125c-11.785156 0-21.335937-9.550781-21.335937-21.332031s9.550781-21.332031 21.335937-21.332031zm0 0" fill="#250700"/><path d="m128.167969 298.667969h21.355469c11.78125 0 21.332031 9.550781 21.332031 21.332031s-9.550781 21.332031-21.332031 21.332031h-21.355469c-11.785157 0-21.335938-9.550781-21.335938-21.332031s9.550781-21.332031 21.335938-21.332031zm0 0" fill="#3e190c"/><path d="m170.855469 0c11.78125 0 21.332031 9.550781 21.332031 21.332031v42.667969h-42.664062v-42.667969c0-11.78125 9.550781-21.332031 21.332031-21.332031zm0 0" fill="#3e190c"/><path d="m192.1875 42.667969c0 11.78125-9.550781 21.332031-21.332031 21.332031s-21.332031-9.550781-21.332031-21.332031c0-11.785157 9.550781-21.335938 21.332031-21.335938s21.332031 9.550781 21.332031 21.335938zm0 0" fill="#250700"/><path d="m269.222656 469.332031h-196.804687c-6.859375 0-13.296875-3.296875-17.308594-8.859375-4.007813-5.5625-5.097656-12.714844-2.929687-19.222656l28.457031-85.332031c2.902343-8.710938 11.054687-14.585938 20.238281-14.585938h139.914062c9.183594 0 17.335938 5.878907 20.238282 14.589844l28.433594 85.335937c2.167968 6.503907 1.074218 13.65625-2.933594 19.21875-4.011719 5.5625-10.449219 8.855469-17.304688 8.855469zm0 0" fill="#250700"/><path d="m100.875 341.332031c-9.183594 0-17.335938 5.875-20.238281 14.585938l-28.457031 85.332031c-2.167969 6.507812-1.078126 13.660156 2.929687 19.222656 4.011719 5.5625 10.449219 8.859375 17.308594 8.859375h77.082031v-128zm0 0" fill="#3e190c"/><path d="m42.855469 85.332031-42.6875 42.667969 64.019531 64 17.90625 89.515625c1.992188 9.972656 10.75 17.152344 20.917969 17.152344h135.6875c10.167969 0 18.925781-7.179688 20.917969-17.152344l39.238281-196.183594zm0 0" fill="#3e190c"/><path d="m68.878906 85.332031c-6.390625 0-12.445312 2.867188-16.5 7.808594-4.050781 4.945313-5.671875 11.441406-4.421875 17.710937l16.230469 81.148438 17.90625 89.515625c1.992188 9.972656 10.75 17.152344 20.917969 17.152344h67.820312v-213.335938zm0 0" fill="#7c534f"/><path d="m320.167969 85.332031h-128v213.335938h46.53125c10.167969 0 18.925781-7.179688 20.917969-17.152344l27.273437-136.367187c1.996094-9.96875 10.75-17.148438 20.921875-17.148438h12.355469c11.78125 0 21.332031 9.550781 21.332031 21.332031v106.667969c0 11.6875-9.382812 21.476562-21.066406 21.335938-7.652344-.097657-14.773438 3.914062-18.652344 10.511718-3.882812 6.59375-3.933594 14.765625-.132812 21.410156 3.796874 6.644532 10.863281 10.742188 18.519531 10.742188 35.34375 0 64-28.652344 64-64v-106.667969c0-35.34375-28.65625-64-64-64zm0 0" fill="#250700"/><path d="m42.855469 85.332031 106.667969-42.664062h42.664062l106.667969 42.664062zm0 0" fill="#653430"/><path d="m42.855469 85.332031h63.976562l42.691407-42.664062zm0 0" fill="#93716e"/><path d="m109.179688 108.789062 17.066406 170.667969c1.089844 10.90625 10.265625 19.210938 21.226562 19.210938h46.742188c10.960937 0 20.136718-8.308594 21.226562-19.214844l17.050782-170.664063c.597656-6-1.367188-11.96875-5.414063-16.4375-4.042969-4.46875-9.789063-7.019531-15.816406-7.019531h-80.855469c-6.027344 0-11.773438 2.550781-15.816406 7.019531-4.046875 4.46875-6.011719 10.441407-5.410156 16.4375zm0 0" fill="#653430"/><path d="m115.117188 469.332031h111.46875c6.859374 0 13.296874-3.296875 17.308593-8.859375 4.007813-5.5625 5.097657-12.714844 2.929688-19.222656l-28.460938-85.332031c-2.902343-8.710938-11.054687-14.585938-20.238281-14.585938h-54.578125c-9.183594 0-17.339844 5.878907-20.242187 14.589844l-28.429688 85.335937c-2.167969 6.503907-1.074219 13.65625 2.933594 19.21875 4.011718 5.5625 10.449218 8.855469 17.308594 8.855469zm0 0" fill="#653430"/><path d="m106.832031 85.332031h128l-42.664062-42.664062h-42.644531zm0 0" fill="#7c534f"/></svg>