<svg height="426.66666pt" viewBox="0 0 426.66666 426.66666" width="426.66666pt" xmlns="http://www.w3.org/2000/svg"><path d="m384 128c23.5625 0 42.667969-19.101562 42.667969-42.667969 0-23.5625-19.105469-42.664062-42.667969-42.664062 0-23.566407-19.101562-42.667969-42.667969-42.667969-23.5625 0-42.664062 19.101562-42.664062 42.667969h-42.667969c0-23.566407-19.101562-42.667969-42.667969-42.667969-23.5625 0-42.664062 19.101562-42.664062 42.667969h-42.667969c0-23.566407-19.101562-42.667969-42.667969-42.667969-23.5625 0-42.664062 19.101562-42.664062 42.667969-23.566407 0-42.667969 19.101562-42.667969 42.664062 0 23.566407 19.101562 42.667969 42.667969 42.667969v42.667969c-23.566407 0-42.667969 19.101562-42.667969 42.664062 0 23.566407 19.101562 42.667969 42.667969 42.667969v42.667969c-23.566407 0-42.667969 19.101562-42.667969 42.664062 0 23.566407 19.101562 42.667969 42.667969 42.667969 0 23.5625 19.101562 42.667969 42.664062 42.667969 23.566407 0 42.667969-19.105469 42.667969-42.667969h42.667969c0 23.5625 19.101562 42.667969 42.664062 42.667969 23.566407 0 42.667969-19.105469 42.667969-42.667969h42.667969c0 23.5625 19.101562 42.667969 42.664062 42.667969 23.566407 0 42.667969-19.105469 42.667969-42.667969 23.5625 0 42.667969-19.101562 42.667969-42.667969 0-23.5625-19.105469-42.664062-42.667969-42.664062v-42.667969c23.5625 0 42.667969-19.101562 42.667969-42.667969 0-23.5625-19.105469-42.664062-42.667969-42.664062zm0 0" fill="#b53f07"/><path d="m384 128c23.5625 0 42.667969-19.101562 42.667969-42.667969 0-23.5625-19.105469-42.664062-42.667969-42.664062 0-23.566407-19.101562-42.667969-42.667969-42.667969-23.5625 0-42.664062 19.101562-42.664062 42.667969h-42.667969c0-23.566407-19.101562-42.667969-42.667969-42.667969-23.5625 0-42.664062 19.101562-42.664062 42.667969h-42.667969c0-23.566407-19.101562-42.667969-42.667969-42.667969-23.5625 0-42.664062 19.101562-42.664062 42.667969-23.566407 0-42.667969 19.101562-42.667969 42.664062 0 23.566407 19.101562 42.667969 42.667969 42.667969v42.667969c-23.566407 0-42.667969 19.101562-42.667969 42.664062 0 23.566407 19.101562 42.667969 42.667969 42.667969v42.667969c-23.566407 0-42.667969 19.101562-42.667969 42.664062 0 23.566407 19.101562 42.667969 42.667969 42.667969 0 23.5625 19.101562 42.667969 42.664062 42.667969 23.566407 0 42.667969-19.105469 42.667969-42.667969h42.667969c0 23.5625 19.101562 42.667969 42.664062 42.667969 23.566407 0 42.667969-19.105469 42.667969-42.667969h42.667969c0 23.5625 19.101562 42.667969 42.664062 42.667969 23.566407 0 42.667969-19.105469 42.667969-42.667969 23.5625 0 42.667969-19.101562 42.667969-42.667969 0-23.5625-19.105469-42.664062-42.667969-42.664062v-42.667969c23.5625 0 42.667969-19.101562 42.667969-42.667969 0-23.5625-19.105469-42.664062-42.667969-42.664062zm-256 0h42.667969v42.667969h-42.667969zm0 170.667969v-42.667969h42.667969v42.667969zm170.667969 0h-42.667969v-42.667969h42.667969zm0-128h-42.667969v-42.667969h42.667969zm0 0" fill="#db7230"/><g fill="#e8a073"><path d="m64 85.332031c11.78125 0 21.332031 9.550781 21.332031 21.335938v256c0 11.78125-9.550781 21.332031-21.332031 21.332031s-21.332031-9.550781-21.332031-21.332031v-256c0-11.785157 9.550781-21.335938 21.332031-21.335938zm0 0"/><path d="m192 106.667969c11.78125 0 21.332031 9.550781 21.332031 21.332031v64c0 11.78125-9.550781 21.332031-21.332031 21.332031s-21.332031-9.550781-21.332031-21.332031v-64c0-11.78125 9.550781-21.332031 21.332031-21.332031zm0 0"/><path d="m128 170.667969h64c11.78125 0 21.332031 9.550781 21.332031 21.332031s-9.550781 21.332031-21.332031 21.332031h-64c-11.78125 0-21.332031-9.550781-21.332031-21.332031s9.550781-21.332031 21.332031-21.332031zm0 0"/><path d="m192 234.667969c11.78125 0 21.332031 9.550781 21.332031 21.332031v64c0 11.78125-9.550781 21.332031-21.332031 21.332031s-21.332031-9.550781-21.332031-21.332031v-64c0-11.78125 9.550781-21.332031 21.332031-21.332031zm0 0"/><path d="m128 298.667969h64c11.78125 0 21.332031 9.550781 21.332031 21.332031s-9.550781 21.332031-21.332031 21.332031h-64c-11.78125 0-21.332031-9.550781-21.332031-21.332031s9.550781-21.332031 21.332031-21.332031zm0 0"/><path d="m320 106.667969c11.78125 0 21.332031 9.550781 21.332031 21.332031v64c0 11.78125-9.550781 21.332031-21.332031 21.332031s-21.332031-9.550781-21.332031-21.332031v-64c0-11.78125 9.550781-21.332031 21.332031-21.332031zm0 0"/><path d="m256 170.667969h64c11.78125 0 21.332031 9.550781 21.332031 21.332031s-9.550781 21.332031-21.332031 21.332031h-64c-11.78125 0-21.332031-9.550781-21.332031-21.332031s9.550781-21.332031 21.332031-21.332031zm0 0"/><path d="m320 234.667969c11.78125 0 21.332031 9.550781 21.332031 21.332031v64c0 11.78125-9.550781 21.332031-21.332031 21.332031s-21.332031-9.550781-21.332031-21.332031v-64c0-11.78125 9.550781-21.332031 21.332031-21.332031zm0 0"/><path d="m256 298.667969h64c11.78125 0 21.332031 9.550781 21.332031 21.332031s-9.550781 21.332031-21.332031 21.332031h-64c-11.78125 0-21.332031-9.550781-21.332031-21.332031s9.550781-21.332031 21.332031-21.332031zm0 0"/><path d="m256 42.667969h21.332031c11.785157 0 21.335938 9.550781 21.335938 21.332031s-9.550781 21.332031-21.335938 21.332031h-21.332031c-11.78125 0-21.332031-9.550781-21.332031-21.332031s9.550781-21.332031 21.332031-21.332031zm0 0"/><path d="m128 42.667969h21.332031c11.785157 0 21.335938 9.550781 21.335938 21.332031s-9.550781 21.332031-21.335938 21.332031h-21.332031c-11.78125 0-21.332031-9.550781-21.332031-21.332031s9.550781-21.332031 21.332031-21.332031zm0 0"/></g></svg>