<svg height="469pt" viewBox="0 -42 469.29214 469" width="469pt" xmlns="http://www.w3.org/2000/svg"><path d="m42.628906 192.144531c0-106.039062 85.960938-192 192-192 106.039063 0 192 85.960938 192 192zm0 0" fill="#e18850"/><path d="m79.367188 79.273438c-23.9375 32.757812-36.804688 72.296874-36.738282 112.871093h298.667969c.066406-40.574219-12.804687-80.113281-36.742187-112.871093-55.257813-75.722657-169.925782-75.722657-225.1875 0zm0 0" fill="#e8a073"/><path d="m405.296875 192.144531c-21.335937 0-42.667969 21.335938-42.667969 21.335938s-21.332031-21.335938-42.667968-21.335938c-21.332032 0-42.664063 21.335938-42.664063 21.335938s-21.335937-21.335938-42.667969-21.335938c-21.332031 0-42.667968 21.335938-42.667968 21.335938s-21.332032-21.335938-42.664063-21.335938c-21.335937 0-42.667969 21.335938-42.667969 21.335938s-21.332031-21.335938-42.667968-21.335938c-21.332032 0-42.664063 21.335938-42.664063 21.335938l56.859375 155.777343c4.316406 9.144532 13.550781 14.957032 23.664062 14.886719 12.664063-.027343 23.574219-8.929687 26.140626-21.332031 0 11.78125 14.328124 21.332031 32 21.332031 17.675781 0 32-9.550781 32-21.332031 0 11.78125 19.105468 21.332031 42.667968 21.332031s42.667969-9.550781 42.667969-21.332031c0 11.78125 14.324219 21.332031 32 21.332031 17.671875 0 32-9.550781 32-21.332031 2.613281 12.375 13.492187 21.253906 26.140625 21.332031 10.113281.070313 19.347656-5.742187 23.664062-14.886719l56.859376-155.777343s-21.332032-21.335938-42.664063-21.335938zm0 0" fill="#b80900"/><path d="m234.628906 192.144531c-21.332031 0-42.667968 21.335938-42.667968 21.335938s-21.332032-21.335938-42.664063-21.335938c-21.335937 0-42.667969 21.335938-42.667969 21.335938l21.332032 149.332031c0 11.78125 14.328124 21.332031 32 21.332031 17.675781 0 32-9.550781 32-21.332031 0 11.78125 19.105468 21.332031 42.667968 21.332031s42.667969-9.550781 42.667969-21.332031v-149.332031s-21.335937-21.335938-42.667969-21.335938zm0 0" fill="#e92c24"/><path d="m447.960938 213.480469c-5.65625.003906-11.085938-2.242188-15.082032-6.25-6.144531-6.042969-19.230468-15.085938-27.582031-15.085938-8.355469 0-21.4375 9.042969-27.648437 15.148438-8.351563 8.238281-21.785157 8.210937-30.101563-.0625-6.148437-6.042969-19.230469-15.085938-27.585937-15.085938-8.351563 0-21.4375 9.042969-27.644532 15.148438-8.355468 8.238281-21.785156 8.207031-30.105468-.0625-6.144532-6.042969-19.226563-15.085938-27.582032-15.085938-8.355468 0-21.4375 9.042969-27.644531 15.148438-8.355469 8.238281-21.785156 8.207031-30.105469-.0625-6.144531-6.042969-19.230468-15.085938-27.582031-15.085938-8.355469 0-21.4375 9.042969-27.648437 15.148438-8.351563 8.238281-21.785157 8.207031-30.101563-.0625-6.148437-6.042969-19.230469-15.085938-27.585937-15.085938-8.351563 0-21.4375 9.042969-27.644532 15.148438-8.359375 8.25-21.8125 8.191406-30.101562-.128907-8.285156-8.324218-8.289063-21.777343-.003906-30.101562 2.8125-2.824219 28.417968-27.582031 57.75-27.582031 16.542968 0 31.917968 7.882812 42.667968 15.257812 10.75-7.375 26.125-15.257812 42.667969-15.257812 16.539063 0 31.914063 7.882812 42.664063 15.257812 10.75-7.375 26.125-15.257812 42.667968-15.257812 16.542969 0 31.917969 7.882812 42.667969 15.257812 10.75-7.375 26.125-15.257812 42.664063-15.257812 16.542968 0 31.917968 7.882812 42.667968 15.257812 10.75-7.375 26.125-15.257812 42.667969-15.257812 29.332031 0 54.9375 24.757812 57.75 27.582031 6.097656 6.101562 7.921875 15.277344 4.621094 23.246094-3.300781 7.972656-11.078125 13.167968-19.707031 13.171875zm0 0" fill="#f4ba93"/><path d="m191.941406 213.449219c-5.648437.011719-11.070312-2.226563-15.0625-6.21875-6.144531-6.042969-19.230468-15.085938-27.582031-15.085938-8.355469 0-21.4375 9.042969-27.648437 15.148438-8.351563 8.238281-21.785157 8.207031-30.101563-.0625-6.148437-6.042969-19.230469-15.085938-27.585937-15.085938-8.351563 0-21.4375 9.042969-27.644532 15.148438-8.359375 8.25-21.8125 8.191406-30.101562-.128907-8.285156-8.324218-8.289063-21.777343-.003906-30.101562 2.8125-2.824219 28.417968-27.582031 57.75-27.582031 16.542968 0 31.917968 7.882812 42.667968 15.257812 10.75-7.375 26.125-15.257812 42.667969-15.257812 16.539063 0 31.914063 7.882812 42.664063 15.257812 10.75-7.375 26.125-15.257812 42.667968-15.257812 11.777344.007812 21.320313 9.554687 21.320313 21.332031s-9.542969 21.324219-21.320313 21.332031c-8.355468 0-21.4375 9.042969-27.644531 15.148438-4.007813 3.953125-9.414063 6.164062-15.042969 6.15625zm0 0" fill="#f6cbaf"/><path d="m255.960938 74.8125c0-17.671875-9.550782-32-21.332032-32s-21.332031 14.328125-21.332031 32 9.550781 32 21.332031 32 21.332032-14.328125 21.332032-32zm0 0" fill="#e18850"/><path d="m166.855469 46.585938c-8.320313-8.316407-27.699219-2.425782-43.289063 13.164062s-21.484375 34.96875-13.164062 43.289062c8.320312 8.320313 27.699218 2.425782 43.289062-13.164062 15.589844-15.585938 21.480469-34.96875 13.164063-43.289062zm0 0" fill="#e18850"/><path d="m345.691406 59.75c-15.589844-15.589844-34.96875-21.480469-43.289062-13.164062-8.320313 8.320312-2.425782 27.703124 13.164062 43.289062 15.589844 15.589844 34.96875 21.484375 43.289063 13.164062 8.316406-8.320312 2.425781-27.699218-13.164063-43.289062zm0 0" fill="#db7230"/></svg>