<svg height="469pt" viewBox="-42 0 469 469.33334" width="469pt" xmlns="http://www.w3.org/2000/svg"><path d="m192.167969 0c82.472656 0 149.332031 66.859375 149.332031 149.332031v298.667969h-298.667969v-298.667969c0-82.472656 66.859375-149.332031 149.335938-149.332031zm0 0" fill="#f17d77"/><path d="m288.789062 57.832031c-53.273437-68.414062-161.304687-68.414062-214.578124 0-20.386719 26.140625-31.433594 58.351563-31.378907 91.5v298.667969h277.335938v-298.667969c.054687-33.148437-10.992188-65.359375-31.378907-91.5zm0 0" fill="#e92c24"/><path d="m85.5 213.332031c11.78125 0 21.332031 9.550781 21.332031 21.335938v149.332031c0 11.78125-9.550781 21.332031-21.332031 21.332031s-21.332031-9.550781-21.332031-21.332031v-149.332031c0-11.785157 9.550781-21.335938 21.332031-21.335938zm0 0" fill="#f24c45"/><path d="m21.5 426.667969h341.332031c11.785157 0 21.335938 9.550781 21.335938 21.332031s-9.550781 21.332031-21.335938 21.332031h-341.332031c-11.78125 0-21.332031-9.550781-21.332031-21.332031s9.550781-21.332031 21.332031-21.332031zm0 0" fill="#db7230"/><path d="m21.5 426.667969h298.667969c11.78125 0 21.332031 9.550781 21.332031 21.332031s-9.550781 21.332031-21.332031 21.332031h-298.667969c-11.78125 0-21.332031-9.550781-21.332031-21.332031s9.550781-21.332031 21.332031-21.332031zm0 0" fill="#e18850"/><path d="m298.832031 149.332031c0 58.910157-47.753906 106.667969-106.664062 106.667969-58.910157 0-106.667969-47.757812-106.667969-106.667969 0-58.910156 47.757812-106.664062 106.667969-106.664062 58.910156 0 106.664062 47.753906 106.664062 106.664062zm0 0" fill="#f6b0ad"/><path d="m85.5 170.667969c-11.785156 0-21.335938-9.550781-21.332031-21.335938.074219-70.660156 57.339843-127.921875 128-128 11.78125 0 21.332031 9.550781 21.332031 21.335938 0 11.78125-9.550781 21.332031-21.332031 21.332031-47.109375.050781-85.285157 38.226562-85.335938 85.332031.003907 11.785157-9.546875 21.335938-21.332031 21.335938zm0 0" fill="#fad4d2"/><path d="m192.167969 85.332031h-21.335938c-11.78125 0-21.332031 9.550781-21.332031 21.335938 0 11.78125 9.550781 21.332031 21.332031 21.332031v64c0 11.78125 9.550781 21.332031 21.335938 21.332031 11.78125 0 21.332031-9.550781 21.332031-21.332031v-85.332031c0-11.785157-9.550781-21.335938-21.332031-21.335938zm0 0" fill="#250700"/><path d="m64.1875 426.667969h21.335938c11.78125 0 21.332031 9.550781 21.332031 21.332031s-9.550781 21.332031-21.332031 21.332031h-21.335938c-11.78125 0-21.332031-9.550781-21.332031-21.332031s9.550781-21.332031 21.332031-21.332031zm0 0" fill="#f4ba93"/></svg>