<svg height="469pt" viewBox="0 -42 469.33334 469" width="469pt" xmlns="http://www.w3.org/2000/svg"><path d="m64 128.167969h341.332031c11.785157 0 21.335938 9.550781 21.335938 21.332031s-9.550781 21.332031-21.335938 21.332031h-341.332031c-11.78125 0-21.332031-9.550781-21.332031-21.332031s9.550781-21.332031 21.332031-21.332031zm0 0" fill="#b80900"/><path d="m42.667969 277.5h384c11.78125 0 21.332031 9.550781 21.332031 21.332031v64c0 11.785157-9.550781 21.335938-21.332031 21.335938h-384c-11.785157 0-21.335938-9.550781-21.335938-21.335938v-64c0-11.78125 9.550781-21.332031 21.335938-21.332031zm0 0" fill="#6e2200"/><path d="m64 277.5h213.332031c11.785157 0 21.335938 9.550781 21.335938 21.332031v64c0 11.785157-9.550781 21.335938-21.335938 21.335938h-213.332031c-11.78125 0-21.332031-9.550781-21.332031-21.335938v-64c0-11.78125 9.550781-21.332031 21.332031-21.332031zm0 0" fill="#953c1c"/><path d="m362.667969 277.5h42.664062c11.785157 0 21.335938 9.550781 21.335938 21.332031v64c0 11.785157-9.550781 21.335938-21.335938 21.335938h-42.664062c-11.785157 0-21.335938-9.550781-21.335938-21.335938v-64c0-11.78125 9.550781-21.332031 21.335938-21.332031zm0 0" fill="#953c1c"/><path d="m21.332031 170.832031h426.667969c11.78125 0 21.332031 9.550781 21.332031 21.335938v64c0 11.78125-9.550781 21.332031-21.332031 21.332031h-426.667969c-11.78125 0-21.332031-9.550781-21.332031-21.332031v-64c0-11.785157 9.550781-21.335938 21.332031-21.335938zm0 0" fill="#3e190c"/><path d="m21.332031 170.832031h298.667969c11.78125 0 21.332031 9.550781 21.332031 21.335938v64c0 11.78125-9.550781 21.332031-21.332031 21.332031h-298.667969c-11.78125 0-21.332031-9.550781-21.332031-21.332031v-64c0-11.785157 9.550781-21.335938 21.332031-21.335938zm0 0" fill="#653430"/><g fill="#7c534f"><path d="m170.667969 202.832031c0 5.890625-4.777344 10.667969-10.667969 10.667969s-10.667969-4.777344-10.667969-10.667969 4.777344-10.664062 10.667969-10.664062 10.667969 4.773437 10.667969 10.664062zm0 0"/><path d="m234.667969 224.167969c0 5.890625-4.777344 10.664062-10.667969 10.664062s-10.667969-4.773437-10.667969-10.664062 4.777344-10.667969 10.667969-10.667969 10.667969 4.777344 10.667969 10.667969zm0 0"/><path d="m170.667969 245.5c0 5.890625-4.777344 10.667969-10.667969 10.667969s-10.667969-4.777344-10.667969-10.667969 4.777344-10.667969 10.667969-10.667969 10.667969 4.777344 10.667969 10.667969zm0 0"/><path d="m320 202.832031c0 5.890625-4.777344 10.667969-10.667969 10.667969s-10.664062-4.777344-10.664062-10.667969 4.773437-10.664062 10.664062-10.664062 10.667969 4.773437 10.667969 10.664062zm0 0"/><path d="m298.667969 245.5c0 5.890625-4.777344 10.667969-10.667969 10.667969s-10.667969-4.777344-10.667969-10.667969 4.777344-10.667969 10.667969-10.667969 10.667969 4.777344 10.667969 10.667969zm0 0"/><path d="m64 266.832031c0 5.890625-4.777344 10.667969-10.667969 10.667969s-10.664062-4.777344-10.664062-10.667969 4.773437-10.664062 10.664062-10.664062 10.667969 4.773437 10.667969 10.664062zm0 0"/></g><path d="m384 181.5c0 5.890625-4.777344 10.667969-10.667969 10.667969s-10.664062-4.777344-10.664062-10.667969 4.773437-10.667969 10.664062-10.667969 10.667969 4.777344 10.667969 10.667969zm0 0" fill="#653430"/><path d="m448 224.167969c0 5.890625-4.777344 10.664062-10.667969 10.664062s-10.664062-4.773437-10.664062-10.664062 4.773437-10.667969 10.664062-10.667969 10.667969 4.777344 10.667969 10.667969zm0 0" fill="#653430"/><path d="m384 245.5c0 5.890625-4.777344 10.667969-10.667969 10.667969s-10.664062-4.777344-10.664062-10.667969 4.773437-10.667969 10.664062-10.667969 10.667969 4.777344 10.667969 10.667969zm0 0" fill="#653430"/><path d="m53.332031 170.832031h42.667969c17.671875 0 32 14.328125 32 32 0 17.675781-14.328125 32-32 32h-42.667969c-17.671875 0-32-14.324219-32-32 0-17.671875 14.328125-32 32-32zm0 0" fill="#7c534f"/><path d="m42.667969 170.832031 114.828125 72.9375c8.023437 5.152344 18.316406 5.152344 26.339844 0l114.832031-72.9375zm0 0" fill="#f6cbaf"/><path d="m21.332031 85.5s-21.332031 0-21.332031 21.332031c0 0 0 21.335938 21.332031 21.335938 42.667969 0 42.667969 64 85.335938 64 42.664062 0 42.664062-42.667969 85.332031-42.667969s42.667969 42.667969 85.332031 42.667969c42.667969 0 42.667969-42.667969 85.335938-42.667969 42.664062 0 42.664062-21.332031 64-21.332031 21.332031 0 42.664062 0 42.664062-21.335938 0-21.332031-21.332031-21.332031-21.332031-21.332031zm0 0" fill="#6ccd6c"/><path d="m277.332031 117.5c0-17.671875-14.324219-32-32-32h-224s-21.332031 0-21.332031 21.332031c0 0 0 21.335938 21.332031 21.335938 42.667969 0 42.667969 64 85.335938 64 42.664062 0 42.664062-42.667969 85.332031-42.667969h53.332031c17.675781 0 32-14.328125 32-32zm0 0" fill="#86db74"/><path d="m42.667969.167969h384c11.78125 0 21.332031 9.550781 21.332031 21.332031v64c0 11.78125-9.550781 21.332031-21.332031 21.332031h-384c-11.785157 0-21.335938-9.550781-21.335938-21.332031v-64c0-11.78125 9.550781-21.332031 21.335938-21.332031zm0 0" fill="#6e2200"/><path d="m362.667969.167969h42.664062c11.785157 0 21.335938 9.550781 21.335938 21.332031v64c0 11.78125-9.550781 21.332031-21.335938 21.332031h-42.664062c-11.785157 0-21.335938-9.550781-21.335938-21.332031v-64c0-11.78125 9.550781-21.332031 21.335938-21.332031zm0 0" fill="#953c1c"/><path d="m64 .167969h213.332031c11.785157 0 21.335938 9.550781 21.335938 21.332031v64c0 11.78125-9.550781 21.332031-21.335938 21.332031h-213.332031c-11.78125 0-21.332031-9.550781-21.332031-21.332031v-64c0-11.78125 9.550781-21.332031 21.332031-21.332031zm0 0" fill="#953c1c"/><path d="m256 117.5c0-5.890625-9.550781-10.667969-21.332031-10.667969-11.785157 0-21.335938 4.777344-21.335938 10.667969s9.550781 10.667969 21.335938 10.667969c11.78125 0 21.332031-4.777344 21.332031-10.667969zm0 0" fill="#b9eaaa"/><path d="m128 149.5c0 11.78125-9.550781 21.332031-21.332031 21.332031-11.785157 0-21.335938-9.550781-21.335938-21.332031s9.550781-21.332031 21.335938-21.332031c11.78125 0 21.332031 9.550781 21.332031 21.332031zm0 0" fill="#b9eaaa"/><path d="m170.667969 138.832031c0 5.890625-4.777344 10.667969-10.667969 10.667969s-10.667969-4.777344-10.667969-10.667969 4.777344-10.664062 10.667969-10.664062 10.667969 4.773437 10.667969 10.664062zm0 0" fill="#b9eaaa"/><path d="m320 160.167969c0-5.890625-9.550781-10.667969-21.332031-10.667969-11.785157 0-21.335938 4.777344-21.335938 10.667969s9.550781 10.664062 21.335938 10.664062c11.78125 0 21.332031-4.773437 21.332031-10.664062zm0 0" fill="#86db74"/><path d="m405.332031 128.167969c0-11.785157-19.101562-21.335938-42.664062-21.335938-23.566407 0-42.667969 9.550781-42.667969 21.335938 0 11.78125 19.101562 21.332031 42.667969 21.332031 23.5625 0 42.664062-9.550781 42.664062-21.332031zm0 0" fill="#86db74"/><path d="m106.667969.167969h42.664062c11.785157 0 21.335938 9.550781 21.335938 21.332031v64c0 11.78125-9.550781 21.332031-21.335938 21.332031h-42.664062c-11.785157 0-21.335938-9.550781-21.335938-21.332031v-64c0-11.78125 9.550781-21.332031 21.335938-21.332031zm0 0" fill="#a05034"/><path d="m362.667969.167969c11.78125 0 21.332031 9.550781 21.332031 21.332031v64c0 11.78125-9.550781 21.332031-21.332031 21.332031-11.785157 0-21.335938-9.550781-21.335938-21.332031v-64c0-11.78125 9.550781-21.332031 21.335938-21.332031zm0 0" fill="#a05034"/><path d="m362.667969 277.5c11.78125 0 21.332031 9.550781 21.332031 21.332031v64c0 11.785157-9.550781 21.335938-21.332031 21.335938-11.785157 0-21.335938-9.550781-21.335938-21.335938v-64c0-11.78125 9.550781-21.332031 21.335938-21.332031zm0 0" fill="#a05034"/><path d="m106.667969 277.5h42.664062c11.785157 0 21.335938 9.550781 21.335938 21.332031v64c0 11.785157-9.550781 21.335938-21.335938 21.335938h-42.664062c-11.785157 0-21.335938-9.550781-21.335938-21.335938v-64c0-11.78125 9.550781-21.332031 21.335938-21.332031zm0 0" fill="#a05034"/></svg>