<svg height="426pt" viewBox="0 0 426 426.66439" width="426pt" xmlns="http://www.w3.org/2000/svg"><path d="m426.996094 95.996094c.015625-41.246094-33.417969-74.691406-74.667969-74.691406-41.246094 0-74.679687 33.445312-74.664063 74.691406 0 .097656.027344.1875.027344.285156-.15625 100.015625-81.269531 181.050781-181.320312 181.050781h-.042969c-41.246094-.015625-74.691406 33.417969-74.691406 74.664063 0 41.25 33.445312 74.683594 74.691406 74.667968 182.339844 0 330.167969-147.617187 330.585937-329.855468.003907-.277344.082032-.535156.082032-.8125zm0 0" fill="#6e2200"/><path d="m426.996094 95.996094c.015625-41.246094-33.417969-74.691406-74.667969-74.691406-41.246094 0-74.679687 33.445312-74.664063 74.691406 0 .097656.027344.1875.027344.285156-.15625 100.015625-81.269531 181.050781-181.320312 181.050781h-.042969c-41.246094-.015625-74.691406 33.417969-74.691406 74.664063 0 41.25 33.445312 74.683594 74.691406 74.667968 182.339844 0 330.167969-147.617187 330.585937-329.855468.003907-.277344.082032-.535156.082032-.8125zm0 0" fill="#6e2200"/><path d="m362.996094 108.945312c0-21.253906-14.523438-40.953124-35.5-44.363281-12.390625-2.101562-25.082032 1.363281-34.683594 9.472657-9.605469 8.109374-15.144531 20.039062-15.148438 32.609374-.1875 1.292969-.5 2.539063-.710937 3.824219-7.40625 93.347657-85.328125 166.84375-180.582031 166.84375h-.042969c-13.988281.035157-27.683594 4.035157-39.496094 11.53125-10.621093 9.695313-15.609375 24.109375-13.253906 38.296875 3.414063 20.980469 23.113281 35.503906 44.367187 35.503906h21.332032c140.125 0 253.71875-113.59375 253.71875-253.71875zm0 0" fill="#953c1c"/><path d="m405.664062 63.996094c0-11.78125-14.328124-21.332032-32-21.332032-17.675781 0-32 9.550782-32 21.332032 0 11.785156 14.324219 21.335937 32 21.335937 17.671876 0 32-9.550781 32-21.335937zm0 0" fill="#3e190c"/><path d="m64.328125 373.332031c0-17.675781-4.773437-32-10.664063-32-5.890624 0-10.667968 14.324219-10.667968 32 0 17.671875 4.777344 32 10.667968 32 5.890626 0 10.664063-14.328125 10.664063-32zm0 0" fill="#3e190c"/><path d="m101.496094 304.164062c-9.90625-9.902343-29.796875-6.066406-44.433594 8.566407-14.632812 14.636719-18.46875 34.527343-8.566406 44.433593 9.90625 9.902344 29.800781 6.070313 44.433594-8.566406 14.636718-14.632812 18.46875-34.527344 8.566406-44.433594zm0 0" fill="#c69786"/><path d="m277.640625 240.269531c-11.621094-.007812-22.324219-6.3125-27.960937-16.472656-5.640626-10.160156-5.328126-22.582031.816406-32.445313 17.746094-28.535156 27.164062-61.460937 27.1875-95.0625.019531-17.667968 14.355468-32.832031 32-32.832031h.019531c17.667969.019531 31.980469 13.457031 31.980469 31.125-.0625 47.414063-12.8125 91.957031-36.855469 130.601563-5.84375 9.394531-16.125 15.097656-27.1875 15.085937zm0 0" fill="#a05034"/><path d="m170.996094 327.832031c-15.480469 0-28.742188-11.074219-31.496094-26.308593-2.753906-15.230469 5.789062-30.253907 20.289062-35.671876 12.730469-4.773437 24.882813-10.964843 36.226563-18.457031 14.742187-9.738281 34.582031-5.6875 44.324219 9.046875 9.742187 14.734375 5.699218 34.578125-9.03125 44.328125-15.367188 10.179688-31.839844 18.578125-49.105469 25.039063-3.582031 1.339844-7.378906 2.023437-11.207031 2.023437zm0 0" fill="#aa644a"/><path d="m21.664062 405.332031c-8.628906-.003906-16.40625-5.199219-19.707031-13.171875-3.300781-7.96875-1.476562-17.144531 4.621094-23.246094l6.25-6.25-6.25-6.25c-8.328125-8.328124-8.328125-21.835937 0-30.167968 8.332031-8.328125 21.839844-8.328125 30.167969 0l21.332031 21.335937c8.335937 8.328125 8.335937 21.835938 0 30.164063l-21.332031 21.335937c-3.996094 4.007813-9.421875 6.253907-15.082032 6.25zm0 0" fill="#a05034"/><path d="m362.996094 63.996094c-5.660156.007812-11.085938-2.242188-15.082032-6.25l-21.335937-21.332032c-8.328125-8.328124-8.328125-21.835937 0-30.167968 8.332031-8.328125 21.839844-8.328125 30.167969 0l6.25 6.25 6.25-6.25c8.332031-8.328125 21.835937-8.328125 30.167968 0 8.328126 8.332031 8.328126 21.839844 0 30.167968l-21.335937 21.332032c-3.992187 4.007812-9.421875 6.257812-15.082031 6.25zm0 0" fill="#a05034"/><g fill="#6e2200"><path d="m256.328125 277.332031c-5.65625.003907-11.085937-2.242187-15.082031-6.25l-21.332032-21.335937c-8.324218-8.328125-8.320312-21.828125.007813-30.15625s21.828125-8.332032 30.15625-.007813l21.335937 21.332031c6.097657 6.101563 7.921876 15.277344 4.621094 23.246094-3.300781 7.972656-11.078125 13.167969-19.707031 13.171875zm0 0"/><path d="m149.664062 319.996094c-5.660156.003906-11.085937-2.242188-15.089843-6.242188-4-4.003906-6.246094-9.429687-6.246094-15.089844v-21.332031c0-11.78125 9.554687-21.335937 21.335937-21.335937s21.332032 9.554687 21.332032 21.335937v21.332031c.003906 5.660157-2.242188 11.085938-6.246094 15.089844-4 4-9.429688 6.246094-15.085938 6.242188zm0 0"/><path d="m298.996094 170.664062h-21.332032c-11.78125 0-21.335937-9.550781-21.335937-21.332031s9.554687-21.335937 21.335937-21.335937h21.332032c11.78125 0 21.332031 9.554687 21.332031 21.335937s-9.550781 21.332031-21.332031 21.332031zm0 0"/></g></svg>