<svg height="469pt" viewBox="0 -42 469.33335 469" width="469pt" xmlns="http://www.w3.org/2000/svg"><path d="m21.332031 128.167969h32.410157c8.804687 0 17.058593-5.25 19.957031-13.5625 23.242187-66.601563 86.441406-114.4375 160.96875-114.4375 74.523437 0 137.722656 47.835937 160.964843 114.4375 2.902344 8.3125 11.152344 13.5625 19.957032 13.5625h32.410156c11.78125 0 21.332031 9.550781 21.332031 21.332031v213.332031c0 11.785157-9.550781 21.335938-21.332031 21.335938h-426.667969c-11.78125 0-21.332031-9.550781-21.332031-21.335938v-213.332031c0-11.78125 9.550781-21.332031 21.332031-21.332031zm0 0" fill="#7d2b00"/><g fill="#3e190c"><path d="m469.332031 298.832031v-21.332031h-224c-24.5625 0-43 12.28125-59.25 23.125-15.082031 10.050781-29.3125 19.542969-47.414062 19.542969h-138.667969v21.332031h138.667969c24.5625 0 43-12.28125 59.25-23.125 15.082031-10.050781 29.3125-19.542969 47.414062-19.542969zm0 0"/><path d="m245.332031 42.832031h101.367188c-9.230469-8.179687-19.324219-15.332031-30.101563-21.332031h-71.265625c-24.5625 0-43 12.28125-59.25 23.125-15.082031 10.050781-29.3125 19.542969-47.414062 19.542969h-36.597657c-5.40625 6.730469-10.289062 13.863281-14.617187 21.332031h51.214844c24.5625 0 43-12.28125 59.25-23.125 15.082031-10.050781 29.3125-19.542969 47.414062-19.542969zm0 0"/><path d="m192 117.5c0-2.828125-1.121094-5.542969-3.121094-7.542969-2.003906-2.003906-4.714844-3.125-7.546875-3.125h-104.226562c-1.066407 2.628907-2.464844 5.082031-3.40625 7.773438-2.898438 8.3125-11.152344 13.5625-19.957031 13.5625h127.589843c2.832031 0 5.542969-1.121094 7.546875-3.125 2-2 3.121094-4.714844 3.121094-7.542969zm0 0"/><path d="m170.667969 245.5c-.027344-23.554688-19.113281-42.640625-42.667969-42.667969h-128v21.335938h128c11.78125 0 21.332031 9.550781 21.332031 21.332031s-9.550781 21.332031-21.332031 21.332031h-128v21.335938h128c23.554688-.027344 42.640625-19.113281 42.667969-42.667969zm0 0"/><path d="m181.332031 245.5c0 2.828125 1.121094 5.542969 3.125 7.542969 2 2.003906 4.714844 3.125 7.542969 3.125h277.332031v-21.335938h-277.332031c-2.828125 0-5.542969 1.121094-7.542969 3.125-2.003906 2-3.125 4.714844-3.125 7.542969zm0 0"/><path d="m256 362.832031h213.332031v-21.332031h-213.332031c-23.554688.027344-42.640625 19.113281-42.667969 42.667969h21.335938c.011719-11.777344 9.554687-21.324219 21.332031-21.335938zm0 0"/><path d="m256 149.5h213.332031c0-11.78125-9.550781-21.332031-21.332031-21.332031h-192c-11.777344-.007813-21.320312-9.558594-21.320312-21.335938 0-11.773437 9.542968-21.324219 21.320312-21.332031h125.878906c-4.324218-7.46875-9.210937-14.601562-14.617187-21.332031h-111.261719c-23.554688.011719-42.644531 19.109375-42.644531 42.664062 0 23.558594 19.089843 42.65625 42.644531 42.667969zm0 0"/><path d="m138.667969 170.832031c18.101562 0 32.332031 9.492188 47.414062 19.542969 16.25 10.84375 34.6875 23.125 59.25 23.125h224v-21.332031h-224c-18.101562 0-32.332031-9.492188-47.414062-19.542969-16.25-10.84375-34.6875-23.125-59.25-23.125h-138.667969v21.332031zm0 0"/></g><path d="m64 234.832031c11.78125 0 21.332031 9.550781 21.332031 21.335938v64c0 11.78125-9.550781 21.332031-21.332031 21.332031s-21.332031-9.550781-21.332031-21.332031v-64c0-11.785157 9.550781-21.335938 21.332031-21.335938zm0 0" fill="#a05034"/><path d="m128 170.832031c-11.785156.003907-21.335938-9.546875-21.332031-21.332031.066406-58.882812 47.785156-106.597656 106.664062-106.667969 11.785157 0 21.335938 9.550781 21.335938 21.335938 0 11.78125-9.550781 21.332031-21.335938 21.332031-35.328125.039062-63.960937 28.667969-64 64 .003907 11.785156-9.546875 21.335938-21.332031 21.332031zm0 0" fill="#a05034"/><path d="m85.332031 213.5h-21.332031c-11.78125 0-21.332031-9.550781-21.332031-21.332031 0-11.785157 9.550781-21.335938 21.332031-21.335938h21.332031c11.785157 0 21.335938 9.550781 21.335938 21.335938 0 11.78125-9.550781 21.332031-21.335938 21.332031zm0 0" fill="#a05034"/><path d="m341.332031 213.5v-21.335938h-85.332031v21.335938h21.332031v42.664062h-21.332031v21.335938h21.332031v42.664062h21.335938v-42.664062h42.664062v-21.335938h-42.664062v-42.664062zm0 0" fill="#f9dcc9"/><path d="m213.332031 320.164062h21.335938l-42.667969-128h-21.332031l-42.667969 128h21.332031l14.222657-42.664062h35.558593zm-42.664062-63.996093 10.664062-32.003907 10.667969 32.003907zm0 0" fill="#f9dcc9"/><path d="m426.667969 213.5v-21.332031h-64v128h64v-21.335938h-42.667969v-21.332031h42.667969v-21.332031h-42.667969v-42.667969zm0 0" fill="#f9dcc9"/><path d="m106.667969 213.5v-21.332031c-35.347657 0-64 28.652343-64 64 0 35.34375 28.652343 64 64 64v-21.335938c-23.566407 0-42.667969-19.101562-42.667969-42.664062 0-23.566407 19.101562-42.667969 42.667969-42.667969zm0 0" fill="#f9dcc9"/></svg>