<svg height="469pt" viewBox="-42 0 469 469.33334" width="469pt" xmlns="http://www.w3.org/2000/svg"><path d="m218.226562 0c9.714844 0 18.132813 6.722656 20.285157 16.191406l97.210937 427.730469c1.402344 6.167969-.078125 12.640625-4.027344 17.585937-3.945312 4.945313-9.929687 7.824219-16.257812 7.824219-9.710938 0-18.132812-6.71875-20.285156-16.191406l-97.210938-427.726563c-1.402344-6.171874.082032-12.644531 4.027344-17.589843 3.949219-4.945313 9.933594-7.824219 16.257812-7.824219zm0 0" fill="#db7230"/><path d="m170.832031 298.667969h42.667969v128c0 11.78125-9.550781 21.332031-21.332031 21.332031-11.785157 0-21.335938-9.550781-21.335938-21.332031zm0 0" fill="#db7230"/><path d="m192.167969 298.667969c11.78125 0 21.332031 9.550781 21.332031 21.332031v21.332031c0 11.785157-9.550781 21.335938-21.332031 21.335938-11.785157 0-21.335938-9.550781-21.335938-21.335938v-21.332031c0-11.78125 9.550781-21.332031 21.335938-21.332031zm0 0" fill="#c35422"/><path d="m166.105469 0c-9.710938 0-18.132813 6.722656-20.285157 16.191406l-97.210937 427.730469c-1.402344 6.167969.078125 12.640625 4.027344 17.585937 3.945312 4.945313 9.929687 7.824219 16.257812 7.824219 9.710938 0 18.132813-6.71875 20.285157-16.191406l97.210937-427.726563c1.402344-6.171874-.078125-12.644531-4.027344-17.589843-3.945312-4.945313-9.929687-7.824219-16.257812-7.824219zm0 0" fill="#db7230"/><path d="m106.832031 362.667969c0 11.78125-9.550781 21.332031-21.332031 21.332031s-21.332031-9.550781-21.332031-21.332031c0-11.785157 9.550781-21.335938 21.332031-21.335938s21.332031 9.550781 21.332031 21.335938zm0 0" fill="#c35422"/><path d="m320.167969 362.667969c0 11.78125-9.550781 21.332031-21.335938 21.332031-11.78125 0-21.332031-9.550781-21.332031-21.332031 0-11.785157 9.550781-21.335938 21.332031-21.335938 11.785157 0 21.335938 9.550781 21.335938 21.335938zm0 0" fill="#c35422"/><path d="m21.5 42.667969h341.332031c11.785157 0 21.335938 9.550781 21.335938 21.332031v256c0 11.78125-9.550781 21.332031-21.335938 21.332031h-341.332031c-11.78125 0-21.332031-9.550781-21.332031-21.332031v-256c0-11.78125 9.550781-21.332031 21.332031-21.332031zm0 0" fill="#e8a073"/><path d="m21.5 42.667969c11.78125 0 21.332031 9.550781 21.332031 21.332031v256c0 11.78125-9.550781 21.332031-21.332031 21.332031s-21.332031-9.550781-21.332031-21.332031v-256c0-11.78125 9.550781-21.332031 21.332031-21.332031zm0 0" fill="#f4ba93"/><path d="m128.167969 42.667969h128c11.78125 0 21.332031 9.550781 21.332031 21.332031s-9.550781 21.332031-21.332031 21.332031h-128c-11.785157 0-21.335938-9.550781-21.335938-21.332031s9.550781-21.332031 21.335938-21.332031zm0 0" fill="#e18850"/><path d="m42.832031 85.332031h298.667969v213.335938h-298.667969zm0 0" fill="#653430"/><g fill="#f4ba93"><path d="m128.167969 21.332031h128c11.78125 0 21.332031 9.550781 21.332031 21.335938 0 11.78125-9.550781 21.332031-21.332031 21.332031h-128c-11.785157 0-21.335938-9.550781-21.335938-21.332031 0-11.785157 9.550781-21.335938 21.335938-21.335938zm0 0"/><path d="m64.167969 320h64c11.78125 0 21.332031 9.550781 21.332031 21.332031 0 11.785157-9.550781 21.335938-21.332031 21.335938h-64c-11.785157 0-21.335938-9.550781-21.335938-21.335938 0-11.78125 9.550781-21.332031 21.335938-21.332031zm0 0"/><path d="m256.167969 320h64c11.78125 0 21.332031 9.550781 21.332031 21.332031 0 11.785157-9.550781 21.335938-21.332031 21.335938h-64c-11.785157 0-21.335938-9.550781-21.335938-21.335938 0-11.78125 9.550781-21.332031 21.335938-21.332031zm0 0"/></g><path d="m320.167969 106.667969v170.664062c0 11.785157 9.550781 21.335938 21.332031 21.335938v-213.335938c-11.78125 0-21.332031 9.550781-21.332031 21.335938zm0 0" fill="#3e190c"/><path d="m149.5 21.332031h21.332031c11.785157 0 21.335938 9.550781 21.335938 21.335938 0 11.78125-9.550781 21.332031-21.335938 21.332031h-21.332031c-11.78125 0-21.332031-9.550781-21.332031-21.332031 0-11.785157 9.550781-21.335938 21.332031-21.335938zm0 0" fill="#f6cbaf"/><path d="m64.167969 320h21.332031c11.78125 0 21.332031 9.550781 21.332031 21.332031 0 11.785157-9.550781 21.335938-21.332031 21.335938h-21.332031c-11.785157 0-21.335938-9.550781-21.335938-21.335938 0-11.78125 9.550781-21.332031 21.335938-21.332031zm0 0" fill="#f6cbaf"/><path d="m256.167969 320h21.332031c11.78125 0 21.332031 9.550781 21.332031 21.332031 0 11.785157-9.550781 21.335938-21.332031 21.335938h-21.332031c-11.785157 0-21.335938-9.550781-21.335938-21.335938 0-11.78125 9.550781-21.332031 21.335938-21.332031zm0 0" fill="#f6cbaf"/></svg>