<svg height="469pt" viewBox="-42 0 469 469.33334" width="469pt" xmlns="http://www.w3.org/2000/svg"><path d="m170.832031 106.667969c0-58.910157-38.203125-106.667969-85.332031-106.667969s-85.332031 47.757812-85.332031 106.667969c0 49.039062 26.625 89.921875 62.6875 102.386719 0 0-20.023438 210.667968-20.023438 217.613281 0 23.5625 19.105469 42.664062 42.667969 42.664062s42.667969-19.101562 42.667969-42.664062c0-6.945313-20.023438-217.613281-20.023438-217.613281 36.0625-12.464844 62.6875-53.347657 62.6875-102.386719zm0 0" fill="#f6cbaf"/><path d="m106.832031 96c0-41.238281-19.101562-74.667969-42.664062-74.667969-23.566407 0-42.667969 33.429688-42.667969 74.667969s19.101562 74.667969 42.667969 74.667969c23.5625 0 42.664062-33.429688 42.664062-74.667969zm0 0" fill="#f4ba93"/><path d="m362.832031 21.332031c-11.78125 0-21.332031 9.550781-21.332031 21.335938v85.332031h-21.332031v-106.667969c0-11.78125-9.550781-21.332031-21.335938-21.332031-11.78125 0-21.332031 9.550781-21.332031 21.332031v106.667969h-21.332031v-85.332031c-.007813-11.777344-9.558594-21.320313-21.335938-21.320313-11.773437 0-21.324219 9.542969-21.332031 21.320313v85.332031c0 39.210938 26.59375 71.894531 62.625 81.890625 0 0-19.957031 209.832031-19.957031 216.777344 0 23.5625 19.101562 42.664062 42.664062 42.664062 23.566407 0 42.667969-19.101562 42.667969-42.664062 0-6.945313-19.957031-216.777344-19.957031-216.777344 36.027343-9.996094 62.625-42.679687 62.625-81.890625v-85.332031c0-11.785157-9.550781-21.335938-21.335938-21.335938zm0 0" fill="#f6cbaf"/><path d="m281.28125 145.550781c-15.765625-15.765625-35.011719-22.074219-42.992188-14.09375-7.980468 7.976563-1.667968 27.226563 14.097657 42.992188 15.761719 15.765625 35.011719 22.074219 42.992187 14.09375 7.980469-7.976563 1.667969-27.226563-14.097656-42.992188zm0 0" fill="#f9dcc9"/></svg>