<svg height="469pt" viewBox="0 -128 469.33333 469" width="469pt" xmlns="http://www.w3.org/2000/svg"><path d="m144.773438 24.003906c-7.09375-14.582031-21.890626-23.835937-38.105469-23.835937-16.21875 0-31.015625 9.253906-38.109375 23.835937-30.945313 8.34375-50.910156 38.339844-46.664063 70.105469 4.246094 31.769531 31.386719 55.464844 63.4375 55.390625h42.667969c32.050781.074219 59.191406-23.621094 63.4375-55.390625 4.246094-31.765625-15.71875-61.761719-46.664062-70.105469zm0 0" fill="#f6cbaf"/><path d="m128 74.832031c0-41.234375-9.550781-74.664062-21.332031-74.664062-16.207031.035156-30.988281 9.277343-38.109375 23.835937-30.945313 8.34375-50.910156 38.339844-46.664063 70.105469 4.246094 31.769531 31.386719 55.464844 63.4375 55.390625h21.335938c11.78125 0 21.332031-33.429688 21.332031-74.667969zm0 0" fill="#f9dcc9"/><path d="m448 21.5h-192c-31.503906 0-58.714844 17.265625-73.5 42.667969h-161.167969c-11.78125 0-21.332031 9.550781-21.332031 21.332031v21.332031c0 58.910157 47.757812 106.667969 106.667969 106.667969 58.910156 0 106.664062-47.757812 106.664062-106.667969 0-23.5625 19.105469-42.664062 42.667969-42.664062h192c11.78125 0 21.332031-9.550781 21.332031-21.335938 0-11.78125-9.550781-21.332031-21.332031-21.332031zm0 0" fill="#e92c24"/><path d="m64 170.832031c-35.347656 0-64-28.652343-64-64v-21.359375c0-11.78125 9.554688-21.335937 21.339844-21.332031l85.332031.019531c11.78125.003906 21.328125 9.554688 21.328125 21.335938v21.335937c0 35.347657-28.652344 64-64 64zm0 0" fill="#f17d77"/><path d="m42.667969 64.167969c11.78125 0 21.332031 9.550781 21.332031 21.332031v21.332031c0 11.785157-9.550781 21.335938-21.332031 21.335938-11.785157 0-21.335938-9.550781-21.335938-21.335938v-21.332031c0-11.78125 9.550781-21.332031 21.335938-21.332031zm0 0" fill="#f6b0ad"/><path d="m170.667969 53.5c0 5.890625-4.777344 10.667969-10.667969 10.667969s-10.667969-4.777344-10.667969-10.667969 4.777344-10.667969 10.667969-10.667969 10.667969 4.777344 10.667969 10.667969zm0 0" fill="#f9dcc9"/><path d="m149.332031 32.167969c0 5.890625-4.773437 10.664062-10.664062 10.664062s-10.667969-4.773437-10.667969-10.664062 4.777344-10.667969 10.667969-10.667969 10.664062 4.777344 10.664062 10.667969zm0 0" fill="#f9dcc9"/><g fill="#fcede3"><path d="m85.332031 32.167969c0 5.890625-4.773437 10.664062-10.664062 10.664062s-10.667969-4.773437-10.667969-10.664062 4.777344-10.667969 10.667969-10.667969 10.664062 4.777344 10.664062 10.667969zm0 0"/><path d="m106.667969 53.5c0 5.890625-4.777344 10.667969-10.667969 10.667969s-10.667969-4.777344-10.667969-10.667969 4.777344-10.667969 10.667969-10.667969 10.667969 4.777344 10.667969 10.667969zm0 0"/><path d="m64 53.5c0 5.890625-4.777344 10.667969-10.667969 10.667969s-10.664062-4.777344-10.664062-10.667969 4.773437-10.667969 10.664062-10.667969 10.667969 4.777344 10.667969 10.667969zm0 0"/></g></svg>