<svg height="469pt" viewBox="-21 0 469 469.33334" width="469pt" xmlns="http://www.w3.org/2000/svg"><path d="m426.832031 234.667969c0 117.820312-95.511719 213.332031-213.332031 213.332031s-213.332031-95.511719-213.332031-213.332031c0-117.820313 95.511719-213.335938 213.332031-213.335938s213.332031 95.515625 213.332031 213.335938zm0 0" fill="#e8a073"/><path d="m362.832031 234.667969c0 82.472656-66.859375 149.332031-149.332031 149.332031s-149.332031-66.859375-149.332031-149.332031c0-82.476563 66.859375-149.335938 149.332031-149.335938s149.332031 66.859375 149.332031 149.335938zm0 0" fill="#db7230"/><path d="m320.167969 234.667969c0 70.691406-57.308594 128-128 128-70.695313 0-128-57.308594-128-128 0-70.695313 57.304687-128 128-128 70.691406 0 128 57.304687 128 128zm0 0" fill="#e18850"/><path d="m192.167969 106.667969c0-58.910157-38.207031-106.667969-85.335938-106.667969-47.128906 0-85.332031 47.757812-85.332031 106.667969 0 49.039062 26.628906 89.921875 62.6875 102.386719 0 0-20.019531 210.667968-20.019531 217.613281 0 23.5625 19.101562 42.664062 42.664062 42.664062 23.566407 0 42.667969-19.101562 42.667969-42.664062 0-6.945313-20.023438-217.613281-20.023438-217.613281 36.0625-12.464844 62.691407-53.347657 62.691407-102.386719zm0 0" fill="#f6cbaf"/><path d="m128.167969 96c0-41.238281-19.105469-74.667969-42.667969-74.667969s-42.667969 33.429688-42.667969 74.667969 19.105469 74.667969 42.667969 74.667969 42.667969-33.429688 42.667969-74.667969zm0 0" fill="#f4ba93"/><path d="m384.167969 21.332031c-11.785157 0-21.335938 9.550781-21.335938 21.335938v85.332031h-21.332031v-106.667969c0-11.78125-9.550781-21.332031-21.332031-21.332031-11.785157 0-21.335938 9.550781-21.335938 21.332031v106.667969h-21.332031v-85.332031c-.007812-11.777344-9.558594-21.320313-21.332031-21.320313-11.777344 0-21.328125 9.542969-21.335938 21.320313v85.332031c0 39.210938 26.597657 71.894531 62.625 81.890625 0 0-19.957031 209.832031-19.957031 216.777344 0 23.5625 19.101562 42.664062 42.667969 42.664062 23.5625 0 42.664062-19.101562 42.664062-42.664062 0-6.945313-19.957031-216.777344-19.957031-216.777344 36.03125-9.996094 62.625-42.679687 62.625-81.890625v-85.332031c0-11.785157-9.550781-21.335938-21.332031-21.335938zm0 0" fill="#f6cbaf"/><path d="m302.613281 145.550781c-15.761719-15.765625-35.011719-22.074219-42.992187-14.09375-7.980469 7.976563-1.667969 27.226563 14.097656 42.992188s35.011719 22.074219 42.992188 14.09375c7.980468-7.976563 1.667968-27.226563-14.097657-42.992188zm0 0" fill="#f9dcc9"/></svg>