<?xml version="1.0" encoding="UTF-8" standalone="no"?>
<!-- Created with Inkscape (http://www.inkscape.org/) -->

<svg
   xmlns:dc="http://purl.org/dc/elements/1.1/"
   xmlns:cc="http://creativecommons.org/ns#"
   xmlns:rdf="http://www.w3.org/1999/02/22-rdf-syntax-ns#"
   xmlns:svg="http://www.w3.org/2000/svg"
   xmlns="http://www.w3.org/2000/svg"
   xmlns:sodipodi="http://sodipodi.sourceforge.net/DTD/sodipodi-0.dtd"
   xmlns:inkscape="http://www.inkscape.org/namespaces/inkscape"
   width="32mm"
   height="32mm"
   viewBox="0 0 32 32"
   version="1.1"
   id="svg19235"
   inkscape:version="0.92.3 (2405546, 2018-03-11)"
   sodipodi:docname="eds.svg">
  <defs
     id="defs19229" />
  <sodipodi:namedview
     id="base"
     pagecolor="#ffffff"
     bordercolor="#666666"
     borderopacity="1.0"
     inkscape:pageopacity="0.0"
     inkscape:pageshadow="2"
     inkscape:zoom="1.979899"
     inkscape:cx="42.456302"
     inkscape:cy="-1.4900509"
     inkscape:document-units="mm"
     inkscape:current-layer="layer1"
     showgrid="false"
     inkscape:window-width="1366"
     inkscape:window-height="684"
     inkscape:window-x="0"
     inkscape:window-y="28"
     inkscape:window-maximized="1" />
  <metadata
     id="metadata19232">
    <rdf:RDF>
      <cc:Work
         rdf:about="">
        <dc:format>image/svg+xml</dc:format>
        <dc:type
           rdf:resource="http://purl.org/dc/dcmitype/StillImage" />
        <dc:title></dc:title>
      </cc:Work>
    </rdf:RDF>
  </metadata>
  <g
     inkscape:label="Layer 1"
     inkscape:groupmode="layer"
     id="layer1"
     transform="translate(0,-265)">
    <g
       id="g16281"
       transform="matrix(0.44032548,0,0,-0.44032548,-142.8375,342.55285)"
       style="fill:#ffffff">
      <g
         style="fill:#ffffff"
         transform="translate(341.13707,162.13035)"
         id="g10288">
        <path
           inkscape:connector-curvature="0"
           id="path10290"
           style="fill:#ffffff;fill-opacity:1;fill-rule:nonzero;stroke:none"
           d="M 0,0 C 3.296,0 5.967,2.671 5.967,5.967 5.967,9.262 3.296,11.934 0,11.934 -3.296,11.934 -5.967,9.26 -5.967,5.967 -5.967,2.674 -3.296,0 0,0 m 20.182,-11.231 1.695,1.136 h -0.003 c 0.003,0.01 0.008,0.01 0.013,0.017 0.861,0.855 0.994,2.126 0.46,3.127 L 36.056,2.35 35.434,3.269 21.61,-6.109 c -0.434,0.314 -0.918,0.512 -1.428,0.529 -0.724,0.025 -1.461,-0.22 -2.015,-0.776 0,0 -0.012,-0.015 -0.017,-0.015 l -0.338,-0.235 -3.07,-2.096 v 0.892 c -0.57,6.779 -8.427,6.679 -8.427,6.679 H 2.911 l -2.86,-4.706 -2.874,4.703 H -6.087 C -14.953,-1.3 -14.639,-7.81 -14.639,-7.81 v -15.195 h 0.005 c 0.002,-0.04 -0.005,-0.086 -0.005,-0.118 0,-1.447 1.168,-2.61 2.61,-2.61 1.437,0 2.605,1.168 2.605,2.61 0,0.032 0,0.078 -0.005,0.118 h 0.005 v 14.054 h 1.631 l -0.02,-44.275 c 0,-1.947 1.582,-3.529 3.521,-3.529 1.946,0 3.523,1.582 3.523,3.529 v 28.573 h 1.57 V -53.258 L 0.83,-53.29 c 0.025,-1.912 1.582,-3.465 3.506,-3.465 1.932,0 3.504,1.575 3.504,3.507 l -0.01,44.37 h 1.697 v -4.623 -0.022 c 0,-1.437 1.168,-2.607 2.603,-2.607 0.423,0 0.803,0.12 1.163,0.306 l 0.012,-0.017 4.505,3.021 z M 53.591,7.362 V -20.07 c 0,-0.781 -0.631,-1.415 -1.415,-1.415 H 14.864 c -0.781,0 -1.415,0.634 -1.415,1.415 v 2.167 l 2.831,1.898 v -2.65 H 50.758 V 5.95 H 16.277 V -4.405 C 16.152,-4.5 16.018,-4.583 15.9,-4.691 l -0.397,-0.274 c -0.477,1.248 -1.204,2.233 -2.054,3.041 v 9.286 c 0,0.781 0.637,1.416 1.415,1.416 h 37.312 c 0.784,0 1.415,-0.632 1.415,-1.416" />
      </g>
      <g
         id="g16162"
         transform="matrix(0.16225763,-0.1627698,-0.16225763,-0.1627698,416.83424,204.08128)"
         style="fill:#ffffff"
         inkscape:transform-center-x="-6.6585899"
         inkscape:transform-center-y="-43.650762">
        <rect
           style="fill:#ffffff;stroke-width:0.69992095"
           y="246.51987"
           x="25.374411"
           height="15.842349"
           width="12.690009"
           id="rect16146"
           transform="matrix(0.99999963,8.6281924e-4,8.6281924e-4,0.99999963,0,0)" />
        <rect
           transform="matrix(-8.6281924e-4,-0.99999963,0.99999963,8.6281924e-4,0,0)"
           id="rect16148"
           width="12.690009"
           height="15.842349"
           x="-276.55594"
           y="23.784634"
           style="fill:#ffffff;stroke-width:0.69992095" />
        <rect
           transform="matrix(-8.6281924e-4,-0.99999963,0.99999963,8.6281924e-4,0,0)"
           style="fill:#ffffff;stroke-width:0.69992095"
           y="39.61187"
           x="-260.78555"
           height="15.842349"
           width="12.690009"
           id="rect16150" />
        <rect
           transform="matrix(0.99999963,8.6281924e-4,8.6281924e-4,0.99999963,0,0)"
           id="rect16152"
           width="12.690009"
           height="15.842349"
           x="9.6752682"
           y="262.30328"
           style="fill:#ffffff;stroke-width:0.69992095" />
        <rect
           transform="matrix(-8.6281924e-4,-0.99999963,0.99999963,8.6281924e-4,0,0)"
           style="fill:#ffffff;stroke-width:0.69992095"
           y="7.9482765"
           x="-292.4678"
           height="15.842349"
           width="12.690009"
           id="rect16154" />
        <rect
           transform="matrix(-8.6281924e-4,-0.99999963,0.99999963,8.6281924e-4,0,0)"
           id="rect16156"
           width="12.690009"
           height="15.842349"
           x="-292.39871"
           y="39.611435"
           style="fill:#ffffff;stroke-width:0.69992095" />
        <rect
           transform="matrix(0.99999963,8.6281924e-4,8.6281924e-4,0.99999963,0,0)"
           id="rect16158"
           width="12.690009"
           height="15.842349"
           x="25.347122"
           y="278.14621"
           style="fill:#ffffff;stroke-width:0.69992095" />
        <rect
           style="fill:#ffffff;stroke-width:0.69992095"
           y="262.27609"
           x="41.188046"
           height="15.842349"
           width="12.690009"
           id="rect16160"
           transform="matrix(0.99999963,8.6281924e-4,8.6281924e-4,0.99999963,0,0)" />
      </g>
    </g>
  </g>
</svg>
