<?xml version="1.0" encoding="UTF-8" standalone="no"?>
<!-- Created with Inkscape (http://www.inkscape.org/) -->

<svg
   xmlns:dc="http://purl.org/dc/elements/1.1/"
   xmlns:cc="http://creativecommons.org/ns#"
   xmlns:rdf="http://www.w3.org/1999/02/22-rdf-syntax-ns#"
   xmlns:svg="http://www.w3.org/2000/svg"
   xmlns="http://www.w3.org/2000/svg"
   xmlns:sodipodi="http://sodipodi.sourceforge.net/DTD/sodipodi-0.dtd"
   xmlns:inkscape="http://www.inkscape.org/namespaces/inkscape"
   width="32mm"
   height="32mm"
   viewBox="0 0 32 32"
   version="1.1"
   id="svg19235"
   inkscape:version="0.92.3 (2405546, 2018-03-11)"
   sodipodi:docname="shop.svg">
  <defs
     id="defs19229" />
  <sodipodi:namedview
     id="base"
     pagecolor="#ffffff"
     bordercolor="#666666"
     borderopacity="1.0"
     inkscape:pageopacity="0.0"
     inkscape:pageshadow="2"
     inkscape:zoom="1.979899"
     inkscape:cx="42.456302"
     inkscape:cy="-1.4900509"
     inkscape:document-units="mm"
     inkscape:current-layer="layer1"
     showgrid="false"
     inkscape:window-width="1366"
     inkscape:window-height="684"
     inkscape:window-x="0"
     inkscape:window-y="28"
     inkscape:window-maximized="1" />
  <metadata
     id="metadata19232">
    <rdf:RDF>
      <cc:Work
         rdf:about="">
        <dc:format>image/svg+xml</dc:format>
        <dc:type
           rdf:resource="http://purl.org/dc/dcmitype/StillImage" />
        <dc:title></dc:title>
      </cc:Work>
    </rdf:RDF>
  </metadata>
  <g
     inkscape:label="Layer 1"
     inkscape:groupmode="layer"
     id="layer1"
     transform="translate(0,-265)">
    <g
       transform="matrix(1.3843107,0,0,1.3558248,-46.809165,-60.322457)"
       id="g19227"
       style="fill:#ffffff">
      <path
         style="fill:#ffffff;stroke-width:0.04361736"
         id="path19170"
         d="m 39.291974,263.32648 c 0.169017,0.17037 0.444182,0.17224 0.615414,0.003 l 2.11408,-2.08272 c 0.359162,-0.35917 0.468375,-0.89094 0.310433,-1.35318 l 0.454745,-0.43855 c 0.244836,-0.23648 0.567195,-0.36683 0.907956,-0.36683 h 5.796851 c 1.028415,0 2.000436,-0.39494 2.73733,-1.11206 0.03033,-0.0295 -0.230183,0.27737 3.954698,-4.72432 0.620696,-0.73434 0.52784,-1.83704 -0.207181,-2.45841 -0.730421,-0.6156 -1.824603,-0.52716 -2.447002,0.19456 l -2.573084,2.64465 c -0.324916,-0.39988 -0.820382,-0.64914 -1.355717,-0.64914 h -4.862486 c -0.691913,-0.28948 -1.426082,-0.43601 -2.183594,-0.43601 -2.099086,0 -3.932889,0.96913 -4.917176,2.7881 -0.414536,-0.0785 -0.851732,0.0468 -1.166254,0.36139 l -2.074381,2.08051 c -0.169358,0.16986 -0.169699,0.44469 -7.03e-4,0.6149 z m 3.262273,-9.90644 c 0.667891,0 1.313632,0.13444 1.919675,0.39954 0.05521,0.0242 0.114666,0.0367 0.17481,0.0367 h 4.951765 c 0.472805,0 0.872177,0.38557 0.872177,0.87202 0,0.48098 -0.391194,0.87217 -0.872177,0.87217 h -3.557713 c -0.240747,0 -0.436004,0.19525 -0.436004,0.43601 0,0.2409 0.195257,0.436 0.436004,0.436 h 3.557713 c 0.961796,0 1.744184,-0.78239 1.744184,-1.74418 0,-0.0767 -0.0054,-0.15267 -0.01533,-0.22798 2.489087,-2.5586 2.84007,-2.9181 2.855064,-2.93599 0.310774,-0.36683 0.862467,-0.41334 1.229466,-0.10394 0.367338,0.31061 0.413853,0.86197 0.102226,1.23083 l -3.91108,4.67558 c -0.571116,0.54828 -1.32096,0.85003 -2.113569,0.85003 h -5.796851 c -0.568048,0 -1.105768,0.21724 -1.513659,0.61133 l -0.370576,0.35761 -3.416126,-3.41595 c 0.798401,-1.49781 2.296556,-2.34971 4.160005,-2.34971 z m -5.466142,2.89374 c 0.143801,-0.14379 0.364613,-0.16969 0.539935,-0.0613 0.06662,0.0405 3.796244,3.77937 3.819246,3.81021 0.127615,0.17191 0.109384,0.41607 -0.04004,0.56566 l -1.802284,1.77554 -4.284554,-4.31727 z m 0,0"
         inkscape:connector-curvature="0" />
      <g
         id="g19215"
         transform="matrix(0.14262385,0.14307404,-0.14262385,0.14307404,79.429821,201.43382)"
         style="fill:#ffffff"
         inkscape:transform-center-x="-16.590831"
         inkscape:transform-center-y="-108.76211">
        <rect
           style="fill:#ffffff;stroke-width:0.69992095"
           y="246.51987"
           x="25.374411"
           height="15.842349"
           width="12.690009"
           id="rect19199"
           transform="matrix(0.99999963,8.6281924e-4,8.6281924e-4,0.99999963,0,0)" />
        <rect
           transform="matrix(-8.6281924e-4,-0.99999963,0.99999963,8.6281924e-4,0,0)"
           id="rect19201"
           width="12.690009"
           height="15.842349"
           x="-276.55594"
           y="23.784634"
           style="fill:#ffffff;stroke-width:0.69992095" />
        <rect
           transform="matrix(-8.6281924e-4,-0.99999963,0.99999963,8.6281924e-4,0,0)"
           style="fill:#ffffff;stroke-width:0.69992095"
           y="39.61187"
           x="-260.78555"
           height="15.842349"
           width="12.690009"
           id="rect19203" />
        <rect
           transform="matrix(0.99999963,8.6281924e-4,8.6281924e-4,0.99999963,0,0)"
           id="rect19205"
           width="12.690009"
           height="15.842349"
           x="9.6752682"
           y="262.30328"
           style="fill:#ffffff;stroke-width:0.69992095" />
        <rect
           transform="matrix(-8.6281924e-4,-0.99999963,0.99999963,8.6281924e-4,0,0)"
           style="fill:#ffffff;stroke-width:0.69992095"
           y="7.9482765"
           x="-292.4678"
           height="15.842349"
           width="12.690009"
           id="rect19207" />
        <rect
           transform="matrix(-8.6281924e-4,-0.99999963,0.99999963,8.6281924e-4,0,0)"
           id="rect19209"
           width="12.690009"
           height="15.842349"
           x="-292.39871"
           y="39.611435"
           style="fill:#ffffff;stroke-width:0.69992095" />
        <rect
           transform="matrix(0.99999963,8.6281924e-4,8.6281924e-4,0.99999963,0,0)"
           id="rect19211"
           width="12.690009"
           height="15.842349"
           x="25.347122"
           y="278.14621"
           style="fill:#ffffff;stroke-width:0.69992095" />
        <rect
           style="fill:#ffffff;stroke-width:0.69992095"
           y="262.27609"
           x="41.188046"
           height="15.842349"
           width="12.690009"
           id="rect19213"
           transform="matrix(0.99999963,8.6281924e-4,8.6281924e-4,0.99999963,0,0)" />
      </g>
    </g>
  </g>
</svg>
