<?xml version="1.0" encoding="UTF-8" standalone="no"?>
<!-- Created with Inkscape (http://www.inkscape.org/) -->

<svg
   xmlns:dc="http://purl.org/dc/elements/1.1/"
   xmlns:cc="http://creativecommons.org/ns#"
   xmlns:rdf="http://www.w3.org/1999/02/22-rdf-syntax-ns#"
   xmlns:svg="http://www.w3.org/2000/svg"
   xmlns="http://www.w3.org/2000/svg"
   xmlns:sodipodi="http://sodipodi.sourceforge.net/DTD/sodipodi-0.dtd"
   xmlns:inkscape="http://www.inkscape.org/namespaces/inkscape"
   width="32mm"
   height="32mm"
   viewBox="0 0 32 32"
   version="1.1"
   id="svg19235"
   inkscape:version="0.92.3 (2405546, 2018-03-11)"
   sodipodi:docname="web.svg">
  <defs
     id="defs19229" />
  <sodipodi:namedview
     id="base"
     pagecolor="#ffffff"
     bordercolor="#666666"
     borderopacity="1.0"
     inkscape:pageopacity="0.0"
     inkscape:pageshadow="2"
     inkscape:zoom="2.8"
     inkscape:cx="-18.489626"
     inkscape:cy="52.104183"
     inkscape:document-units="mm"
     inkscape:current-layer="layer1"
     showgrid="false"
     inkscape:window-width="1366"
     inkscape:window-height="684"
     inkscape:window-x="0"
     inkscape:window-y="28"
     inkscape:window-maximized="1" />
  <metadata
     id="metadata19232">
    <rdf:RDF>
      <cc:Work
         rdf:about="">
        <dc:format>image/svg+xml</dc:format>
        <dc:type
           rdf:resource="http://purl.org/dc/dcmitype/StillImage" />
        <dc:title />
      </cc:Work>
    </rdf:RDF>
  </metadata>
  <g
     inkscape:label="Layer 1"
     inkscape:groupmode="layer"
     id="layer1"
     transform="translate(0,-265)">
    <path
       style="fill:#ffffff;fill-opacity:1;fill-rule:nonzero;stroke:none;stroke-width:1.70558739"
       d="M 36.150391 1.5722656 L 36.150391 6.3125 L 20.347656 6.3125 L 20.347656 118.31641 L 103.6582 118.31641 L 103.6582 6.3125 L 87.853516 6.3125 L 87.853516 1.5722656 L 80.289062 1.5722656 L 80.289062 6.3125 L 43.71875 6.3125 L 43.71875 1.5722656 L 36.150391 1.5722656 z M 24.6875 10.648438 L 36.150391 10.648438 L 36.150391 16.708984 L 43.71875 16.708984 L 43.71875 10.648438 L 80.294922 10.648438 L 80.294922 16.708984 L 87.859375 16.708984 L 87.859375 10.648438 L 99.322266 10.648438 L 99.322266 113.99609 L 24.6875 113.99609 L 24.6875 10.648438 z M 63.810547 18.722656 C 63.810547 18.722656 63.413593 18.921969 63.060547 19.353516 C 62.780828 19.510404 62.134069 19.948818 61.914062 20.726562 L 61.724609 20.619141 C 61.821842 20.414441 61.95742 20.16276 62.148438 19.9375 C 62.148438 19.9375 61.870874 20.19095 61.640625 20.578125 L 61.224609 20.378906 C 61.342293 20.148657 61.496321 19.903433 61.726562 19.667969 C 61.726563 19.667969 61.497827 19.841474 61.267578 20.134766 C 61.342621 19.865474 61.322093 19.556763 60.5 20.472656 C 60.5 20.472656 56.742461 22.099264 55.654297 25.474609 C 55.654297 25.474609 55.020723 26.986429 55.863281 31.455078 C 54.659139 30.88539 55.480469 33.826172 55.480469 33.826172 C 55.603269 34.614166 55.928158 34.956365 56.132812 35.099609 C 56.613788 39.071931 60.022288 43.193359 63.123047 43.193359 C 66.694545 43.193359 70.071618 38.857027 70.605469 35.099609 C 70.796494 34.956327 71.128399 34.614885 71.246094 33.832031 C 71.246094 33.832031 72.004094 31.112959 70.996094 31.40625 C 71.35256 30.357318 72.519449 26.27229 70.271484 23.734375 C 70.271484 23.734375 69.21265 22.284834 66.640625 21.515625 C 66.548518 21.442302 66.459771 21.368245 66.357422 21.294922 C 66.357422 21.294922 66.409818 21.359026 66.488281 21.476562 C 66.346719 21.431971 66.190848 21.402588 66.039062 21.363281 C 65.8975 21.216484 65.736219 21.064485 65.560547 20.902344 C 65.560547 20.902344 65.720335 21.065009 65.90625 21.337891 C 65.829488 21.315213 65.775252 21.296495 65.707031 21.285156 C 65.594481 21.104495 65.444447 20.926755 65.263672 20.746094 C 65.263672 20.746094 65.337868 20.881657 65.445312 21.103516 C 64.960931 20.755572 64.011719 19.953787 64.011719 19.056641 C 64.011719 19.056641 63.41362 19.334974 63.074219 19.839844 C 63.212372 19.432184 63.438717 19.039759 63.810547 18.722656 z M 68.722656 41.628906 C 62.461446 53.973486 57.710937 41.660156 57.710938 41.660156 C 57.276012 43.324811 50.833984 45.285156 50.833984 45.285156 C 48.952721 46.010032 48.158203 47.091797 48.158203 47.091797 C 45.376369 51.226146 45.046875 60.416016 45.046875 60.416016 C 45.077576 62.513956 45.988281 62.734375 45.988281 62.734375 C 52.38594 65.589506 62.4375 66.09375 62.4375 66.09375 C 72.744362 66.315457 80.259766 63.166016 80.259766 63.166016 C 81.352941 62.488875 81.382812 61.935547 81.382812 61.935547 C 82.141798 55.350287 78.888672 47.929688 78.888672 47.929688 C 77.90796 45.755061 71.925781 43.863281 71.925781 43.863281 C 68.756704 42.746091 68.722656 41.628906 68.722656 41.628906 z M 65.660156 50.769531 L 67.832031 52.953125 L 65.121094 55.677734 L 62.949219 53.494141 L 65.660156 50.769531 z M 60.273438 50.785156 L 62.445312 52.966797 L 59.732422 55.691406 L 57.560547 53.509766 L 60.273438 50.785156 z M 62.419922 53.480469 L 65.130859 56.205078 L 62.958984 58.386719 L 60.248047 55.662109 L 62.419922 53.480469 z M 67.828125 53.490234 L 70.539062 56.214844 L 68.367188 58.396484 L 65.65625 55.671875 L 67.828125 53.490234 z M 56.986328 53.494141 L 59.697266 56.21875 L 57.525391 58.400391 L 54.814453 55.675781 L 56.986328 53.494141 z M 65.669922 56.199219 L 67.841797 58.382812 L 65.130859 61.107422 L 62.958984 58.923828 L 65.669922 56.199219 z M 60.244141 56.205078 L 62.416016 58.386719 L 59.703125 61.111328 L 57.53125 58.929688 L 60.244141 56.205078 z M 62.417969 58.927734 L 65.128906 61.652344 L 62.957031 63.833984 L 60.246094 61.109375 L 62.417969 58.927734 z M 35.576172 74.486328 L 35.576172 77.179688 L 90.998047 77.179688 L 90.998047 74.486328 L 35.576172 74.486328 z M 35.576172 83.279297 L 35.576172 85.994141 L 86.673828 85.994141 L 86.673828 83.279297 L 35.576172 83.279297 z M 35.576172 91.814453 L 35.576172 94.509766 L 82.341797 94.509766 L 82.341797 91.814453 L 35.576172 91.814453 z M 35.84375 100.20508 L 35.84375 102.91406 L 78.28125 102.91406 L 78.28125 100.20508 L 35.84375 100.20508 z "
       transform="matrix(0.26458333,0,0,0.26458333,0,265)"
       id="path10292" />
  </g>
</svg>
